<svg xmlns="http://www.w3.org/2000/svg">
<defs>
<font id="GTPressuraMono-Light" horiz-adv-x="550" >
  <font-face 
    font-family="GTPressuraMono-Light"
    font-weight="300"
    font-stretch="normal"
    units-per-em="1000"
    panose-1="2 0 5 6 2 0 0 2 0 4"
    ascent="750"
    descent="-250"
    x-height="499.999"
    cap-height="700"
    bbox="-222 -240.002 637.999 1065"
    underline-thickness="50"
    underline-position="-50"
    unicode-range="U+0020-U+FB02"
  />
<missing-glyph 
d="M184 120c-9.33301 0 -15.6611 -2.99414 -18.9941 -8.99414s-6.5 -12.5 -9.5 -19.5s-7.16699 -13.5 -12.5 -19.5s-14.333 -9 -27 -9c-14 0 -26.167 4.5 -36.5 13.5s-15.5 19.5 -15.5 31.5s2.16699 21 6.5 27s9.16602 11.667 14.499 17s10.166 11.666 14.499 18.999
s6.5 18.666 6.5 33.999c0 11.333 -2.83301 20.5 -8.5 27.5s-12.167 10.5 -19.5 10.5c-8 0 -13.167 -1.16699 -15.5 -3.5s-7.16602 -3.5 -14.499 -3.5c-10 0 -17.5 5.33301 -22.5 16s-7.5 22.667 -7.5 36c0 9.33301 3.16699 18.166 9.5 26.499s14.166 12.5 23.499 12.5
c6.66699 0 11.5 -1.83301 14.5 -5.5s7.16699 -5.5 12.5 -5.5c10 0 17 5 21 15s6 18.333 6 25c0 8 -1.66699 16.167 -5 24.5s-5 16.5 -5 24.5c0 13.333 3.83301 22.833 11.5 28.5s17.167 8.5 28.5 8.5c6 0 9 2.66699 9 8c0 3.33301 -1.33301 6.83301 -4 10.5
s-4 8.16699 -4 13.5c0 3.33301 1.83301 6.5 5.5 9.5s7.16699 4.5 10.5 4.5c5.33301 0 9.66602 -1.83301 12.999 -5.5s6.33301 -7.66699 9 -12s5.5 -8.33301 8.5 -12s6.83301 -5.5 11.5 -5.5c8 0 13 2.83301 15 8.5s3.66699 12 5 19s3.66602 13.333 6.99902 19
s10.666 8.5 21.999 8.5c10.667 0 18.5 -2.5 23.5 -7.5s9.5 -10.5 13.5 -16.5s8.5 -11.5 13.5 -16.5s12.167 -7.5 21.5 -7.5c14 0 23.333 3.83301 28 11.5s7 19.834 7 36.501c0 18.667 5 32.167 15 40.5s22.667 12.5 38 12.5c14.667 0 26.167 -4.33301 34.5 -13
s12.5 -20.334 12.5 -35.001c0 -10.667 -2.5 -19.334 -7.5 -26.001s-10.5 -12.167 -16.5 -16.5s-11.5 -8.5 -16.5 -12.5s-7.5 -8.66699 -7.5 -14c0 -9.33301 4 -16.666 12 -21.999s17 -10.833 27 -16.5s19 -12.667 27 -21s12 -20.5 12 -36.5

<glyph glyph-name="IJ" unicode="IJ" 
d="M57 0c-5.33301 0 -10 2 -14 6s-6 8.66699 -6 14v21c0 5.33301 2 10 6 14s8.66699 6 14 6h95c6.66699 0 10 3.33301 10 10v559c0 6.66699 -3.33301 10 -10 10h-85c-5.33301 0 -10 2 -14 6s-6 8.66699 -6 14v20c0 5.33301 2 10 6 14s8.66699 6 14 6h245
c5.33301 0 10 -2 14 -6s6 -8.66699 6 -14v-20c0 -5.33301 -2 -10 -6 -14s-8.66699 -6 -14 -6h-75c-6.66699 0 -10 -3.33301 -10 -10v-559c0 -6.66699 3.33301 -10 10 -10h35c40 0 72.667 12 98 36s38 61.667 38 113v470c0 5.33301 2 10 6 14s8.66699 6 14 6h24
c5.33301 0 10 -2 14 -6s6 -8.66699 6 -14v-480c0 -30.667 -5.16699 -58.334 -15.5 -83.001s-24.5 -45.667 -42.5 -63s-39.167 -30.666 -63.5 -39.999s-50.5 -14 -78.5 -14h-215z" />
    <glyph glyph-name="ij" unicode="ij" 
d="M450 638c0 -10.667 -5.33301 -16 -16 -16h-52c-10.667 0 -16 5.33301 -16 16v53c0 4 1.5 7.66699 4.5 11s6.83301 5 11.5 5h52c10.667 0 16 -5.33301 16 -16v-53zM242 638c0 -10.667 -5.33301 -16 -16 -16h-52c-10.667 0 -16 5.33301 -16 16v53
c0 10.667 5.33301 16 16 16h52c4.66699 0 8.5 -1.66699 11.5 -5s4.5 -7 4.5 -11v-53zM208 -210c-5.33301 0 -10 2 -14 6s-6 8.66699 -6 14v22c0 5.33301 2 10 6 14s8.66699 6 14 6h80c29.333 0 52.5 8.33301 69.5 25s25.5 42 25.5 76v477c0 6.66699 -3.33301 10 -10 10h-137
v-424c0 -10.667 -5.33301 -16 -16 -16h-28c-10.667 -0 -16 5.33301 -16 16v414c0 6.66699 -3.33301 10 -10 10h-75c-5.33301 0 -10 2 -14 6s-6 8.66699 -6 14v20c0 5.33301 2 10 6 14s8.66699 6 14 6h333c5.33301 0 10 -2 14 -6s6 -8.66699 6 -14v-515c0 -30 -4 -56 -12 -78
s-19 -40.167 -33 -54.5s-30.5 -25 -49.5 -32s-39.5 -10.5 -61.5 -10.5h-80z" />
    <glyph glyph-name="napostrophe" unicode="&#x22;n" 
d="M163 477c7.33301 0 14.166 1.66895 20.499 5.00195l22 11.5c8.33301 4.33301 18.5 8.16602 30.5 11.499s27.333 5 46 5c26 0 50 -3.66699 72 -11s41 -18.333 57 -33s28.333 -32.834 37 -54.501s13 -46.834 13 -75.501v-316c0 -5.33301 -2 -10 -6 -14s-8.66699 -6 -14 -6
h-19c-5.33301 0 -10 2 -14 6s-6 8.66699 -6 14v316c0 42 -12.167 71.667 -36.5 89s-54.5 26 -90.5 26c-18 0 -34.667 -2.83301 -50 -8.5s-28.833 -13.5 -40.5 -23.5s-20.667 -21.667 -27 -35s-9.5 -27.666 -9.5 -42.999v-321c0 -5.33301 -2 -10 -6 -14s-8.66699 -6 -14 -6
h-19c-5.33301 0 -10 2 -14 6s-6 8.66699 -6 14v460c0 5.33301 2 10 6 14s8.66699 6 14 6h16c4.66699 0 9.33398 -2.33301 14.001 -7l10 -10.5c3.33301 -3.66699 8 -5.5 14 -5.5zM41 595.002c-5.33301 0 -9.99902 2.00098 -13.999 6.00098s-6 8.66699 -6 14v65
c0 5.33301 2 10 6 14s8.66699 6 14 6h60c5.33301 0 10 -2 14 -6s6 -8.66699 6 -14v-70c0 -14 -1.66699 -24.5 -5 -31.5s-7 -13.5 -11 -19.5l-25 -36l-9.5 -11.5c-3.66699 -4.33301 -10.167 -6.5 -19.5 -6.5h-10c-6 0 -10.833 2.5 -14.5 7.5s-3.83398 10.5 -0.500977 16.5
l28 51c2 3.33301 2.16699 6.66602 0.5 9.99902s-4.5 5 -8.5 5h-5z" />
    <glyph glyph-name="f_f" unicode="ff" 
d="M34 436c-5.33301 0 -10 2 -14 6s-6 8.66699 -6 14v19c0 5.33301 2 10 6 14s8.66699 6 14 6h57c6.66699 0 10 3.33301 10 10v15c0 28 4.16699 53.5 12.5 76.5s20 42.667 35 59s32.833 29 53.5 38s43.667 13.5 69 13.5h15c5.33301 0 10 -2 14 -6s6 -8.66699 6 -14v-16
c0 -5.33301 -2 -10 -6 -14s-8.66699 -6 -14 -6h-15c-19.333 0 -35.833 -3.5 -49.5 -10.5s-25 -16.5 -34 -28.5s-15.667 -26 -20 -42s-6.5 -32.667 -6.5 -50v-15c0 -6.66699 3.33301 -10 10 -10h139c6.66699 0 10 3.33301 10 10v15c0 28 4.16699 53.5 12.5 76.5
s20 42.667 35 59s32.833 29 53.5 38s43.667 13.5 69 13.5h15c5.33301 0 10 -2 14 -6s6 -8.66699 6 -14v-16c0 -5.33301 -2 -10 -6 -14s-8.66699 -6 -14 -6h-15c-19.333 0 -35.833 -3.5 -49.5 -10.5s-25 -16.5 -34 -28.5s-15.667 -26 -20 -42s-6.5 -32.667 -6.5 -50v-15
c0 -6.66699 3.33301 -10 10 -10h114c5.33301 0 10 -2 14 -6s6 -8.66699 6 -14v-19c0 -5.33301 -2 -10 -6 -14s-8.66699 -6 -14 -6h-114c-6.66699 0 -10 -3.33301 -10 -10v-406c0 -5.33301 -2 -10 -6 -14s-8.66699 -6 -14 -6h-20c-5.33301 0 -10 2 -14 6s-6 8.66699 -6 14
v406c0 6.66699 -2.66699 10 -8 10h-141c-6.66699 0 -10 -3.33301 -10 -10v-406c0 -5.33301 -2 -10 -6 -14s-8.66699 -6 -14 -6h-20c-5.33301 0 -10 2 -14 6s-6 8.66699 -6 14v406c0 6.66699 -3.33301 10 -10 10h-57z" />
    <glyph glyph-name="fi" unicode="fi" 
d="M480 20c0 -5.33301 -2 -10 -6 -14s-8.66699 -6 -14 -6h-20c-5.33301 0 -10 2 -14 6s-6 8.66699 -6 14v406c0 6.66699 -3.33301 10 -10 10h-199c-6.66699 0 -10 -3.33301 -10 -10v-406c0 -5.33301 -2 -10 -6 -14s-8.66699 -6 -14 -6h-20c-5.33301 0 -10 2 -14 6
s-6 8.66699 -6 14v406c0 6.66699 -3.33301 10 -10 10h-77c-5.33301 0 -10 2 -14 6s-6 8.66699 -6 14v19c0 5.33301 2 10 6 14s8.66699 6 14 6h77c6.66699 0 10 3.33301 10 10v15c0 28 4.16699 53.5 12.5 76.5s20 42.667 35 59s32.833 29 53.5 38s43.667 13.5 69 13.5h159
c5.33301 0 10 -2 14 -6s6 -8.66699 6 -14v-16c0 -5.33301 -2 -10 -6 -14s-8.66699 -6 -14 -6h-159c-19.333 0 -35.833 -3.5 -49.5 -10.5s-25 -16.5 -34 -28.5s-15.667 -26 -20 -42s-6.5 -32.667 -6.5 -50v-15c0 -6.66699 3.33301 -10 10 -10h249c5.33301 0 10 -2 14 -6
s6 -8.66699 6 -14v-455z" />
    <glyph glyph-name="fl" unicode="fl" 
d="M410 426c0 6.66699 -3.33301 10 -10 10h-189c-6.66699 0 -10 -3.33301 -10 -10v-406c0 -5.33301 -2 -10 -6 -14s-8.66699 -6 -14 -6h-20c-5.33301 0 -10 2 -14 6s-6 8.66699 -6 14v406c0 6.66699 -3.33301 10 -10 10h-67c-5.33301 0 -10 2 -14 6s-6 8.66699 -6 14v19
c0 5.33301 2 10 6 14s8.66699 6 14 6h67c6.66699 0 10 3.33301 10 10v15c0 28 4.16699 53.5 12.5 76.5s20 42.667 35 59s32.833 29 53.5 38s43.667 13.5 69 13.5h15c5.33301 0 10 -2 14 -6s6 -8.66699 6 -14v-16c0 -5.33301 -2 -10 -6 -14s-8.66699 -6 -14 -6h-15
c-19.333 0 -35.833 -3.5 -49.5 -10.5s-25 -16.5 -34 -28.5s-15.667 -26 -20 -42s-6.5 -32.667 -6.5 -50v-15c0 -6.66699 3.33301 -10 10 -10h189c6.66699 0 10 3.33301 10 10v182c0 5.33301 2 10 6 14s8.66699 6 14 6h20c5.33301 0 10 -2 14 -6s6 -8.66699 6 -14v-667
c0 -5.33301 -2 -10 -6 -14s-8.66699 -6 -14 -6h-20c-5.33301 0 -10 2 -14 6s-6 8.66699 -6 14v406z" />
    <glyph glyph-name=".notdef" 
d="M184 120c-9.33301 0 -15.6611 -2.99414 -18.9941 -8.99414s-6.5 -12.5 -9.5 -19.5s-7.16699 -13.5 -12.5 -19.5s-14.333 -9 -27 -9c-14 0 -26.167 4.5 -36.5 13.5s-15.5 19.5 -15.5 31.5s2.16699 21 6.5 27s9.16602 11.667 14.499 17s10.166 11.666 14.499 18.999
s6.5 18.666 6.5 33.999c0 11.333 -2.83301 20.5 -8.5 27.5s-12.167 10.5 -19.5 10.5c-8 0 -13.167 -1.16699 -15.5 -3.5s-7.16602 -3.5 -14.499 -3.5c-10 0 -17.5 5.33301 -22.5 16s-7.5 22.667 -7.5 36c0 9.33301 3.16699 18.166 9.5 26.499s14.166 12.5 23.499 12.5
c6.66699 0 11.5 -1.83301 14.5 -5.5s7.16699 -5.5 12.5 -5.5c10 0 17 5 21 15s6 18.333 6 25c0 8 -1.66699 16.167 -5 24.5s-5 16.5 -5 24.5c0 13.333 3.83301 22.833 11.5 28.5s17.167 8.5 28.5 8.5c6 0 9 2.66699 9 8c0 3.33301 -1.33301 6.83301 -4 10.5
s-4 8.16699 -4 13.5c0 3.33301 1.83301 6.5 5.5 9.5s7.16699 4.5 10.5 4.5c5.33301 0 9.66602 -1.83301 12.999 -5.5s6.33301 -7.66699 9 -12s5.5 -8.33301 8.5 -12s6.83301 -5.5 11.5 -5.5c8 0 13 2.83301 15 8.5s3.66699 12 5 19s3.66602 13.333 6.99902 19
s10.666 8.5 21.999 8.5c10.667 0 18.5 -2.5 23.5 -7.5s9.5 -10.5 13.5 -16.5s8.5 -11.5 13.5 -16.5s12.167 -7.5 21.5 -7.5c14 0 23.333 3.83301 28 11.5s7 19.834 7 36.501c0 18.667 5 32.167 15 40.5s22.667 12.5 38 12.5c14.667 0 26.167 -4.33301 34.5 -13
s12.5 -20.334 12.5 -35.001c0 -10.667 -2.5 -19.334 -7.5 -26.001s-10.5 -12.167 -16.5 -16.5s-11.5 -8.5 -16.5 -12.5s-7.5 -8.66699 -7.5 -14c0 -9.33301 4 -16.666 12 -21.999s17 -10.833 27 -16.5s19 -12.667 27 -21s12 -20.5 12 -36.5
c0 -9.33301 -1.66699 -16.833 -5 -22.5s-7 -10.667 -11 -15s-7.66699 -9 -11 -14s-5 -11.833 -5 -20.5c0 -6.66699 3.16699 -12.667 9.5 -18s17.833 -8 34.5 -8c14.667 0 25 -4.33301 31 -13s9 -19.334 9 -32.001c0 -14.667 -5 -27 -15 -37s-22.333 -15 -37 -15
c-8 0 -14.5 2.66699 -19.5 8s-10 11 -15 17s-10.333 11.667 -16 17s-12.834 8 -21.501 8c-7.33301 0 -13.333 -1.83301 -18 -5.5s-7 -8.83398 -7 -15.501c0 -5.33301 1 -9.5 3 -12.5s4.33301 -5.83301 7 -8.5s5 -6 7 -10s3 -10 3 -18
c0 -8.66699 -2.83301 -16.334 -8.5 -23.001s-14.5 -10 -26.5 -10c-6 0 -11.833 1.5 -17.5 4.5s-11.667 6.5 -18 10.5s-13.166 7.5 -20.499 10.5s-15.333 4.5 -24 4.5c-6 0 -11.833 -2.33301 -17.5 -7s-8.5 -12.667 -8.5 -24c0 -8 -2.16699 -14.5 -6.5 -19.5
s-10.166 -7.5 -17.499 -7.5c-6 0 -10.167 2.5 -12.5 7.5l-7.5 16.5c-2.66699 6 -6.33398 11.5 -11.001 16.5s-12.334 7.5 -23.001 7.5zM298.005 340.006c0 -11.333 3.83301 -20.833 11.5 -28.5s17.167 -11.5 28.5 -11.5s21.333 3.83301 30 11.5s13 17.167 13 28.5
s-4.33301 22 -13 32s-18.667 15 -30 15s-20.833 -5 -28.5 -15s-11.5 -20.667 -11.5 -32zM281.005 226.006c-9.33301 0 -18 1.83301 -26 5.5s-15.333 8.5 -22 14.5c-3.33301 2.66699 -5.66602 3 -6.99902 1s-0.666016 -4.66699 2.00098 -8c5.33301 -8 12 -14.833 20 -20.5
s19 -8.5 33 -8.5c13.333 0 23.166 3.83301 29.499 11.5s11.166 15.167 14.499 22.5c1.33301 3.33301 1 5.5 -1 6.5s-3.66699 0.166992 -5 -2.5c-8 -14.667 -20.667 -22 -38 -22zM214.005 335.006c0 6 1.33301 11 4 15s6 6 10 6s7.33301 -2 10 -6s4 -9 4 -15
s-1.33301 -11 -4 -15s-6 -6 -10 -6s-7.33301 2 -10 6s-4 9 -4 15zM310.005 340.006c0 6 1.33301 11 4 15s6 6 10 6s7.33301 -2 10 -6s4 -9 4 -15s-1.33301 -11 -4 -15s-6 -6 -10 -6s-7.33301 2 -10 6s-4 9 -4 15zM178.005 340.006c0 -14 3.16699 -25.833 9.5 -35.5
s15.166 -14.5 26.499 -14.5s20.833 4.83301 28.5 14.5s11.5 21.5 11.5 35.5s-3.83301 25.833 -11.5 35.5s-17.167 14.5 -28.5 14.5s-20.166 -4.83301 -26.499 -14.5s-9.5 -21.5 -9.5 -35.5zM85.0049 520.006c0 9.33301 2.83301 17.333 8.5 24s12.5 10 20.5 10
c6.66699 0 12.334 -3.33301 17.001 -10s7 -14.667 7 -24s-2.33301 -17.333 -7 -24s-10.334 -10 -17.001 -10c-8 0 -14.833 3.33301 -20.5 10s-8.5 14.667 -8.5 24z" />
    <glyph glyph-name="space" unicode=" " 
 />
    <glyph glyph-name="exclam" unicode="!" 
d="M274 210c0 -5.33301 -2 -10 -6 -14s-8.66699 -6 -14 -6h-20c-5.33301 0 -10 2 -14 6s-6 8.66699 -6 14v470c0 5.33301 2 10 6 14s8.66699 6 14 6h20c5.33301 0 10 -2 14 -6s6 -8.66699 6 -14v-470zM292 16c0 -10.667 -5.33301 -16 -16 -16h-62
c-10.667 -0 -16 5.33301 -16 16v63c0 4 1.5 7.66699 4.5 11s6.83301 5 11.5 5h62c4.66699 0 8.5 -1.66699 11.5 -5s4.5 -7 4.5 -11v-63z" />
    <glyph glyph-name="quotedbl" unicode="&#x22;" 
d="M160 590c-5.33301 0 -9.99902 2.00098 -13.999 6.00098s-6 8.66699 -6 14v70c0 5.33301 2 10 6 14s8.66699 6 14 6h70c5.33301 0 10 -2 14 -6s6 -8.66699 6 -14v-75c0 -14 -1.66699 -24.5 -5 -31.5s-7 -13.5 -11 -19.5l-40 -56l-9.5 -11.5
c-3.66699 -4.33301 -10.167 -6.5 -19.5 -6.5h-10c-6 0 -10.833 2.5 -14.5 7.5s-3.83398 10.5 -0.500977 16.5l38 71c2 3.33301 2.16699 6.66602 0.5 9.99902s-4.5 5 -8.5 5h-10zM322.001 590.001c-5.33301 0 -9.99902 2.00098 -13.999 6.00098s-6 8.66699 -6 14v70
c0 5.33301 2 10 6 14s8.66699 6 14 6h70c5.33301 0 10 -2 14 -6s6 -8.66699 6 -14v-75c0 -14 -1.66699 -24.5 -5 -31.5s-7 -13.5 -11 -19.5l-40 -56l-9.5 -11.5c-3.66699 -4.33301 -10.167 -6.5 -19.5 -6.5h-10c-6 0 -10.833 2.5 -14.5 7.5s-3.83398 10.5 -0.500977 16.5
l38 71c2 3.33301 2.16699 6.66602 0.5 9.99902s-4.5 5 -8.5 5h-10z" />
    <glyph glyph-name="numbersign" unicode="#" 
d="M362 440c1.33301 6.66699 -1.33398 10 -8.00098 10h-116c-6.66699 0 -10.667 -3.33301 -12 -10l-36 -200c-1.33301 -6.66699 1.33398 -10 8.00098 -10h116c6.66699 0 10.667 3.33301 12 10zM164 440c1.33301 6.66699 -1.33398 10 -8.00098 10h-50
c-5.33301 0 -9.83301 2 -13.5 6s-4.83398 8.66699 -3.50098 14l2 18c1.33301 5.33301 4.33301 10 9 14s9.66699 6 15 6h50c6.66699 0 10.667 3.33301 12 10l28 162c1.33301 5.33301 4.16602 10 8.49902 14s9.16602 6 14.499 6h22c5.33301 0 9.83301 -2 13.5 -6
s4.83398 -8.66699 3.50098 -14l-28 -162c-1.33301 -6.66699 1.33398 -10 8.00098 -10h116c6.66699 0 10.667 3.33301 12 10l28 162c1.33301 5.33301 4.16602 10 8.49902 14s9.16602 6 14.499 6h22c5.33301 0 9.83301 -2 13.5 -6s4.83398 -8.66699 3.50098 -14l-28 -162
c-1.33301 -6.66699 1.33398 -10 8.00098 -10h50c5.33301 0 9.66602 -2 12.999 -6s4.33301 -8.66699 3 -14l-2 -18c-1.33301 -5.33301 -4.16602 -10 -8.49902 -14s-9.16602 -6 -14.499 -6h-50c-6.66699 0 -10.667 -3.33301 -12 -10l-36 -200
c-1.33301 -6.66699 1.33398 -10 8.00098 -10h50c5.33301 0 9.66602 -2 12.999 -6s4.33301 -8.66699 3 -14l-3 -18c-1.33301 -5.33301 -4.16602 -10 -8.49902 -14s-9.16602 -6 -14.499 -6h-50c-6.66699 0 -10.667 -3.33301 -12 -10l-26 -142
c-1.33301 -5.33301 -4.16602 -10 -8.49902 -14s-9.16602 -6 -14.499 -6h-22c-5.33301 0 -9.83301 2 -13.5 6s-4.83398 8.66699 -3.50098 14l26 142c1.33301 6.66699 -1.33398 10 -8.00098 10h-116c-6.66699 0 -10.667 -3.33301 -12 -10l-26 -142
c-1.33301 -5.33301 -4.16602 -10 -8.49902 -14s-9.16602 -6 -14.499 -6h-22c-5.33301 0 -9.83301 2 -13.5 6s-4.83398 8.66699 -3.50098 14l26 142c1.33301 6.66699 -1.33398 10 -8.00098 10h-50c-5.33301 0 -9.83301 2 -13.5 6s-4.83398 8.66699 -3.50098 14l3 18
c1.33301 5.33301 4.33301 10 9 14s9.66699 6 15 6h50c6.66699 0 10.667 3.33301 12 10z" />
    <glyph glyph-name="dollar" unicode="$" 
d="M234 704c6.66699 0.666992 9.99805 4.00195 9.99805 10.002v36c0 5.33301 2 10 6 14s8.66699 6 14 6h22c5.33301 0 10 -2 14 -6s6 -8.66699 6 -14v-36c0 -6 3.33301 -9.33301 10 -10c48 -8.66699 85.667 -30 113 -64s41 -74 41 -120v-13c0 -5.33301 -2 -10 -6 -14
s-8.66699 -6 -14 -6h-24c-5.33301 0 -10 2 -14 6s-6 8.66699 -6 14v13c0 18 -3.33301 34.5 -10 49.5s-15.834 28 -27.501 39s-25.5 19.667 -41.5 26s-33.333 9.5 -52 9.5c-22 0 -41.333 -3.5 -58 -10.5s-30.334 -16.333 -41.001 -28s-18.667 -25 -24 -40
s-8 -30.167 -8 -45.5c0 -18 3.83301 -33.833 11.5 -47.5s17.667 -25.334 30 -35.001s26.333 -17.334 42 -23.001s31.5 -9.5 47.5 -11.5c68 -8 120.833 -29.167 158.5 -63.5s56.5 -80.833 56.5 -139.5c0 -28.667 -4.66699 -54.667 -14 -78s-21.833 -43.833 -37.5 -61.5
s-34 -32 -55 -43s-43.5 -18.5 -67.5 -22.5c-6.66699 -0.666992 -10 -4 -10 -10v-35c0 -5.33301 -2 -10 -6 -14s-8.66699 -6 -14 -6h-22c-5.33301 0 -10 2 -14 6s-6 8.66699 -6 14v35c0 6 -3.33301 9.33301 -10 10c-26.667 4.66699 -50.667 13.167 -72 25.5
s-39.5 27.666 -54.5 45.999s-26.667 38.833 -35 61.5s-12.5 46.667 -12.5 72v16c0 5.33301 2 10 6 14s8.66699 6 14 6h25c5.33301 0 10 -2 14 -6s6 -8.66699 6 -14v-16c0 -17.333 3.16699 -34.666 9.5 -51.999s15.833 -32.833 28.5 -46.5s28.334 -24.667 47.001 -33
s40.334 -12.5 65.001 -12.5c46 0 82.333 13.333 109 40s40.334 61.334 41.001 104.001c0.666992 38.667 -12.166 70 -38.499 94s-63.5 38.667 -111.5 44c-28.667 2.66699 -55 8.66699 -79 18s-44.667 21.666 -62 36.999s-30.833 33.5 -40.5 54.5s-14.5 45.167 -14.5 72.5
c0 26 4.16699 49.5 12.5 70.5s19.5 39.167 33.5 54.5s30.333 28 49 38s38.667 17 60 21z" />
    <glyph glyph-name="percent" unicode="%" 
d="M127 15c-5.33301 -10 -12.333 -15 -21 -15h-12c-6.66699 -0 -11.834 2.83301 -15.501 8.5s-3.83398 12.167 -0.500977 19.5l324 657c4.66699 10 12 15 22 15h13c6.66699 0 11.834 -2.83301 15.501 -8.5s3.83398 -12.167 0.500977 -19.5zM93 550
c0 -27.333 4.33301 -49.666 13 -66.999s22 -26 40 -26s31.333 8.66699 40 26s13 39.666 13 66.999s-4.33301 49.666 -13 66.999s-22 26 -40 26s-31.333 -8.66699 -40 -26s-13 -39.666 -13 -66.999zM39 550c0 16 1.33301 32.333 4 49s7.83398 31.667 15.501 45
s18.5 24.333 32.5 33s32.333 13 55 13s41 -4.33301 55 -13s24.833 -19.667 32.5 -33s12.834 -28.333 15.501 -45s4 -33 4 -49s-1.33301 -32.333 -4 -49s-7.83398 -31.667 -15.501 -45s-18.5 -24.333 -32.5 -33s-32.333 -13 -55 -13s-41 4.33301 -55 13
s-24.833 19.667 -32.5 33s-12.834 28.333 -15.501 45s-4 33 -4 49zM347 150c0 -27.333 4.33301 -49.666 13 -66.999s22 -26 40 -26s31.333 8.66699 40 26s13 39.666 13 66.999s-4.33301 49.666 -13 66.999s-22 26 -40 26s-31.333 -8.66699 -40 -26s-13 -39.666 -13 -66.999z
M293 150c0 16 1.33301 32.333 4 49s7.83398 31.667 15.501 45s18.5 24.333 32.5 33s32.333 13 55 13s41 -4.33301 55 -13s24.833 -19.667 32.5 -33s12.834 -28.333 15.501 -45s4 -33 4 -49s-1.33301 -32.333 -4 -49s-7.83398 -31.667 -15.501 -45s-18.5 -24.333 -32.5 -33
s-32.333 -13 -55 -13s-41 4.33301 -55 13s-24.833 19.667 -32.5 33s-12.834 28.333 -15.501 45s-4 33 -4 49z" />
    <glyph glyph-name="ampersand" unicode="&#x26;" 
d="M113 369c4.66699 4 6.49902 8.15918 5.49902 12.4922s-2.83301 8.16602 -5.5 11.499c-13.333 19.333 -24.333 39.833 -33 61.5s-13 44.5 -13 68.5c0 26 4 49.833 12 71.5s19.667 40.334 35 56.001s34.5 27.834 57.5 36.501s49.167 13 78.5 13
c26.667 0 50.5 -4.66699 71.5 -14s39 -22.166 54 -38.499s26.5 -35.666 34.5 -57.999s12 -46.5 12 -72.5v-15c0 -5.33301 -2 -10 -6 -14s-8.66699 -6 -14 -6h-20c-5.33301 0 -10 2 -14 6s-6 8.66699 -6 14v15c0 16.667 -2.5 32.834 -7.5 48.501s-12.333 29.5 -22 41.5
s-21.5 21.5 -35.5 28.5s-30 10.5 -48 10.5c-42 0 -72.667 -11.5 -92 -34.5s-29 -52.5 -29 -88.5c0 -14 4 -29.667 12 -47s17.5 -34.166 28.5 -50.499s21.833 -31 32.5 -44s18.667 -22.5 24 -28.5l170 -191c4 -4.66699 7 -4.33398 9 0.999023c2 4 3.83301 8.66699 5.5 14
s3 13 4 23s1.83301 22.833 2.5 38.5s1 36.167 1 61.5c0 5.33301 2 10 6 14s8.66699 6 14 6h15c5.33301 0 10 -2 14 -6s6 -8.66699 6 -14c0 -32.667 -0.5 -58.667 -1.5 -78s-2.5 -35 -4.5 -47s-4.66699 -21.667 -8 -29l-11 -24
c-1.33301 -1.33301 -2.16602 -3.66602 -2.49902 -6.99902s1.16699 -6.66602 4.5 -9.99902l63 -71c5.33301 -6.66699 6.66602 -14 3.99902 -22s-9.66699 -12 -21 -12h-23c-7.33301 0 -12.333 1.16699 -15 3.5s-5 4.5 -7 6.5l-37 40c-3.33301 4 -6.16602 5.33301 -8.49902 4
s-4.16602 -2.66602 -5.49902 -3.99902c-19.333 -18 -42.333 -32.167 -69 -42.5s-55.334 -15.5 -86.001 -15.5c-31.333 0 -60 5.66699 -86 17s-48.5 26.5 -67.5 45.5s-33.667 41.333 -44 67s-15.5 52.834 -15.5 81.501c0 15.333 2 30.666 6 45.999s9.66699 30.333 17 45
s16 28.334 26 41.001s21 24 33 34zM243.999 50.9922c28 0 52.1689 5.16895 72.502 15.502s35.5 20.833 45.5 31.5c3.33301 3.33301 3.66602 7 0.999023 11l-197 219c-1.33301 2 -2.66602 2.66699 -3.99902 2s-2.33301 -1.33398 -3 -2.00098c-8 -6 -15.833 -12.667 -23.5 -20
s-14.667 -16 -21 -26s-11.5 -21.5 -15.5 -34.5s-6 -27.833 -6 -44.5c0 -22 4 -42.333 12 -61s18.667 -34.834 32 -48.501s29.166 -24.167 47.499 -31.5s38.166 -11 59.499 -11z" />
    <glyph glyph-name="quotesingle" unicode="'" 
d="M241 590c-5.33301 0 -9.99902 2.00098 -13.999 6.00098s-6 8.66699 -6 14v70c0 5.33301 2 10 6 14s8.66699 6 14 6h70c5.33301 0 10 -2 14 -6s6 -8.66699 6 -14v-75c0 -14 -1.66699 -24.5 -5 -31.5s-7 -13.5 -11 -19.5l-40 -56l-9.5 -11.5
c-3.66699 -4.33301 -10.167 -6.5 -19.5 -6.5h-10c-6 0 -10.833 2.5 -14.5 7.5s-3.83398 10.5 -0.500977 16.5l38 71c2 3.33301 2.16699 6.66602 0.5 9.99902s-4.5 5 -8.5 5h-10z" />
    <glyph glyph-name="parenleft" unicode="(" 
d="M428 -27c5.33301 0 10.001 -1.99609 14.001 -5.99609s6 -8.66699 6 -14v-23c0 -5.33301 -2 -10 -6 -14s-8.66699 -6 -14 -6h-38c-30 0 -57.667 4.83301 -83 14.5s-47.5 23.667 -66.5 42s-34.5 40.5 -46.5 66.5s-20 55 -24 87c-2 13.333 -3.5 30.5 -4.5 51.5
s-1.83301 43.667 -2.5 68s-1 49.666 -1 75.999s0.333008 51.666 1 75.999s1.5 46.833 2.5 67.5s2.5 37.667 4.5 51c3.33301 27.333 10.5 53.666 21.5 78.999s25.667 47.666 44 66.999s40.333 34.833 66 46.5s55.167 17.5 88.5 17.5h32c5.33301 0 10 -2 14 -6
s6 -8.66699 6 -14v-23c0 -5.33301 -2 -10 -6 -14s-8.66699 -6 -14 -6h-32c-21.333 0 -40.833 -4.16699 -58.5 -12.5s-33.167 -19.5 -46.5 -33.5s-24.333 -29.833 -33 -47.5s-14.334 -35.5 -17.001 -53.5c-3.33301 -20.667 -5.83301 -48.667 -7.5 -84s-2.5 -72.333 -2.5 -111
s0.833008 -75.667 2.5 -111s4.16699 -63.333 7.5 -84c2 -14.667 6.66699 -30.5 14 -47.5s17.333 -32.833 30 -47.5s28.167 -27 46.5 -37s39.833 -15 64.5 -15h38z" />
    <glyph glyph-name="parenright" unicode=")" 
d="M160 -27c24.667 0 46.167 4.99707 64.5 14.9971s33.833 22.333 46.5 37s22.667 30.5 30 47.5s12 32.833 14 47.5c3.33301 20.667 5.83301 48.667 7.5 84s2.5 72.333 2.5 111s-0.833008 75.667 -2.5 111s-4.16699 63.333 -7.5 84
c-3.33301 18 -9.16602 35.833 -17.499 53.5s-19.166 33.5 -32.499 47.5s-28.833 25.167 -46.5 33.5s-37.167 12.5 -58.5 12.5h-32c-5.33301 0 -10 2 -14 6s-6 8.66699 -6 14v23c0 5.33301 2 10 6 14s8.66699 6 14 6h32c32.667 0 62 -5.83301 88 -17.5
s48.167 -27.167 66.5 -46.5s33 -41.666 44 -66.999s18.167 -51.666 21.5 -78.999c1.33301 -13.333 2.66602 -30.333 3.99902 -51s2.16602 -43.167 2.49902 -67.5l1 -76c0.333008 -26.333 0.166016 -51.666 -0.500977 -75.999s-1.66699 -47 -3 -68
s-2.66602 -38.167 -3.99902 -51.5c-4 -32 -12.167 -61 -24.5 -87s-28 -48.167 -47 -66.5s-41 -32.333 -66 -42s-52.5 -14.5 -82.5 -14.5h-38c-5.33301 0 -10 2 -14 6s-6 8.66699 -6 14v23c0 5.33301 2 10 6 14s8.66699 6 14 6h38z" />
    <glyph glyph-name="asterisk" unicode="*" 
d="M304 534l1 -64c0 -5.33301 -2 -10 -6 -14s-8.66699 -6 -14 -6h-21c-5.33301 0 -10 2 -14 6s-6 8.66699 -6 14l1 64l-55 -33c-5.33301 -3.33301 -10.5 -4.16602 -15.5 -2.49902s-8.83301 4.83398 -11.5 9.50098l-11 19c-2.66699 4.66699 -3.16699 9.66699 -1.5 15
s4.83398 9.33301 9.50098 12l55 31l-55 31c-5.33301 3.33301 -8.66602 7.5 -9.99902 12.5s-0.666016 9.83301 2.00098 14.5l11 19c2.66699 4.66699 6.66699 7.66699 12 9s10.333 0.666016 15 -2.00098l55 -33l-1 64c0 5.33301 2 10 6 14s8.66699 6 14 6h21
c5.33301 0 10 -2 14 -6s6 -8.66699 6 -14l-1 -64l55 33c5.33301 3.33301 10.5 4.16602 15.5 2.49902s8.83301 -4.83398 11.5 -9.50098l11 -19c2.66699 -4.66699 3.16699 -9.66699 1.5 -15s-4.83398 -9.33301 -9.50098 -12l-56 -31l56 -31
c5.33301 -3.33301 8.66602 -7.5 9.99902 -12.5s0.666016 -9.83301 -2.00098 -14.5l-11 -19c-2.66699 -4.66699 -6.66699 -7.66699 -12 -9s-10.333 -0.666016 -15 2.00098z" />
    <glyph glyph-name="plus" unicode="+" 
d="M234 281c6.66699 0 10 3.33301 10 10v159c0 5.33301 2 10 6 14s8.66699 6 14 6h22c5.33301 0 10 -2 14 -6s6 -8.66699 6 -14v-159c0 -6.66699 3.33301 -10 10 -10h159c5.33301 0 10 -2 14 -6s6 -8.66699 6 -14v-21c0 -5.33301 -2 -10 -6 -14s-8.66699 -6 -14 -6h-159
c-6.66699 0 -10 -3.33301 -10 -10v-160c0 -5.33301 -2 -10 -6 -14s-8.66699 -6 -14 -6h-22c-5.33301 0 -10 2 -14 6s-6 8.66699 -6 14v160c0 6.66699 -3.33301 10 -10 10h-159c-5.33301 0 -10 2 -14 6s-6 8.66699 -6 14v21c0 5.33301 2 10 6 14s8.66699 6 14 6h159z" />
    <glyph glyph-name="comma" unicode="," 
d="M241 0c-5.33301 0 -9.99902 2.00098 -13.999 6.00098s-6 8.66699 -6 14v70c0 5.33301 2 10 6 14s8.66699 6 14 6h70c5.33301 0 10 -2 14 -6s6 -8.66699 6 -14v-75c0 -14 -1.66699 -24.5 -5 -31.5s-7 -13.5 -11 -19.5l-40 -56l-9.5 -11.5
c-3.66699 -4.33301 -10.167 -6.5 -19.5 -6.5h-10c-6 0 -10.833 2.5 -14.5 7.5s-3.83398 10.5 -0.500977 16.5l38 71c2 3.33301 2.16699 6.66602 0.5 9.99902s-4.5 5 -8.5 5h-10z" />
    <glyph glyph-name="hyphen" unicode="-" 
d="M411 304c5.33301 0 10 -2 14 -6s6 -8.66699 6 -14v-35c0 -5.33301 -2 -10 -6 -14s-8.66699 -6 -14 -6h-273c-5.33301 0 -10 2 -14 6s-6 8.66699 -6 14v35c0 5.33301 2 10 6 14s8.66699 6 14 6h273z" />
    <glyph glyph-name="period" unicode="." 
d="M330 20c0 -5.33301 -2 -10 -6 -14s-8.66699 -6 -14 -6h-70c-5.33301 0 -10 2 -14 6s-6 8.66699 -6 14v70c0 5.33301 2 10 6 14s8.66699 6 14 6h70c5.33301 0 10 -2 14 -6s6 -8.66699 6 -14v-70z" />
    <glyph glyph-name="slash" unicode="/" 
d="M161 3c-4.66699 -10 -11.666 -15 -20.999 -15h-21c-6.66699 0 -11.834 2.83301 -15.501 8.5s-3.83398 12.167 -0.500977 19.5l286 679c3.33301 10 9.66602 15 18.999 15h21c6.66699 0 11.834 -2.83301 15.501 -8.5s3.83398 -12.167 0.500977 -19.5z" />
    <glyph glyph-name="zero" unicode="0" 
d="M65 500c3.33301 27.333 10 53.498 20 78.498s23.5 47.167 40.5 66.5s37.833 34.666 62.5 45.999s53.667 17 87 17c60.667 0 108.834 -18.5 144.501 -55.5s57.5 -87.833 65.5 -152.5c2.66699 -20 4.5 -43.167 5.5 -69.5s1.5 -53.166 1.5 -80.499
s-0.666992 -54.166 -2 -80.499s-3 -49.5 -5 -69.5c-3.33301 -27.333 -9.83301 -53.666 -19.5 -78.999s-23.167 -47.5 -40.5 -66.5s-38.5 -34.167 -63.5 -45.5s-53.833 -17 -86.5 -17c-60.667 0 -108.834 18.5 -144.501 55.5s-57.5 87.833 -65.5 152.5
c-2.66699 20 -4.66699 43.167 -6 69.5s-2 53.333 -2 81s0.666992 54.5 2 80.5s3.33301 49 6 69zM275 648.998c-22.667 0 -42.832 -4.33398 -60.499 -13.001s-32.667 -20 -45 -34s-22.166 -29.833 -29.499 -47.5s-12 -35.834 -14 -54.501
c-2.66699 -21.333 -4.66699 -45 -6 -71s-2 -52.5 -2 -79.5s0.666992 -53.5 2 -79.5s3.33301 -49.333 6 -70c2 -14.667 6 -30.667 12 -48s14.667 -33.5 26 -48.5s26.166 -27.5 44.499 -37.5s40.5 -15 66.5 -15c23.333 0 43.666 4.33301 60.999 13s32 20 44 34
s21.667 30 29 48s12.333 36 15 54c2.66699 20.667 4.83398 44 6.50098 70s2.5 52.5 2.5 79.5s-0.833008 53.5 -2.5 79.5s-3.83398 49.667 -6.50098 71c-2 14.667 -6 30.834 -12 48.501s-14.667 33.834 -26 48.501s-26 27 -44 37s-40.333 15 -67 15z" />
    <glyph glyph-name="one" unicode="1" 
d="M269 596c0 3.33301 -1.16797 5.16992 -3.50098 5.50293s-4.16602 -0.166992 -5.49902 -1.5l-140 -176c-4 -4.66699 -8.66699 -5.83398 -14 -3.50098s-8 6.16602 -8 11.499v42c0 8.66699 2.5 16.667 7.5 24s9.16699 13 12.5 17l140 176c2 3.33301 5 5.66602 9 6.99902
s7.66699 2 11 2h31c5.33301 0 10 -2 14 -6s6 -8.66699 6 -14v-609c0 -6.66699 3.33301 -10 10 -10h121c5.33301 0 10 -2 14 -6s6 -8.66699 6 -14v-21c0 -5.33301 -2 -10 -6 -14s-8.66699 -6 -14 -6h-351c-5.33301 0 -10 2 -14 6s-6 8.66699 -6 14v21c0 5.33301 2 10 6 14
s8.66699 6 14 6h150c6.66699 0 10 3.33301 10 10v525z" />
    <glyph glyph-name="two" unicode="2" 
d="M399 517c0 16.667 -2.49902 33.0039 -7.49902 49.0039s-12.833 30.167 -23.5 42.5s-23.834 22.166 -39.501 29.499s-34.5 11 -56.5 11c-19.333 0 -36.833 -4 -52.5 -12s-29 -18.167 -40 -30.5s-19.5 -26.333 -25.5 -42s-9 -31.5 -9 -47.5v-15c0 -5.33301 -2 -10 -6 -14
s-8.66699 -6 -14 -6h-23c-5.33301 0 -10 2 -14 6s-6 8.66699 -6 14v15c0 26.667 4.83301 51.667 14.5 75s23 43.5 40 60.5s37.167 30.5 60.5 40.5s48.333 15 75 15s51.5 -4.5 74.5 -13.5s42.833 -21.833 59.5 -38.5s29.834 -36.834 39.501 -60.501
s14.5 -49.834 14.5 -78.501c0 -38.667 -7.5 -73.834 -22.5 -105.501s-35.5 -62.167 -61.5 -91.5l-219 -243c-2.66699 -3.33301 -3.33398 -6.83301 -2.00098 -10.5s4.66602 -5.5 9.99902 -5.5h291c5.33301 0 10 -2 14 -6s6 -8.66699 6 -14v-21c0 -5.33301 -2 -10 -6 -14
s-8.66699 -6 -14 -6h-362c-5.33301 0 -10 2 -14 6s-6 8.66699 -6 14v37c0 7.33301 1 12.833 3 16.5s4 6.5 6 8.5l241 271l30 35c9.33301 11.333 17.333 23.333 24 36s11.834 26.5 15.501 41.5s5.5 32.167 5.5 51.5z" />
    <glyph glyph-name="three" unicode="3" 
d="M418 198c0 18 -2.66797 35.166 -8.00098 51.499s-13.666 30.833 -24.999 43.5s-25.666 22.834 -42.999 30.501s-38.333 11.5 -63 11.5h-7c-5.33301 0 -10 2 -14 6s-6 8.66699 -6 14v22c0 5.33301 2 10 6 14s8.66699 6 14 6h7c19.333 0 36.666 3.16699 51.999 9.5
s28.333 15 39 26s18.834 23.667 24.501 38s8.5 29.833 8.5 46.5s-2.66699 32.667 -8 48s-13.166 28.833 -23.499 40.5s-23.5 21 -39.5 28s-34.333 10.5 -55 10.5c-21.333 0 -40.333 -3.83301 -57 -11.5s-30.5 -17.5 -41.5 -29.5s-19.333 -25.5 -25 -40.5
s-8.5 -30.167 -8.5 -45.5v-15c0 -5.33301 -2 -10 -6 -14s-8.66699 -6 -14 -6h-23c-5.33301 0 -10 2 -14 6s-6 8.66699 -6 14v15c0 26.667 5 51.667 15 75s23.667 43.5 41 60.5s38 30.5 62 40.5s49.667 15 77 15s52.5 -5 75.5 -15s43 -23.5 60 -40.5s30.333 -37.167 40 -60.5
s14.5 -48.333 14.5 -75c0 -28 -5 -53.667 -15 -77s-24.333 -43.333 -43 -60c-9.33301 -8 -9.66602 -16 -0.999023 -24c22 -19.333 39.833 -42.5 53.5 -69.5s20.5 -56.5 20.5 -88.5c0 -28.667 -5.16699 -55.5 -15.5 -80.5s-24.833 -46.833 -43.5 -65.5
s-40.5 -33.334 -65.5 -44.001s-51.833 -16 -80.5 -16c-29.333 0 -56.833 5.33301 -82.5 16s-48 25.334 -67 44.001s-33.833 40.5 -44.5 65.5s-16 51.833 -16 80.5v7c0 5.33301 2 10 6 14s8.66699 6 14 6h23c5.33301 0 10 -2 14 -6s6 -8.66699 6 -14v-7
c0 -19.333 3.66699 -37.666 11 -54.999s17.666 -32.5 30.999 -45.5s28.833 -23.167 46.5 -30.5s37.167 -11 58.5 -11c22 0 41.667 3.66699 59 11s32.166 17.5 44.499 30.5s21.666 28.167 27.999 45.5s9.5 35.666 9.5 54.999z" />
    <glyph glyph-name="four" unicode="4" 
d="M474 199c5.33301 0 10 -2.00098 14 -6.00098s6 -8.66699 6 -14v-19c0 -5.33301 -2 -10 -6 -14s-8.66699 -6 -14 -6h-56c-6.66699 0 -10 -3.33301 -10 -10v-110c0 -5.33301 -2 -10 -6 -14s-8.66699 -6 -14 -6h-19c-5.33301 0 -10 2 -14 6s-6 8.66699 -6 14v110
c0 6.66699 -3.33301 10 -10 10h-263c-5.33301 0 -10 2 -14 6s-6 8.66699 -6 14v13c0 10.667 1.83301 19.834 5.5 27.501l10.5 21.5l254 464c3.33301 5.33301 6.33301 9 9 11s6.66699 3 12 3h41c5.33301 0 10 -2 14 -6s6 -8.66699 6 -14v-471c0 -6.66699 3.33301 -10 10 -10
h56zM128 206.999c-3.33301 -5.33301 -2 -8 4 -8h207c6.66699 0 10 3.33301 10 10v390c0 3.33301 -1 5 -3 5s-3.66699 -1 -5 -3z" />
    <glyph glyph-name="five" unicode="5" 
d="M161 640c-6.66699 0 -10 -3.33105 -10 -9.99805v-185c0 -5.33301 1.83301 -9.33301 5.5 -12s9.16699 -1.33398 16.5 3.99902c10 8 23 14.833 39 20.5s35 8.5 57 8.5c31.333 0 59.666 -6.16699 84.999 -18.5s47 -29.166 65 -50.499s31.833 -46.166 41.5 -74.499
s14.5 -58.5 14.5 -90.5s-4.66699 -62.5 -14 -91.5s-23 -54.5 -41 -76.5s-39.667 -39.5 -65 -52.5s-54 -19.5 -86 -19.5c-26.667 0 -51.667 4.66699 -75 14s-43.833 22.166 -61.5 38.499s-31.667 35.666 -42 57.999s-15.5 46.5 -15.5 72.5c0 6.66699 2 11.667 6 15
s8.66699 5 14 5h21c8.66699 0 14.167 -2 16.5 -6s3.5 -8.66699 3.5 -14c0 -16 3.66699 -31.5 11 -46.5s17 -28.167 29 -39.5s26 -20.333 42 -27s33 -10 51 -10c22.667 0 43.167 5 61.5 15s33.833 23.333 46.5 40s22.334 35.834 29.001 57.501s10 44.167 10 67.5
c0 24 -3.5 46.5 -10.5 67.5s-16.833 39.333 -29.5 55s-28 28.167 -46 37.5s-38.333 14 -61 14c-16.667 0 -31 -2.83301 -43 -8.5s-22.333 -12.834 -31 -21.501s-15.834 -18.334 -21.501 -29.001s-10.5 -21 -14.5 -31c-3.33301 -7.33301 -9.66602 -11 -18.999 -11h-27
c-5.33301 0 -10 2 -14 6s-6 8.66699 -6 14v355c0 5.33301 2 10 6 14s8.66699 6 14 6h316c5.33301 0 10 -2 14 -6s6 -8.66699 6 -14v-20c0 -5.33301 -2 -10 -6 -14s-8.66699 -6 -14 -6h-268z" />
    <glyph glyph-name="six" unicode="6" 
d="M279 452c28 0 54.165 -5.33203 78.498 -15.999s45.5 -25.334 63.5 -44.001s32.5 -40.5 43.5 -65.5s17.5 -51.5 19.5 -79.5c1.33301 -16 1.33301 -33.333 0 -52c-1.33301 -28 -7.5 -54.333 -18.5 -79s-25.667 -46.167 -44 -64.5s-39.666 -32.833 -63.999 -43.5
s-50.5 -16 -78.5 -16c-29.333 0 -55.833 5.33301 -79.5 16s-44.334 25.5 -62.001 44.5s-32.167 41 -43.5 66s-18.666 52.167 -21.999 81.5c-2.66699 20 -4.5 43.167 -5.5 69.5s-1.5 53.166 -1.5 80.499s0.666992 54.166 2 80.499s3 49.5 5 69.5
c3.33301 28.667 10.166 55.667 20.499 81s24 47.333 41 66s37.167 33.5 60.5 44.5s49.666 16.5 78.999 16.5c26.667 0 51.667 -5 75 -15s43.666 -23.5 60.999 -40.5s31 -37.167 41 -60.5s15 -48.333 15 -75c0 -5.33301 -2 -10 -6 -14s-8.66699 -6 -14 -6h-22
c-5.33301 0 -10 2 -14 6s-6 8.66699 -6 14c0 16 -2.66699 31.667 -8 47s-13.5 29.333 -24.5 42s-24.667 22.834 -41 30.501s-35.166 11.5 -56.499 11.5c-19.333 0 -37 -4 -53 -12s-29.833 -18.667 -41.5 -32s-21.167 -29 -28.5 -47s-12 -37 -14 -57
c-2 -19.333 -3.16699 -34.833 -3.5 -46.5s-0.166016 -24.167 0.500977 -37.5c0 -4 1.66699 -7 5 -9s7 -1.33301 11 2c4.66699 4 10.834 8.33301 18.501 13s16.834 9.33398 27.501 14.001s23 8.5 37 11.5s29.667 4.5 47 4.5zM136.998 194.001
c2 -18.667 6.5 -36.335 13.5 -53.002s16.5 -31.5 28.5 -44.5s26.333 -23.333 43 -31s35.667 -11.5 57 -11.5s40.333 3.83301 57 11.5s31 18 43 31s21.5 27.833 28.5 44.5s11.5 34.334 13.5 53.001c2 19.333 2 37.333 0 54c-2 18 -6.5 35.5 -13.5 52.5
s-16.5 32.167 -28.5 45.5s-26.333 24 -43 32s-35.667 12 -57 12c-42.667 0 -76 -12.833 -100 -38.5s-38 -60.167 -42 -103.5c-0.666992 -8 -1.16699 -16.667 -1.5 -26s0.166992 -18.666 1.5 -27.999z" />
    <glyph glyph-name="seven" unicode="7" 
d="M409 630c2.66699 6.66699 0.332031 9.99902 -7.00098 9.99902h-307c-5.33301 0 -10 2 -14 6s-6 8.66699 -6 14v20c0 5.33301 2 10 6 14s8.66699 6 14 6h360c5.33301 0 10 -2 14 -6s6 -8.66699 6 -14v-37c0 -6 -1.66699 -12.667 -5 -20l-252 -608
c-4.66699 -10 -11 -15 -19 -15h-23c-9.33301 0 -15.166 2.83301 -17.499 8.5s-2.5 10.834 -0.5 15.501z" />
    <glyph glyph-name="eight" unicode="8" 
d="M275 55c44 0 79.333 13.333 106 40s40 61 40 103c0 41.333 -12.667 74.833 -38 100.5s-61.333 38.5 -108 38.5s-82.667 -12.833 -108 -38.5s-38 -59.167 -38 -100.5c0 -42 13.333 -76.333 40 -103s62 -40 106 -40zM275 394c40 0 71.667 11.5 95 34.5s35 52.5 35 88.5
c0 16.667 -3 32.667 -9 48s-14.667 29 -26 41s-25 21.5 -41 28.5s-34 10.5 -54 10.5s-38 -3.5 -54 -10.5s-29.667 -16.5 -41 -28.5s-20 -25.667 -26 -41s-9 -31.333 -9 -48c0 -36 11.667 -65.5 35 -88.5s55 -34.5 95 -34.5zM275 708c28 0 53.665 -5.16699 76.998 -15.5
s43.5 -24.333 60.5 -42s30.333 -38 40 -61s14.5 -47.167 14.5 -72.5c0 -27.333 -5.16699 -52.666 -15.5 -75.999s-24.166 -43.666 -41.499 -60.999c-3.33301 -3.33301 -5.5 -7.16602 -6.5 -11.499s0.833008 -8.5 5.5 -12.5c22.667 -19.333 40.667 -42.5 54 -69.5
s20 -56.5 20 -88.5c0 -28.667 -4.83301 -55.5 -14.5 -80.5s-23.5 -46.833 -41.5 -65.5s-39.833 -33.334 -65.5 -44.001s-54.5 -16 -86.5 -16s-60.833 5.33301 -86.5 16s-47.5 25.334 -65.5 44.001s-31.833 40.5 -41.5 65.5s-14.5 51.833 -14.5 80.5
c0 32 6.66699 61.5 20 88.5s31.333 50.167 54 69.5c4.66699 4 6.5 8.16699 5.5 12.5s-3.16699 8.16602 -6.5 11.499c-17.333 17.333 -31.166 37.666 -41.499 60.999s-15.5 48.666 -15.5 75.999c0 25.333 4.83301 49.5 14.5 72.5s23 43.333 40 61s37.167 31.667 60.5 42
s49 15.5 77 15.5z" />
    <glyph glyph-name="nine" unicode="9" 
d="M411 506c-2 15.333 -6.16992 31.166 -12.5029 47.499s-15.166 31.333 -26.499 45s-25.5 25 -42.5 34s-37.167 13.5 -60.5 13.5c-22.667 0 -42.334 -4 -59.001 -12s-30.667 -18.5 -42 -31.5s-20.333 -28 -27 -45s-11.334 -34.167 -14.001 -51.5
c-1.33301 -9.33301 -2 -18.666 -2 -27.999s0.666992 -18 2 -26c2.66699 -18 7.33398 -35.5 14.001 -52.5s15.667 -32.167 27 -45.5s25.333 -24 42 -32s36.334 -12 59.001 -12c44.667 0 78.334 13.333 101.001 40s36.334 60.667 41.001 102c2 16.667 2 34.667 0 54z
M272.997 52c41.333 0 74.0029 13.8301 98.0029 41.4971s39.667 63.167 47 106.5c0.666992 6 1.5 13 2.5 21s1.66699 16.333 2 25s0.5 16.834 0.5 24.501s-0.333008 14.5 -1 20.5c-0.666992 4.66699 -2.66699 7.66699 -6 9s-7.33301 0.333008 -12 -3l-19.5 -14.5
c-7.66699 -5.66699 -17 -11 -28 -16s-23.833 -9.33301 -38.5 -13s-31 -5.5 -49 -5.5c-28 0 -54.167 5.33301 -78.5 16s-45.5 25.334 -63.5 44.001s-32.5 40.5 -43.5 65.5s-17.5 51.5 -19.5 79.5c-1.33301 16 -1.33301 33.333 0 52c1.33301 28 7.5 54.333 18.5 79
s25.667 46.167 44 64.5s39.666 32.833 63.999 43.5s50.5 16 78.5 16c28.667 0 55 -5.33301 79 -16s45 -25.5 63 -44.5s32.667 -41.167 44 -66.5s18.666 -52.333 21.999 -81c2.66699 -20 4.66699 -42.667 6 -68s2 -51.166 2 -77.499s-0.666992 -52.5 -2 -78.5
s-3.33301 -49.667 -6 -71c-9.33301 -68 -31 -120.5 -65 -157.5s-80.333 -55.5 -139 -55.5c-26.667 0 -52.334 5 -77.001 15s-46.334 23.5 -65.001 40.5s-33.5 37.167 -44.5 60.5s-16.5 48.333 -16.5 75c0 5.33301 2 10 6 14s8.66699 6 14 6h22c5.33301 0 10 -2 14 -6
s6 -8.66699 6 -14c0 -17.333 3.83301 -33.833 11.5 -49.5s17.834 -29.5 30.501 -41.5s27.5 -21.667 44.5 -29s35.167 -11 54.5 -11z" />
    <glyph glyph-name="colon" unicode=":" 
d="M330 20c0 -5.33301 -2 -10 -6 -14s-8.66699 -6 -14 -6h-70c-5.33301 0 -10 2 -14 6s-6 8.66699 -6 14v70c0 5.33301 2 10 6 14s8.66699 6 14 6h70c5.33301 0 10 -2 14 -6s6 -8.66699 6 -14v-70zM330 400c0 -5.33301 -2 -10 -6 -14s-8.66699 -6 -14 -6h-70
c-5.33301 0 -10 2 -14 6s-6 8.66699 -6 14v70c0 5.33301 2 10 6 14s8.66699 6 14 6h70c5.33301 0 10 -2 14 -6s6 -8.66699 6 -14v-70z" />
    <glyph glyph-name="semicolon" unicode=";" 
d="M331 400c0 -5.33301 -2 -10 -6 -14s-8.66699 -6 -14 -6h-70c-5.33301 0 -10 2 -14 6s-6 8.66699 -6 14v70c0 5.33301 2 10 6 14s8.66699 6 14 6h70c5.33301 0 10 -2 14 -6s6 -8.66699 6 -14v-70zM241 0c-5.33301 0 -9.99902 2.00098 -13.999 6.00098s-6 8.66699 -6 14v70
c0 5.33301 2 10 6 14s8.66699 6 14 6h70c5.33301 0 10 -2 14 -6s6 -8.66699 6 -14v-75c0 -14 -1.66699 -24.5 -5 -31.5s-7 -13.5 -11 -19.5l-40 -56l-9.5 -11.5c-3.66699 -4.33301 -10.167 -6.5 -19.5 -6.5h-10c-6 0 -10.833 2.5 -14.5 7.5s-3.83398 10.5 -0.500977 16.5
l38 71c2 3.33301 2.16699 6.66602 0.5 9.99902s-4.5 5 -8.5 5h-10z" />
    <glyph glyph-name="less" unicode="&#x3c;" 
d="M460 68c10 -6 15 -12.9971 15 -20.9971v-28c0 -8 -2.66699 -14 -8 -18s-10.333 -4.33301 -15 -1l-362 219c-10 5.33301 -15 12.666 -15 21.999v19c0 9.33301 5 16.666 15 21.999l362 218c4.66699 3.33301 9.66699 3 15 -1s8 -10 8 -18v-28c0 -8 -5 -15 -15 -21l-301 -178
c-5.33301 -2.66699 -5.33301 -5.33398 0 -8.00098z" />
    <glyph glyph-name="equal" unicode="=" 
d="M75 307c-5.33301 0 -10 2 -14 6s-6 8.66699 -6 14v25c0 5.33301 2 10 6 14s8.66699 6 14 6h400c5.33301 0 10 -2 14 -6s6 -8.66699 6 -14v-25c0 -5.33301 -2 -10 -6 -14s-8.66699 -6 -14 -6h-400zM75 129c-5.33301 0 -10 2 -14 6s-6 8.66699 -6 14v25
c0 5.33301 2 10 6 14s8.66699 6 14 6h400c5.33301 0 10 -2 14 -6s6 -8.66699 6 -14v-25c0 -5.33301 -2 -10 -6 -14s-8.66699 -6 -14 -6h-400z" />
    <glyph glyph-name="greater" unicode="&#x3e;" 
d="M391 246c5.33301 2.66699 5.33301 5.33105 0 7.99805l-301 178c-10 6 -15 13 -15 21v28c0 8 2.66699 14 8 18s10.333 4.33301 15 1l362 -218c10 -5.33301 15 -12.666 15 -21.999v-19c0 -9.33301 -5 -16.666 -15 -21.999l-362 -219c-4.66699 -3.33301 -9.66699 -3 -15 1
s-8 10 -8 18v28c0 8 5 15 15 21z" />
    <glyph glyph-name="question" unicode="?" 
d="M394 537c0 34 -10.8311 61.335 -32.498 82.002s-51.5 31 -89.5 31c-16.667 0 -32.334 -3.5 -47.001 -10.5s-27.334 -16.5 -38.001 -28.5s-19 -26 -25 -42s-9 -33.333 -9 -52v-7c0 -5.33301 -2 -10 -6 -14s-8.66699 -6 -14 -6h-20c-5.33301 0 -10 2 -14 6
s-6 8.66699 -6 14v7c0 26.667 4.5 51.667 13.5 75s21.5 43.833 37.5 61.5s35 31.5 57 41.5s45.667 15 71 15c26.667 0 51.167 -4.16699 73.5 -12.5s41.666 -20 57.999 -35s29 -33.167 38 -54.5s13.5 -45 13.5 -71c0 -18 -2.5 -34.167 -7.5 -48.5s-11.333 -27.333 -19 -39
s-16.167 -22.334 -25.5 -32.001l-27 -28.5c-4.66699 -4.66699 -11.667 -11.167 -21 -19.5s-18.666 -17.333 -27.999 -27s-17.5 -19.834 -24.5 -30.501s-10.5 -21 -10.5 -31v-71c0 -5.33301 -2 -10 -6 -14s-8.66699 -6 -14 -6h-20c-5.33301 0 -10 2 -14 6s-6 8.66699 -6 14
v71c0 26.667 6 47 18 61c17.333 20 32.5 35.5 45.5 46.5s24.5 21.5 34.5 31.5l18 17.5c7.33301 7 14.5 15.333 21.5 25s12.833 20.5 17.5 32.5s7 26 7 42zM311.002 16.002c0 -10.667 -5.33301 -16 -16 -16h-62c-10.667 0 -16 5.33301 -16 16v63c0 4 1.5 7.66699 4.5 11
s6.83301 5 11.5 5h62c4.66699 0 8.5 -1.66699 11.5 -5s4.5 -7 4.5 -11v-63z" />
    <glyph glyph-name="at" unicode="@" 
d="M279 21c19.333 0 37.8291 2.16699 55.4961 6.5s34.5 10.166 50.5 17.499c6.66699 3.33301 12.334 3.33301 17.001 0s7 -8.33301 7 -15v-13c0 -8 -2.5 -13.833 -7.5 -17.5s-10.5 -7.16699 -16.5 -10.5c-10.667 -6 -26.167 -11.167 -46.5 -15.5s-40.166 -6.5 -59.499 -6.5
c-32 0 -62.5 4.5 -91.5 13.5s-54.5 22.833 -76.5 41.5s-39.667 42.667 -53 72s-20 64 -20 104v144c0 35.333 6.16699 67.5 18.5 96.5s29.166 54 50.499 75s46.833 37.333 76.5 49s61.5 17.5 95.5 17.5c36 0 68.667 -5.33301 98 -16s54.333 -25.834 75 -45.501
s36.667 -43.667 48 -72s17 -59.833 17 -94.5v-150c0 -12.667 -2.5 -24.667 -7.5 -36s-11.667 -21.166 -20 -29.499s-18.166 -14.833 -29.499 -19.5s-23.333 -7 -36 -7c-5.33301 0 -11.666 0.333008 -18.999 1s-14.666 3.66699 -21.999 9
c-7.33301 4.66699 -13.666 7.16699 -18.999 7.5s-12 -2.16699 -20 -7.5c-18 -10 -39.667 -15 -65 -15c-90 0 -135 56 -135 168c0 22 2 43 6 63s11.167 37.833 21.5 53.5s24.166 28.167 41.499 37.5s39.333 14 66 14c38.667 0 69.834 -11.5 93.501 -34.5
s35.5 -52.5 35.5 -88.5v-135c0 -6.66699 2.66699 -12 8 -16s11.333 -6 18 -6c9.33301 0 16.333 3.66699 21 11s7 16.666 7 27.999v152c0 24 -4 46.5 -12 67.5s-19.667 39.333 -35 55s-34.5 28 -57.5 37s-49.833 13.5 -80.5 13.5c-30 0 -56.333 -5 -79 -15
s-41.834 -23.333 -57.501 -40s-27.334 -36.167 -35.001 -58.5s-11.5 -45.5 -11.5 -69.5v-144c0 -32 5.33301 -59.167 16 -81.5s24.834 -40.666 42.501 -54.999s37.5 -24.666 59.5 -30.999s44.333 -9.5 67 -9.5zM353.996 318c0 8 -1.33203 16.002 -3.99902 24.002
s-6.83398 15.167 -12.501 21.5s-13.334 11.666 -23.001 15.999s-21.5 6.5 -35.5 6.5c-29.333 0 -49.5 -10 -60.5 -30s-16.5 -47 -16.5 -81c0 -13.333 0.5 -26.833 1.5 -40.5s3.83301 -26 8.5 -37s12.167 -20 22.5 -27s25.166 -10.5 44.499 -10.5
c14 0 25.833 2.16699 35.5 6.5s17.334 9.66602 23.001 15.999s9.83398 13.5 12.501 21.5s4 15.667 4 23v91z" />
    <glyph glyph-name="A" unicode="A" 
d="M104 15c-2 -10 -8.33496 -15 -19.002 -15h-25c-8 0 -13.667 2.16699 -17 6.5s-4.33301 8.83301 -3 13.5l191 665c2 10 8.33301 15 19 15h50c10.667 0 17 -5 19 -15l191 -665c1.33301 -4.66699 0.333008 -9.16699 -3 -13.5s-9 -6.5 -17 -6.5h-25c-10.667 0 -17 5 -19 15
l-49 169c-3.33301 9.33301 -9.66602 14 -18.999 14h-206c-9.33301 0 -15.666 -4.66699 -18.999 -14zM178.998 271c-2 -7.33301 0.666016 -11 7.99902 -11h176c7.33301 0 10 3.66699 8 11l-91 340c-1.33301 4 -2.66602 6 -3.99902 6h-2c-2 0 -3.33301 -2 -4 -6z" />
    <glyph glyph-name="B" unicode="B" 
d="M416 379c-9.33301 -8 -9.33301 -15.335 0 -22.002c20.667 -16.667 37.667 -39.167 51 -67.5s20 -56.833 20 -85.5c0 -29.333 -5.5 -56.333 -16.5 -81s-26 -46.167 -45 -64.5s-41.333 -32.666 -67 -42.999s-52.834 -15.5 -81.501 -15.5h-175c-5.33301 0 -10 2 -14 6
s-6 8.66699 -6 14v660c0 5.33301 2 10 6 14s8.66699 6 14 6h175c26.667 0 52 -4.66699 76 -14s44.833 -22.166 62.5 -38.499s31.667 -36 42 -59s15.5 -47.833 15.5 -74.5c0 -23.333 -4.66699 -47.5 -14 -72.5s-23.666 -45.833 -42.999 -62.5zM154 635.998
c-6.66699 0 -10 -3.33301 -10 -10v-219c0 -6.66699 3.33301 -10 10 -10h138c16.667 0 32.167 3.16699 46.5 9.5s26.833 14.833 37.5 25.5s19 23.167 25 37.5s9 29.833 9 46.5s-3 32.167 -9 46.5s-14.333 27 -25 38s-23.167 19.667 -37.5 26s-29.833 9.5 -46.5 9.5h-138z
M288 63.998c18.667 0 36.334 3.49902 53.001 10.499s31.334 16.833 44.001 29.5s22.5 27.167 29.5 43.5s10.5 34.166 10.5 53.499c0 18.667 -3.5 36.334 -10.5 53.001s-16.833 31.334 -29.5 44.001s-27.334 22.5 -44.001 29.5s-34.334 10.5 -53.001 10.5h-134
c-6.66699 0 -10 -3.33301 -10 -10v-254c0 -6.66699 3.33301 -10 10 -10h134z" />
    <glyph glyph-name="C" unicode="C" 
d="M435 204c0 5.33301 2.00098 10.0039 6.00098 14.0039s8.66699 6 14 6h27c5.33301 0 10 -2 14 -6s6 -8.66699 6 -14v-4c0 -32.667 -6 -61.834 -18 -87.501s-28.167 -47.5 -48.5 -65.5s-44 -31.667 -71 -41s-55.5 -14 -85.5 -14c-60.667 0 -110.834 18.5 -150.501 55.5
s-63.834 87.833 -72.501 152.5c-2.66699 20 -4.66699 43.167 -6 69.5s-2 53.333 -2 81s0.666992 54.5 2 80.5s3.33301 49 6 69c4 27.333 11.667 53.5 23 78.5s26.333 47.167 45 66.5s40.834 34.666 66.501 45.999s55.167 17 88.5 17c32.667 0 62.834 -5.66699 90.501 -17
s51.167 -26.5 70.5 -45.5s34.5 -41.167 45.5 -66.5s16.5 -51.666 16.5 -78.999v-4c0 -5.33301 -2 -10 -6 -14s-8.66699 -6 -14 -6h-27c-5.33301 0 -10 2 -14 6s-6 8.66699 -6 14v4c0 18.667 -3.66699 36.667 -11 54s-17.833 32.666 -31.5 45.999s-30 24 -49 32
s-40.5 12 -64.5 12s-45 -4 -63 -12s-33.5 -18.833 -46.5 -32.5s-23.333 -29.167 -31 -46.5s-12.834 -35 -15.501 -53c-3.33301 -20.667 -5.66602 -44 -6.99902 -70s-2 -52.667 -2 -80s0.666992 -54 2 -80s3.66602 -49.333 6.99902 -70
c2 -14.667 6.16699 -30.334 12.5 -47.001s15.666 -32.167 27.999 -46.5s27.833 -26.333 46.5 -36s41.667 -14.5 69 -14.5c26.667 0 49.834 4.66699 69.501 14s36 21.166 49 35.499s22.5 30 28.5 47s9 32.833 9 47.5v4z" />
    <glyph glyph-name="D" unicode="D" 
d="M89 0c-5.33301 0 -9.99805 1.99902 -13.998 5.99902s-6 8.66699 -6 14v660c0 5.33301 2 10 6 14s8.66699 6 14 6h180c32.667 0 62 -5.33301 88 -16s48.333 -25 67 -43s33.667 -39.167 45 -63.5s19 -50.166 23 -77.499c2.66699 -20 4.66699 -43 6 -69s2 -52.833 2 -80.5
s-0.666992 -54.667 -2 -81s-3.33301 -49.5 -6 -69.5c-8.66699 -64.667 -32.834 -114.167 -72.501 -148.5s-89.834 -51.5 -150.501 -51.5h-180zM269.002 63.999c26.667 0 49.502 4.33398 68.502 13.001s34.667 19.667 47 33s21.666 28 27.999 44s10.5 31.333 12.5 46
c2.66699 20.667 4.83398 44 6.50098 70s2.5 52.667 2.5 80s-0.833008 54 -2.5 80s-3.83398 49.333 -6.50098 70c-2.66699 18 -7.83398 35.333 -15.501 52s-18 31.167 -31 43.5s-28.5 22.166 -46.5 29.499s-39 11 -63 11h-126c-6.66699 0 -10 -3.33301 -10 -10v-552
c0 -6.66699 3.33301 -10 10 -10h126z" />
    <glyph glyph-name="E" unicode="E" 
d="M161 399c0 -6.66699 3.33301 -10 10 -10h268c5.33301 0 10 -2 14 -6s6 -8.66699 6 -14v-23c0 -5.33301 -2 -10 -6 -14s-8.66699 -6 -14 -6h-268c-6.66699 0 -10 -3.33301 -10 -10v-242c0 -6.66699 3.33301 -10 10 -10h281c5.33301 0 10 -2 14 -6s6 -8.66699 6 -14v-24
c0 -5.33301 -2 -10 -6 -14s-8.66699 -6 -14 -6h-335c-5.33301 0 -10 2 -14 6s-6 8.66699 -6 14v660c0 5.33301 2 10 6 14s8.66699 6 14 6h333c5.33301 0 10 -2 14 -6s6 -8.66699 6 -14v-24c0 -5.33301 -2 -10 -6 -14s-8.66699 -6 -14 -6h-279
c-6.66699 0 -10 -3.33301 -10 -10v-227z" />
    <glyph glyph-name="F" unicode="F" 
d="M161 20c0 -5.33301 -2 -10 -6 -14s-8.66699 -6 -14 -6h-24c-5.33301 0 -10 2 -14 6s-6 8.66699 -6 14v660c0 5.33301 2 10 6 14s8.66699 6 14 6h333c5.33301 0 10 -2 14 -6s6 -8.66699 6 -14v-24c0 -5.33301 -2 -10 -6 -14s-8.66699 -6 -14 -6h-279
c-6.66699 0 -10 -3.33301 -10 -10v-226c0 -6.66699 3.33301 -10 10 -10h268c5.33301 0 10 -2 14 -6s6 -8.66699 6 -14v-24c0 -5.33301 -2 -10 -6 -14s-8.66699 -6 -14 -6h-268c-6.66699 0 -10 -3.33301 -10 -10v-296z" />
    <glyph glyph-name="G" unicode="G" 
d="M438 308c0 6.66699 -3.33008 10.002 -9.99707 10.002h-122c-5.33301 0 -10 2 -14 6s-6 8.66699 -6 14v24c0 5.33301 2 10 6 14s8.66699 6 14 6h176c5.33301 0 10 -2 14 -6s6 -8.66699 6 -14v-162c0 -32.667 -6 -61.834 -18 -87.501s-28.167 -47.5 -48.5 -65.5
s-44 -31.667 -71 -41s-55.5 -14 -85.5 -14c-60.667 0 -110.834 18.5 -150.501 55.5s-63.834 87.833 -72.501 152.5c-2.66699 20 -4.66699 43.167 -6 69.5s-2 53.333 -2 81s0.666992 54.5 2 80.5s3.33301 49 6 69c4 27.333 11.667 53.5 23 78.5s26.333 47.167 45 66.5
s40.834 34.666 66.501 45.999s55.167 17 88.5 17c32.667 0 62.834 -5.5 90.501 -16.5s51.167 -25.833 70.5 -44.5s34.5 -40.667 45.5 -66s16.5 -52.333 16.5 -81v-4c0 -5.33301 -2 -10 -6 -14s-8.66699 -6 -14 -6h-27c-5.33301 0 -10 2 -14 6s-6 8.66699 -6 14v4
c0 20.667 -3.66699 39.834 -11 57.501s-17.833 32.834 -31.5 45.501s-30 22.667 -49 30s-40.5 11 -64.5 11s-45 -4 -63 -12s-33.5 -18.833 -46.5 -32.5s-23.333 -29.167 -31 -46.5s-12.834 -35 -15.501 -53c-3.33301 -20.667 -5.66602 -44 -6.99902 -70s-2 -52.667 -2 -80
s0.666992 -54 2 -80s3.66602 -49.333 6.99902 -70c2 -14.667 6.16699 -30.334 12.5 -47.001s15.666 -32.167 27.999 -46.5s27.833 -26.333 46.5 -36s41.667 -14.5 69 -14.5c26.667 0 50 4.66699 70 14s36.667 21.166 50 35.499s23.166 30 29.499 47s9.5 32.833 9.5 47.5v108
z" />
    <glyph glyph-name="H" unicode="H" 
d="M134 400c0 -6.66699 3.33301 -10 10 -10h262c6.66699 0 10 3.33301 10 10v280c0 5.33301 2 10 6 14s8.66699 6 14 6h24c5.33301 0 10 -2 14 -6s6 -8.66699 6 -14v-660c0 -5.33301 -2 -10 -6 -14s-8.66699 -6 -14 -6h-24c-5.33301 0 -10 2 -14 6s-6 8.66699 -6 14v296
c0 6.66699 -3.33301 10 -10 10h-262c-6.66699 0 -10 -3.33301 -10 -10v-296c0 -5.33301 -2 -10 -6 -14s-8.66699 -6 -14 -6h-24c-5.33301 0 -10 2 -14 6s-6 8.66699 -6 14v660c0 5.33301 2 10 6 14s8.66699 6 14 6h24c5.33301 0 10 -2 14 -6s6 -8.66699 6 -14v-280z" />
    <glyph glyph-name="I" unicode="I" 
d="M242 630c0 6.66699 -3.33301 10 -10 10h-125c-5.33301 0 -10 2 -14 6s-6 8.66699 -6 14v20c0 5.33301 2 10 6 14s8.66699 6 14 6h335c5.33301 0 10 -2 14 -6s6 -8.66699 6 -14v-20c0 -5.33301 -2 -10 -6 -14s-8.66699 -6 -14 -6h-125c-6.66699 0 -10 -3.33301 -10 -10
v-559c0 -6.66699 3.33301 -10 10 -10h135c5.33301 0 10 -2 14 -6s6 -8.66699 6 -14v-21c0 -5.33301 -2 -10 -6 -14s-8.66699 -6 -14 -6h-355c-5.33301 0 -10 2 -14 6s-6 8.66699 -6 14v21c0 5.33301 2 10 6 14s8.66699 6 14 6h135c6.66699 0 10 3.33301 10 10v559z" />
    <glyph glyph-name="J" unicode="J" 
d="M120 192c0 -18 3.33008 -35.166 9.99707 -51.499s15.834 -30.833 27.501 -43.5s25.834 -22.667 42.501 -30s35 -11 55 -11c40 0 72.667 11.5 98 34.5s38 60.167 38 111.5v478c0 5.33301 2 10 6 14s8.66699 6 14 6h24c5.33301 0 10 -2 14 -6s6 -8.66699 6 -14v-488
c0 -30.667 -5.16699 -58.334 -15.5 -83.001s-24.5 -45.667 -42.5 -63s-39.167 -30.666 -63.5 -39.999s-50.5 -14 -78.5 -14c-27.333 0 -53.166 5.33301 -77.499 16s-45.5 25 -63.5 43s-32.333 39.167 -43 63.5s-16 50.166 -16 77.499v8c0 5.33301 2 10 6 14s8.66699 6 14 6
h25c5.33301 0 10 -2 14 -6s6 -8.66699 6 -14v-8z" />
    <glyph glyph-name="K" unicode="K" 
d="M425 689c1.33301 2 4.16797 4.33301 8.50098 7s10.166 4 17.499 4h16c12 0 19.333 -4.16699 22 -12.5s1 -16.166 -5 -23.499l-267 -291c-3.33301 -4 -5.33301 -7.83301 -6 -11.5s1 -7.83398 5 -12.501l284 -312c5.33301 -6.66699 7 -14.5 5 -23.5
s-9.66699 -13.5 -23 -13.5h-22c-7.33301 0 -13 1.66699 -17 5s-7 6 -9 8l-259 286c-1.33301 1.33301 -3 2 -5 2s-3 -1.33301 -3 -4v-277c0 -5.33301 -2 -10 -6 -14s-8.66699 -6 -14 -6h-24c-5.33301 0 -10 2 -14 6s-6 8.66699 -6 14v660c0 5.33301 2 10 6 14s8.66699 6 14 6
h24c5.33301 0 10 -2 14 -6s6 -8.66699 6 -14v-264c0 -2.66699 1 -4 3 -4s3.66699 0.666992 5 2z" />
    <glyph glyph-name="L" unicode="L" 
d="M184 74c0 -6.66699 3.33301 -10 10 -10h265c5.33301 0 10 -2 14 -6s6 -8.66699 6 -14v-24c0 -5.33301 -2 -10 -6 -14s-8.66699 -6 -14 -6h-319c-5.33301 0 -10 2 -14 6s-6 8.66699 -6 14v660c0 5.33301 2 10 6 14s8.66699 6 14 6h24c5.33301 0 10 -2 14 -6
s6 -8.66699 6 -14v-606z" />
    <glyph glyph-name="M" unicode="M" 
d="M270 363c0.666992 -2 2.16797 -3.16797 4.50098 -3.50098s4.16602 0.833984 5.49902 3.50098l102 320c4 11.333 11 17 21 17h60c5.33301 0 10 -2 14 -6s6 -8.66699 6 -14v-660c0 -5.33301 -2 -10 -6 -14s-8.66699 -6 -14 -6h-20c-5.33301 0 -10 2 -14 6s-6 8.66699 -6 14
v573c0 3.33301 -1.33301 5.33301 -4 6s-4.66699 -0.666016 -6 -3.99902l-103 -328c-4 -11.333 -11 -17 -21 -17h-28c-10 0 -17 5.66699 -21 17l-103 328c-1.33301 3.33301 -3.33301 4.66602 -6 3.99902s-4 -2.66699 -4 -6v-573c0 -5.33301 -2 -10 -6 -14s-8.66699 -6 -14 -6
h-20c-5.33301 0 -10 2 -14 6s-6 8.66699 -6 14v660c0 5.33301 2 10 6 14s8.66699 6 14 6h60c10 0 17 -5.66699 21 -17z" />
    <glyph glyph-name="N" unicode="N" 
d="M475 20c0 -5.33301 -2 -10 -6 -14s-8.66699 -6 -14 -6h-52c-5.33301 0 -9.33301 1 -12 3s-5.66699 6.66699 -9 14l-239 574c-1.33301 2 -3 2.83301 -5 2.5s-3 -1.83301 -3 -4.5v-569c0 -5.33301 -2 -10 -6 -14s-8.66699 -6 -14 -6h-20c-5.33301 0 -10 2 -14 6
s-6 8.66699 -6 14v660c0 5.33301 2 10 6 14s8.66699 6 14 6h52c5.33301 0 9.33301 -1 12 -3s5.66699 -6.66699 9 -14l239 -569c1.33301 -2 3 -2.83301 5 -2.5s3 1.83301 3 4.5v564c0 5.33301 2 10 6 14s8.66699 6 14 6h20c5.33301 0 10 -2 14 -6s6 -8.66699 6 -14v-660z" />
    <glyph glyph-name="O" unicode="O" 
d="M275 644c-24 0 -44.9961 -4 -62.9961 -12s-33.5 -18.833 -46.5 -32.5s-23.333 -29.167 -31 -46.5s-12.834 -35 -15.501 -53c-3.33301 -20.667 -5.66602 -44 -6.99902 -70s-2 -52.667 -2 -80s0.666992 -54 2 -80s3.66602 -49.333 6.99902 -70
c2 -14.667 6.16699 -30.334 12.5 -47.001s15.666 -32.167 27.999 -46.5s27.833 -26.333 46.5 -36s41.667 -14.5 69 -14.5c26.667 0 49.5 4.83301 68.5 14.5s34.667 21.667 47 36s21.666 29.833 27.999 46.5s10.5 32.334 12.5 47.001c2.66699 20.667 4.83398 44 6.50098 70
s2.5 52.667 2.5 80s-0.833008 54 -2.5 80s-3.83398 49.333 -6.50098 70c-2.66699 18 -7.83398 35.667 -15.501 53s-18 32.833 -31 46.5s-28.5 24.5 -46.5 32.5s-39 12 -63 12zM275.004 708c32.667 0 62.0029 -5.66699 88.0029 -17s48.333 -26.666 67 -45.999
s33.667 -41.5 45 -66.5s19 -51.167 23 -78.5c2.66699 -20 4.66699 -43 6 -69s2 -52.833 2 -80.5s-0.666992 -54.667 -2 -81s-3.33301 -49.5 -6 -69.5c-8.66699 -64.667 -32.834 -115.5 -72.501 -152.5s-89.834 -55.5 -150.501 -55.5s-110.834 18.5 -150.501 55.5
s-63.834 87.833 -72.501 152.5c-2.66699 20 -4.66699 43.167 -6 69.5s-2 53.333 -2 81s0.666992 54.5 2 80.5s3.33301 49 6 69c4 27.333 11.667 53.5 23 78.5s26.333 47.167 45 66.5s40.834 34.666 66.501 45.999s55.167 17 88.5 17z" />
    <glyph glyph-name="P" unicode="P" 
d="M149 20c0 -5.33301 -2 -10 -6 -14s-8.66699 -6 -14 -6h-24c-5.33301 0 -10 2 -14 6s-6 8.66699 -6 14v660c0 5.33301 2 10 6 14s8.66699 6 14 6h170c28.667 0 55.834 -5.5 81.501 -16.5s48 -26 67 -45s34 -41.333 45 -67s16.5 -52.834 16.5 -81.501
c0 -29.333 -5.5 -56.666 -16.5 -81.999s-26 -47.5 -45 -66.5s-41.333 -34 -67 -45s-52.834 -16.5 -81.501 -16.5h-116c-6.66699 0 -10 -3.33301 -10 -10v-250zM159 636c-6.66699 0 -10 -3.33301 -10 -10v-272c0 -6.66699 3.33301 -10 10 -10h116
c20 0 38.833 3.83301 56.5 11.5s33.167 18.167 46.5 31.5s23.833 28.833 31.5 46.5s11.5 36.5 11.5 56.5s-3.83301 38.833 -11.5 56.5s-18.167 33.167 -31.5 46.5s-28.833 23.833 -46.5 31.5s-36.5 11.5 -56.5 11.5h-116z" />
    <glyph glyph-name="Q" unicode="Q" 
d="M275 644c-24 0 -44.9961 -4 -62.9961 -12s-33.5 -18.833 -46.5 -32.5s-23.333 -29.167 -31 -46.5s-12.834 -35 -15.501 -53c-3.33301 -20.667 -5.66602 -44 -6.99902 -70s-2 -52.667 -2 -80s0.666992 -54 2 -80s3.66602 -49.333 6.99902 -70
c2 -14.667 6.16699 -30.334 12.5 -47.001s15.666 -32.167 27.999 -46.5s27.833 -26.333 46.5 -36s41.667 -14.5 69 -14.5c26.667 0 49.5 4.83301 68.5 14.5s34.667 21.667 47 36s21.666 29.833 27.999 46.5s10.5 32.334 12.5 47.001c2.66699 20.667 4.83398 44 6.50098 70
s2.5 52.667 2.5 80s-0.833008 54 -2.5 80s-3.83398 49.333 -6.50098 70c-2.66699 18 -7.83398 35.667 -15.501 53s-18 32.833 -31 46.5s-28.5 24.5 -46.5 32.5s-39 12 -63 12zM425.004 48c-2 -2 -3.32812 -4 -3.99512 -6s-0.333984 -4.66699 0.999023 -8l51 -96
c3.33301 -7.33301 3.16602 -13.833 -0.500977 -19.5s-8.83398 -8.5 -15.501 -8.5h-28c-8 0 -14.667 5 -20 15l-42 75c-2.66699 4 -6.5 5.66699 -11.5 5s-9.16699 -1.66699 -12.5 -3c-20.667 -6.66699 -43.334 -10 -68.001 -10c-60.667 0 -110.834 18.5 -150.501 55.5
s-63.834 87.833 -72.501 152.5c-2.66699 20 -4.66699 43.167 -6 69.5s-2 53.333 -2 81s0.666992 54.5 2 80.5s3.33301 49 6 69c4 27.333 11.667 53.5 23 78.5s26.333 47.167 45 66.5s40.834 34.666 66.501 45.999s55.167 17 88.5 17c32.667 0 62 -5.66699 88 -17
s48.333 -26.666 67 -45.999s33.667 -41.5 45 -66.5s19 -51.167 23 -78.5c2.66699 -20 4.66699 -43 6 -69s2 -52.833 2 -80.5s-0.666992 -54.667 -2 -81s-3.33301 -49.5 -6 -69.5c-4 -32 -12.333 -60.833 -25 -86.5s-28.667 -47.5 -48 -65.5z" />
    <glyph glyph-name="R" unicode="R" 
d="M157 636c-6.66699 0 -10 -3.33301 -10 -10v-272c0 -6.66699 3.33301 -10 10 -10h116c20 0 38.833 3.83301 56.5 11.5s33.167 18.167 46.5 31.5s23.833 28.833 31.5 46.5s11.5 36.5 11.5 56.5s-3.83301 38.833 -11.5 56.5s-18.167 33.167 -31.5 46.5
s-28.833 23.833 -46.5 31.5s-36.5 11.5 -56.5 11.5h-116zM157 280c-6.66699 0 -10 -3.33203 -10 -9.99902v-250c0 -5.33301 -2 -10 -6 -14s-8.66699 -6 -14 -6h-24c-5.33301 0 -10 2 -14 6s-6 8.66699 -6 14v660c0 5.33301 2 10 6 14s8.66699 6 14 6h170
c28.667 0 55.834 -5.5 81.501 -16.5s48 -26 67 -45s34 -41.333 45 -67s16.5 -52.834 16.5 -81.501c0 -45.333 -10.833 -82.666 -32.5 -111.999s-50.5 -55.333 -86.5 -78c-12 -8 -14.333 -18.667 -7 -32l126 -238c4 -7.33301 4.33301 -14.166 1 -20.499s-10 -9.5 -20 -9.5
h-22c-7.33301 0 -13.333 2 -18 6s-8.66699 8.83301 -12 14.5s-6.33301 11.667 -9 18s-5.33398 12.166 -8.00098 17.499l-110 212c-1.33301 3.33301 -3.5 6.16602 -6.5 8.49902s-7.16699 3.5 -12.5 3.5h-109z" />
    <glyph glyph-name="S" unicode="S" 
d="M425 200c0 22.667 -3.83398 41.8311 -11.501 57.498s-19.167 29.167 -34.5 40.5s-34 20.833 -56 28.5s-47.333 14.834 -76 21.501c-18 4 -37 9.83301 -57 17.5s-38.167 18 -54.5 31s-29.833 29.5 -40.5 49.5s-16 44.667 -16 74c0 30 5.33301 56.667 16 80s25 43 43 59
s38.833 28.167 62.5 36.5s48.5 12.5 74.5 12.5c29.333 0 56 -5 80 -15s44.5 -23.5 61.5 -40.5s30.167 -36.833 39.5 -59.5s14 -47 14 -73v-13c0 -5.33301 -2 -10 -6 -14s-8.66699 -6 -14 -6h-24c-5.33301 0 -10 2 -14 6s-6 8.66699 -6 14v13c0 18 -3.33301 34.5 -10 49.5
s-15.834 28 -27.501 39s-25.5 19.667 -41.5 26s-33.333 9.5 -52 9.5c-22 0 -41.333 -3.5 -58 -10.5s-30.334 -16.333 -41.001 -28s-18.667 -25 -24 -40s-8 -30.167 -8 -45.5c0 -22.667 5.33301 -40.667 16 -54s24 -24 40 -32s33.5 -14.333 52.5 -19
s37.167 -9.66699 54.5 -15c26.667 -8 51.334 -17.167 74.001 -27.5s42 -23.166 58 -38.499s28.5 -33.833 37.5 -55.5s13.5 -47.834 13.5 -78.501c0 -32.667 -5.83301 -61.834 -17.5 -87.501s-27.5 -47.5 -47.5 -65.5s-43 -31.667 -69 -41s-53 -14 -81 -14
c-32 0 -61.333 5.5 -88 16.5s-49.334 26 -68.001 45s-33.167 41 -43.5 66s-15.5 51.833 -15.5 80.5v16c0 5.33301 2 10 6 14s8.66699 6 14 6h25c5.33301 0 10 -2 14 -6s6 -8.66699 6 -14v-16c0 -17.333 3.16699 -34.666 9.5 -51.999s15.833 -32.833 28.5 -46.5
s28.334 -24.667 47.001 -33s40.334 -12.5 65.001 -12.5c46 0 82.333 13.333 109 40s40.334 61.334 41.001 104.001z" />
    <glyph glyph-name="T" unicode="T" 
d="M66 636c-5.33301 0 -10 2 -14 6s-6 8.66699 -6 14v24c0 5.33301 2 10 6 14s8.66699 6 14 6h420c5.33301 0 10 -2 14 -6s6 -8.66699 6 -14v-24c0 -5.33301 -2 -10 -6 -14s-8.66699 -6 -14 -6h-167c-6.66699 0 -10 -3.33301 -10 -10v-606c0 -5.33301 -2 -10 -6 -14
s-8.66699 -6 -14 -6h-25c-5.33301 0 -10 2 -14 6s-6 8.66699 -6 14v606c0 6.66699 -3.33301 10 -10 10h-168z" />
    <glyph glyph-name="U" unicode="U" 
d="M124 207c0 -20 3.83105 -39.167 11.498 -57.5s18.334 -34.333 32.001 -48s29.667 -24.667 48 -33s38.166 -12.5 59.499 -12.5s41.166 4.16699 59.499 12.5s34.333 19.333 48 33s24.334 29.667 32.001 48s11.5 37.5 11.5 57.5v473c0 5.33301 2 10 6 14s8.66699 6 14 6h24
c5.33301 0 10 -2 14 -6s6 -8.66699 6 -14v-473c0 -30 -5.66699 -58 -17 -84s-26.666 -48.667 -45.999 -68s-42 -34.666 -68 -45.999s-54 -17 -84 -17s-58 5.66699 -84 17s-48.667 26.666 -68 45.999s-34.666 42 -45.999 68s-17 54 -17 84v473c0 5.33301 2 10 6 14
s8.66699 6 14 6h24c5.33301 0 10 -2 14 -6s6 -8.66699 6 -14v-473z" />
    <glyph glyph-name="V" unicode="V" 
d="M447 685c2.66699 10 8.99902 15.001 18.999 15.001h29c8 0 13.5 -2.5 16.5 -7.5s3.83301 -10.167 2.5 -15.5l-191 -662c-3.33301 -10 -9.66602 -15 -18.999 -15h-60c-10 0 -16.333 5 -19 15l-190 661c-1.33301 5.33301 -0.5 10.666 2.5 15.999s8.5 8 16.5 8h29
c10 0 16.333 -5 19 -15l165 -590c0.666992 -4 2.66699 -6 6 -6h2c2.66699 0 4.66699 2 6 6z" />
    <glyph glyph-name="W" unicode="W" 
d="M371 111c0.666992 -3.33301 2.66895 -4.99902 6.00195 -4.99902s5.33301 1.66699 6 5l62 574c0.666992 5.33301 2.83398 9.16602 6.50098 11.499s7.83398 3.5 12.501 3.5h25c8 0 13.5 -2 16.5 -6s4.16699 -8.66699 3.5 -14l-82 -665
c-0.666992 -5.33301 -2.83398 -9.16602 -6.50098 -11.499s-7.83398 -3.5 -12.501 -3.5h-67c-4.66699 0 -8.83398 1.16699 -12.501 3.5s-5.83398 6.16602 -6.50098 11.499l-42 362c-0.666992 2.66699 -1.66699 4 -3 4s-2.33301 -1.33301 -3 -4l-56 -362
c-2 -10 -8.33301 -15 -19 -15h-67c-4.66699 0 -8.83398 1.16699 -12.501 3.5s-5.83398 6.16602 -6.50098 11.499l-73 665c-0.666992 5.33301 0.5 10 3.5 14s8.5 6 16.5 6h25c4.66699 0 8.83398 -1.16699 12.501 -3.5s5.83398 -6.16602 6.50098 -11.499l58 -574
c0.666992 -3.33301 2.66699 -5 6 -5s5.33301 1.66699 6 5l60 374c2 10 8.33301 15 19 15h46c10.667 0 17 -5 19 -15z" />
    <glyph glyph-name="X" unicode="X" 
d="M129 15c-4.66699 -10 -11.6641 -15 -20.9971 -15h-33c-6.66699 -0 -11.834 2.83301 -15.501 8.5s-3.83398 12.167 -0.500977 19.5l174 328c3.33301 5.33301 3.66602 10 0.999023 14l-160 302c-3.33301 7.33301 -3.16602 13.833 0.500977 19.5s8.83398 8.5 15.501 8.5h31
c8 0 14.333 -5 19 -15l130 -250c2.66699 -6.66699 5.33398 -6.66699 8.00098 0l130 250c4.66699 10 11 15 19 15h31c6.66699 0 11.834 -2.83301 15.501 -8.5s3.83398 -12.167 0.500977 -19.5l-160 -302c-2.66699 -4 -2.33398 -8.66699 0.999023 -14l175 -328
c3.33301 -7.33301 3.16602 -13.833 -0.500977 -19.5s-8.83398 -8.5 -15.501 -8.5h-35c-8.66699 0 -15.334 5 -20.001 15l-141 274c-2.66699 6.66699 -5.33398 6.66699 -8.00098 0z" />
    <glyph glyph-name="Y" unicode="Y" 
d="M272 328c2.66699 -6.66699 5.33105 -6.66699 7.99805 0l137 357c3.33301 10 9.66602 15 18.999 15h32c6.66699 0 11.834 -2.83301 15.501 -8.5s3.83398 -12.167 0.500977 -19.5l-175 -431v-221c0 -5.33301 -2 -10 -6 -14s-8.66699 -6 -14 -6h-26c-5.33301 0 -10 2 -14 6
s-6 8.66699 -6 14v220l-177 432c-3.33301 7.33301 -3.16602 13.833 0.500977 19.5s8.83398 8.5 15.501 8.5h32c9.33301 0 15.666 -5 18.999 -15z" />
    <glyph glyph-name="Z" unicode="Z" 
d="M145 75c-1.33301 -2.66699 -1.5 -5 -0.5 -7s3.16699 -3 6.5 -3h310c5.33301 0 10 -2 14 -6s6 -8.66699 6 -14v-25c0 -5.33301 -2 -10 -6 -14s-8.66699 -6 -14 -6h-372c-5.33301 0 -10 2 -14 6s-6 8.66699 -6 14v47c0 5.33301 1.66699 10.666 5 15.999l325 543
c1.33301 2.66699 1.5 5 0.5 7s-3.16699 3 -6.5 3h-294c-5.33301 0 -10 2 -14 6s-6 8.66699 -6 14v24c0 5.33301 2 10 6 14s8.66699 6 14 6h352c5.33301 0 10 -2 14 -6s6 -8.66699 6 -14v-44c0 -5.33301 -1.66699 -10.666 -5 -15.999z" />
    <glyph glyph-name="bracketleft" unicode="[" 
d="M255 -24c0 -6.66699 3.33301 -10 10 -10h156c5.33301 0 10 -2 14 -6s6 -8.66699 6 -14v-16c0 -5.33301 -2 -10 -6 -14s-8.66699 -6 -14 -6h-202c-5.33301 0 -10 2 -14 6s-6 8.66699 -6 14v770c0 5.33301 2 10 6 14s8.66699 6 14 6h200c5.33301 0 10 -2 14 -6
s6 -8.66699 6 -14v-16c0 -5.33301 -2 -10 -6 -14s-8.66699 -6 -14 -6h-154c-6.66699 0 -10 -3.33301 -10 -10v-678z" />
    <glyph glyph-name="backslash" unicode="\" 
d="M104 682c-3.33301 7.33301 -3.16504 13.833 0.501953 19.5s8.83398 8.5 15.501 8.5h21c9.33301 0 15.666 -5 18.999 -15l286 -679c3.33301 -7.33301 3.16602 -13.833 -0.500977 -19.5s-8.83398 -8.5 -15.501 -8.5h-21c-9.33301 0 -16.333 5 -21 15z" />
    <glyph glyph-name="bracketright" unicode="]" 
d="M295 654c0 6.66699 -3.33301 10 -10 10h-154c-5.33301 0 -10 2 -14 6s-6 8.66699 -6 14v16c0 5.33301 2 10 6 14s8.66699 6 14 6h200c5.33301 0 10 -2 14 -6s6 -8.66699 6 -14v-770c0 -5.33301 -2 -10 -6 -14s-8.66699 -6 -14 -6h-202c-5.33301 0 -10 2 -14 6
s-6 8.66699 -6 14v16c0 5.33301 2 10 6 14s8.66699 6 14 6h156c6.66699 0 10 3.33301 10 10v678z" />
    <glyph glyph-name="asciicircum" unicode="^" 
d="M200 601c-3.33301 -3.33301 -7.5 -6.83301 -12.5 -10.5s-11.167 -5.5 -18.5 -5.5h-43c-6.66699 0 -11 2.66699 -13 8s-1.33301 9.66602 2 12.999l118 112c3.33301 3.33301 6.83301 6.16602 10.5 8.49902s10.167 3.5 19.5 3.5h22c8.66699 0 14.834 -1.16699 18.501 -3.5
s7.16699 -5.16602 10.5 -8.49902l118 -112c3.33301 -3.33301 4 -7.66602 2 -12.999s-6.33301 -8 -13 -8h-43c-7.33301 0 -13.5 1.83301 -18.5 5.5s-9.16699 7.16699 -12.5 10.5l-67 65c-4.66699 4.66699 -9.33398 4.66699 -14.001 0z" />
    <glyph glyph-name="underscore" unicode="_" 
d="M540 0c5.33301 0 10 -2 14 -6s6 -8.66699 6 -14v-19c0 -5.33301 -2 -10 -6 -14s-8.66699 -6 -14 -6h-530c-5.33301 0 -10 2 -14 6s-6 8.66699 -6 14v19c0 5.33301 2 10 6 14s8.66699 6 14 6h530z" />
    <glyph glyph-name="grave" unicode="`" 
d="M259 730c7.33301 0 12.833 -1.83105 16.5 -5.49805s6.83398 -7.16699 9.50098 -10.5l76 -109c2.66699 -3.33301 2.66699 -7.5 0 -12.5s-7.33398 -7.5 -14.001 -7.5h-19c-9.33301 0 -15.833 1.16699 -19.5 3.5s-7.16699 5.16602 -10.5 8.49902l-108 112
c-3.33301 3.33301 -4 7.66602 -2 12.999s6.33301 8 13 8h58z" />
    <glyph glyph-name="a" unicode="a" 
d="M251 241c-28 0 -52.667 -7.66797 -74 -23.001s-32 -37.666 -32 -66.999c0 -18 3.16699 -33.5 9.5 -46.5s15 -23.833 26 -32.5s23.5 -15.167 37.5 -19.5s29 -6.5 45 -6.5c46 0 81.5 10.667 106.5 32s37.5 52.333 37.5 93v60c0 6.66699 -3.33301 10 -10 10h-146z
M283 454.999c-15.333 0 -30 -2.16211 -44 -6.49512s-26.333 -10.333 -37 -18s-19.334 -16.834 -26.001 -27.501s-10 -22.667 -10 -36c0 -8.66699 -2.66699 -13.667 -8 -15s-10.333 -2 -15 -2h-14c-13.333 0 -20 6.66699 -20 20c0 23.333 5 43.666 15 60.999
s23.333 31.833 40 43.5s35.334 20.5 56.001 26.5s41.667 9 63 9c24.667 0 47.834 -3.33301 69.501 -10s40.667 -16.834 57 -30.501s29.333 -30.834 39 -51.501s14.5 -45.334 14.5 -74.001v-324c0 -5.33301 -2 -10 -6 -14s-8.66699 -6 -14 -6h-9
c-6.66699 0 -11.334 2.33301 -14.001 7c-2.66699 4 -5 8.5 -7 13.5s-6.33301 7.5 -13 7.5c-4.66699 0 -10.667 -2 -18 -6s-16.333 -8.33301 -27 -13s-23.167 -9 -37.5 -13s-30.833 -6 -49.5 -6c-30.667 0 -57.5 4.33301 -80.5 13s-42 20.334 -57 35.001
s-26.167 31.667 -33.5 51s-11 39.666 -11 60.999c0 20.667 3.66699 40 11 58s18 33.5 32 46.5s31.333 23.167 52 30.5s44 11 70 11h143c6.66699 0 10 3.33301 10 10v39c0 32.667 -11.333 59.167 -34 79.5s-51.667 30.5 -87 30.5z" />
    <glyph glyph-name="b" unicode="b" 
d="M268 49c24.667 0 45.168 4.33301 61.501 13s29.666 19.5 39.999 32.5s18 27.167 23 42.5s8.16699 29.666 9.5 42.999c2.66699 20.667 4 44 4 70s-1.33301 49.333 -4 70c-1.33301 13.333 -4.5 27.666 -9.5 42.999s-12.667 29.5 -23 42.5s-23.833 23.833 -40.5 32.5
s-37 13 -61 13c-22 0 -40.667 -4.33301 -56 -13s-27.666 -19.5 -36.999 -32.5s-16.333 -27.167 -21 -42.5s-7.66699 -29.666 -9 -42.999c-2 -20.667 -3 -44 -3 -70s1 -49.333 3 -70c1.33301 -13.333 4.33301 -27.666 9 -42.999s11.667 -29.5 21 -42.5
s21.666 -23.833 36.999 -32.5s34 -13 56 -13zM273.001 -10c-18.667 0 -33.667 1.66797 -45 5.00098s-21 7.16602 -29 11.499l-20.5 11.5c-5.66699 3.33301 -12.167 5 -19.5 5c-5.33301 0 -10 -1.83301 -14 -5.5l-11 -10.5c-4.66699 -4.66699 -9.33398 -7 -14.001 -7h-16
c-5.33301 0 -10 2 -14 6s-6 8.66699 -6 14v667c0 5.33301 2 10 6 14s8.66699 6 14 6h19c5.33301 0 10 -2 14 -6s6 -8.66699 6 -14v-177c0 -9.33301 2.33301 -15.833 7 -19.5s10.667 -5.5 18 -5.5c4.66699 0 9.83398 1.33301 15.501 4s12.5 5.5 20.5 8.5
s17.5 5.83301 28.5 8.5s24.5 4 40.5 4c26 0 50.167 -5 72.5 -15s41.833 -23.5 58.5 -40.5s30.167 -37.167 40.5 -60.5s16.5 -48 18.5 -74c1.33301 -20 2 -43.333 2 -70s-0.666992 -50 -2 -70c-2 -26 -8.16699 -50.667 -18.5 -74s-23.833 -43.5 -40.5 -60.5
s-36.167 -30.5 -58.5 -40.5s-46.5 -15 -72.5 -15z" />
    <glyph glyph-name="c" unicode="c" 
d="M283 49c22 0 41 3.49902 57 10.499s29.333 16 40 27s18.5 23.167 23.5 36.5s7.5 26.666 7.5 39.999c0 6.66699 2 11.167 6 13.5s8.33301 3.5 13 3.5h21c5.33301 0 10 -2 14 -6s6 -8.66699 6 -14c0 -22.667 -4.5 -44.167 -13.5 -64.5s-21.833 -38.333 -38.5 -54
s-36.5 -28.167 -59.5 -37.5s-48.5 -14 -76.5 -14c-30 0 -57 5 -81 15s-44.667 23.5 -62 40.5s-31 37.167 -41 60.5s-16 48 -18 74c-1.33301 20 -2 43.333 -2 70s0.666992 50 2 70c2 26 8 50.667 18 74s23.667 43.5 41 60.5s38 30.5 62 40.5s51 15 81 15
c28 0 53.5 -4.66699 76.5 -14s42.833 -21.833 59.5 -37.5s29.5 -33.667 38.5 -54s13.5 -41.833 13.5 -64.5c0 -5.33301 -1.5 -10 -4.5 -14s-7.16699 -6 -12.5 -6h-23c-4.66699 0 -9 1.33301 -13 4s-6 6.66699 -6 12c0 14.667 -2.83301 29 -8.5 43s-14 26.333 -25 37
s-24.5 19.167 -40.5 25.5s-34.333 9.5 -55 9.5c-25.333 0 -46.666 -4.33301 -63.999 -13s-31.5 -19.5 -42.5 -32.5s-19.167 -27.167 -24.5 -42.5s-8.66602 -29.666 -9.99902 -42.999c-2 -20.667 -3 -44 -3 -70s1 -49.333 3 -70
c1.33301 -13.333 4.66602 -27.666 9.99902 -42.999s13.5 -29.5 24.5 -42.5s25.167 -23.833 42.5 -32.5s38.666 -13 63.999 -13z" />
    <glyph glyph-name="d" unicode="d" 
d="M282 49c22 0 40.668 4.33301 56.001 13s27.666 19.5 36.999 32.5s16.333 27.167 21 42.5s7.66699 29.666 9 42.999c2 20.667 3 44 3 70s-1 49.333 -3 70c-1.33301 13.333 -4.33301 27.666 -9 42.999s-11.667 29.5 -21 42.5s-21.666 23.833 -36.999 32.5s-34 13 -56 13
c-24 0 -44.333 -4.33301 -61 -13s-30.167 -19.5 -40.5 -32.5s-18 -27.167 -23 -42.5s-8.16699 -29.666 -9.5 -42.999c-2.66699 -20.667 -4 -44 -4 -70s1.33301 -49.333 4 -70c1.33301 -13.333 4.5 -27.666 9.5 -42.999s12.667 -29.5 23 -42.5s23.666 -23.833 39.999 -32.5
s36.833 -13 61.5 -13zM277.001 -10c-26 0 -50.165 4.99902 -72.498 14.999s-41.833 23.5 -58.5 40.5s-30.167 37.167 -40.5 60.5s-16.5 48 -18.5 74c-1.33301 20 -2 43.333 -2 70s0.666992 50 2 70c2 26 8.16699 50.667 18.5 74s23.833 43.5 40.5 60.5
s36.167 30.5 58.5 40.5s46.5 15 72.5 15c16 0 29.5 -1.33301 40.5 -4s20.5 -5.5 28.5 -8.5s14.667 -5.83301 20 -8.5s10.666 -4 15.999 -4c7.33301 0 13.333 1.83301 18 5.5s7 10.167 7 19.5v177c0 5.33301 2 10 6 14s8.66699 6 14 6h19c5.33301 0 10 -2 14 -6
s6 -8.66699 6 -14v-667c0 -5.33301 -2 -10 -6 -14s-8.66699 -6 -14 -6h-16c-4.66699 0 -9.33398 2.33301 -14.001 7l-11 10.5c-4 3.66699 -8.66699 5.5 -14 5.5c-7.33301 0 -13.833 -1.66699 -19.5 -5l-20.5 -11.5c-8 -4.33301 -17.667 -8.16602 -29 -11.499
s-26.333 -5 -45 -5z" />
    <glyph glyph-name="e" unicode="e" 
d="M132 216c0 -24 2.83203 -46.1699 8.49902 -66.5029s14.5 -38 26.5 -53s27.167 -26.667 45.5 -35s40.5 -12.5 66.5 -12.5c19.333 0 36.5 2.66699 51.5 8s28 12.5 39 21.5s20 19 27 30s12.5 22.5 16.5 34.5c2 6.66699 5.16699 11.167 9.5 13.5s8.83301 3.5 13.5 3.5h20
c5.33301 0 9.83301 -1.5 13.5 -4.5s4.83398 -8.16699 3.50098 -15.5c-3.33301 -22 -10.333 -42.167 -21 -60.5s-24.5 -34.166 -41.5 -47.499s-36.667 -23.666 -59 -30.999s-46.5 -11 -72.5 -11c-30 0 -57.167 5 -81.5 15s-45.333 23.5 -63 40.5s-31.667 37.167 -42 60.5
s-16.5 48 -18.5 74c-1.33301 20 -2 43.333 -2 70s0.666992 50 2 70c2 26 8.16699 50.667 18.5 74s24.333 43.5 42 60.5s38.667 30.5 63 40.5s51.5 15 81.5 15c28 0 54.167 -5.33301 78.5 -16s45.5 -25 63.5 -43s32.167 -39.167 42.5 -63.5s15.5 -50.166 15.5 -77.499v-64
c0 -5.33301 -2 -10 -6 -14s-8.66699 -6 -14 -6h-317c-6.66699 0 -10 -3.33301 -10 -10zM133.999 291.997c0 -6.66699 3.33301 -10.002 10 -10.002h270c6.66699 0 10 3.33301 10 10c0 25.333 -3.66699 47.833 -11 67.5s-17.5 36.334 -30.5 50.001s-28.167 24 -45.5 31
s-36.333 10.5 -57 10.5c-44.667 0 -80.167 -13.667 -106.5 -41s-39.5 -66.666 -39.5 -117.999z" />
    <glyph glyph-name="f" unicode="f" 
d="M84 436c-5.33301 0 -10 2 -14 6s-6 8.66699 -6 14v19c0 5.33301 2 10 6 14s8.66699 6 14 6h137c6.66699 0 10 3.33301 10 10v15c0 28 4.16699 53.5 12.5 76.5s20 42.667 35 59s32.833 29 53.5 38s43.667 13.5 69 13.5h45c5.33301 0 10 -2 14 -6s6 -8.66699 6 -14v-16
c0 -5.33301 -2 -10 -6 -14s-8.66699 -6 -14 -6h-45c-19.333 0 -35.833 -3.5 -49.5 -10.5s-25 -16.5 -34 -28.5s-15.667 -26 -20 -42s-6.5 -32.667 -6.5 -50v-15c0 -6.66699 3.33301 -10 10 -10h164c5.33301 0 10 -2 14 -6s6 -8.66699 6 -14v-19c0 -5.33301 -2 -10 -6 -14
s-8.66699 -6 -14 -6h-164c-6.66699 0 -10 -3.33301 -10 -10v-406c0 -5.33301 -2 -10 -6 -14s-8.66699 -6 -14 -6h-20c-5.33301 0 -10 2 -14 6s-6 8.66699 -6 14v406c0 6.66699 -3.33301 10 -10 10h-137z" />
    <glyph glyph-name="g" unicode="g" 
d="M446 500c5.33301 0 10.0029 -1.99902 14.0029 -5.99902s6 -8.66699 6 -14v-510c0 -24 -4.33301 -47 -13 -69s-20.834 -41.167 -36.501 -57.5s-34.334 -29.333 -56.001 -39s-45.834 -14.5 -72.501 -14.5c-20 0 -39.5 2.83301 -58.5 8.5s-36.5 14.334 -52.5 26.001
s-29.833 26 -41.5 43s-19.834 36.833 -24.501 59.5c-3.33301 15.333 2.66699 23 18 23h16c8.66699 0 14.667 -2 18 -6s6 -8.66699 8 -14c3.33301 -9.33301 8 -18.833 14 -28.5s13.667 -18.334 23 -26.001s20.666 -14 33.999 -19s28.666 -7.5 45.999 -7.5
c18.667 0 35.334 3.5 50.001 10.5s27.167 16.167 37.5 27.5s18.166 24.166 23.499 38.499s8 29.166 8 44.499v20c0 16.667 -7.33301 25 -22 25c-5.33301 0 -11.666 -1.33301 -18.999 -4s-15.666 -5.5 -24.999 -8.5s-19.5 -5.83301 -30.5 -8.5s-22.167 -4 -33.5 -4
c-26 0 -50.167 5 -72.5 15s-41.833 23.5 -58.5 40.5s-30.167 37.167 -40.5 60.5s-16.5 48 -18.5 74c-1.33301 20 -2 43.333 -2 70s0.666992 50 2 70c2 26 8.16699 50.667 18.5 74s23.833 43.5 40.5 60.5s36.167 30.5 58.5 40.5s46.5 15 72.5 15
c18.667 0 33.667 -1.66699 45 -5s21 -7.16602 29 -11.499l20.5 -11.5c5.66699 -3.33301 12.167 -5 19.5 -5c5.33301 0 10 1.83301 14 5.5l11 10.5c4.66699 4.66699 9.33398 7 14.001 7h16zM282.003 451.001c-24.667 0 -45.168 -4.33301 -61.501 -13
s-29.666 -19.5 -39.999 -32.5s-18 -27.167 -23 -42.5s-8.16699 -29.666 -9.5 -42.999c-2.66699 -20.667 -4 -44 -4 -70s1.33301 -49.333 4 -70c1.33301 -13.333 4.5 -27.666 9.5 -42.999s12.667 -29.5 23 -42.5s23.833 -23.833 40.5 -32.5s37 -13 61 -13
c22 0 40.667 4.33301 56 13s27.666 19.5 36.999 32.5s16.333 27.167 21 42.5s7.66699 29.666 9 42.999c2 20.667 3 44 3 70s-1 49.333 -3 70c-1.33301 13.333 -4.33301 27.666 -9 42.999s-11.667 29.5 -21 42.5s-21.666 23.833 -36.999 32.5s-34 13 -56 13z" />
    <glyph glyph-name="h" unicode="h" 
d="M114 0c-5.33301 0 -10 2 -14 6s-6 8.66699 -6 14v667c0 5.33301 2 10 6 14s8.66699 6 14 6h19c5.33301 0 10 -2 14 -6s6 -8.66699 6 -14v-181c0 -4.66699 1.83301 -9.33398 5.5 -14.001s9.16699 -7 16.5 -7c4.66699 0 10.167 1.33301 16.5 4s13.833 5.5 22.5 8.5
s18.5 5.83301 29.5 8.5s23.833 4 38.5 4c26 0 49.833 -4.66699 71.5 -14s40 -22 55 -38s26.667 -34.5 35 -55.5s12.5 -43.167 12.5 -66.5v-316c0 -5.33301 -2 -10 -6 -14s-8.66699 -6 -14 -6h-19c-5.33301 0 -10 2 -14 6s-6 8.66699 -6 14v316c0 34 -11.333 61.667 -34 83
s-52 32 -88 32c-18 0 -34.5 -2.83301 -49.5 -8.5s-27.833 -13.5 -38.5 -23.5s-19 -21.667 -25 -35s-9 -27.666 -9 -42.999v-321c0 -5.33301 -2 -10 -6 -14s-8.66699 -6 -14 -6h-19z" />
    <glyph glyph-name="i" unicode="i" 
d="M332 638c0 -10.667 -5.33301 -16 -16 -16h-52c-10.667 0 -16 5.33301 -16 16v53c0 4 1.5 7.66699 4.5 11s6.83301 5 11.5 5h52c4.66699 0 8.5 -1.66699 11.5 -5s4.5 -7 4.5 -11v-53zM131 440c-5.33301 0 -10 2 -14 6s-6 8.66699 -6 14v20c0 5.33301 2 10 6 14
s8.66699 6 14 6h175c5.33301 0 10 -2 14 -6s6 -8.66699 6 -14v-410c0 -6.66699 3.33301 -10 10 -10h131c5.33301 0 10 -2 14 -6s6 -8.66699 6 -14v-20c0 -5.33301 -2 -10 -6 -14s-8.66699 -6 -14 -6h-346c-5.33301 0 -10 2 -14 6s-6 8.66699 -6 14v20c0 5.33301 2 10 6 14
s8.66699 6 14 6h135c6.66699 0 10 3.33301 10 10v360c0 6.66699 -3.33301 10 -10 10h-125z" />
    <glyph glyph-name="j" unicode="j" 
d="M385 638c0 -10.667 -5.33301 -16 -16 -16h-52c-10.667 0 -16 5.33301 -16 16v53c0 4 1.5 7.66699 4.5 11s6.83301 5 11.5 5h52c4.66699 0 8.5 -1.66699 11.5 -5s4.5 -7 4.5 -11v-53zM384 -35c0 -30 -4.00098 -55.999 -12.001 -77.999s-19 -40.167 -33 -54.5
s-30.5 -25 -49.5 -32s-39.5 -10.5 -61.5 -10.5s-42.667 4.16699 -62 12.5s-36.333 19.833 -51 34.5s-26.167 31.667 -34.5 51s-12.5 40 -12.5 62c0 5.33301 2 10 6 14s9 6 15 6h21c5.33301 0 10 -2 14 -6s6 -8.66699 6 -14c0 -12.667 2.33301 -24.834 7 -36.501
s11.334 -22 20.001 -31s19 -16.333 31 -22s25.333 -8.5 40 -8.5c29.333 0 52.5 8.33301 69.5 25s25.5 42 25.5 76v477c0 6.66699 -3.33301 10 -10 10h-149c-5.33301 0 -10 2 -14 6s-6 8.66699 -6 14v20c0 5.33301 2 10 6 14s8.66699 6 14 6h200c5.33301 0 10 -2 14 -6
s6 -8.66699 6 -14v-515z" />
    <glyph glyph-name="k" unicode="k" 
d="M186 209c-1.33301 1.33301 -3 1.99805 -5 1.99805s-3 -1.33301 -3 -4v-187c0 -5.33301 -2 -10 -6 -14s-8.66699 -6 -14 -6h-19c-5.33301 0 -10 2 -14 6s-6 8.66699 -6 14v667c0 5.33301 2 10 6 14s8.66699 6 14 6h19c5.33301 0 10 -2 14 -6s6 -8.66699 6 -14v-375
c0 -5.33301 2.66699 -6 8 -2l201 177c2.66699 2.66699 6.16699 5.5 10.5 8.5s10.166 4.5 17.499 4.5h18c11.333 0 17.833 -4.16699 19.5 -12.5s-0.166016 -15.166 -5.49902 -20.499l-219 -195c-8.66699 -8.66699 -8.66699 -16.667 0 -24l234 -213
c7.33301 -6.66699 9.5 -14.167 6.5 -22.5s-9.83301 -12.5 -20.5 -12.5h-20c-7.33301 0 -13.5 1.83301 -18.5 5.5s-8.83301 6.83398 -11.5 9.50098z" />
    <glyph glyph-name="l" unicode="l" 
d="M115 647c-5.33301 0 -9.99902 2 -13.999 6s-6 8.66699 -6 14v20c0 5.33301 2 10 6 14s8.66699 6 14 6h171c5.33301 0 10 -2 14 -6s6 -8.66699 6 -14v-617c0 -6.66699 3.33301 -10 10 -10h127c5.33301 0 10 -2 14 -6s6 -8.66699 6 -14v-20c0 -5.33301 -2 -10 -6 -14
s-8.66699 -6 -14 -6h-348c-5.33301 0 -10 2 -14 6s-6 8.66699 -6 14v20c0 5.33301 2 10 6 14s8.66699 6 14 6h139c3.33301 0 6.16602 0.833008 8.49902 2.5s3.5 4.16699 3.5 7.5v567c0 6.66699 -3.33301 10 -10 10h-121z" />
    <glyph glyph-name="m" unicode="m" 
d="M288 474c6 7.33301 15.4971 15.166 28.4971 23.499s32.167 12.5 57.5 12.5c17.333 0 32.333 -3.33301 45 -10s23 -15.667 31 -27s13.833 -24.166 17.5 -38.499s5.5 -29.166 5.5 -44.499v-370c0 -5.33301 -2 -10 -6 -14s-8.66699 -6 -14 -6h-19c-5.33301 0 -10 2 -14 6
s-6 8.66699 -6 14v383c0 17.333 -6.16699 29.666 -18.5 36.999s-25.166 11 -38.499 11s-25.5 -4.33301 -36.5 -13s-16.5 -20.334 -16.5 -35.001v-383c0 -5.33301 -2 -10 -6 -14s-8.66699 -6 -14 -6h-19c-5.33301 0 -10 2 -14 6s-6 8.66699 -6 14v383
c0 14.667 -5.83301 26.334 -17.5 35.001s-24.167 13 -37.5 13s-26 -4.33301 -38 -13s-18 -20.334 -18 -35.001v-383c0 -5.33301 -2 -10 -6 -14s-8.66699 -6 -14 -6h-19c-5.33301 0 -10 2 -14 6s-6 8.66699 -6 14v460c0 5.33301 2 10 6 14s8.66699 6 14 6h6
c4.66699 0 9.33398 -2.33301 14.001 -7c2 -2.66699 3.83301 -4.66699 5.5 -6s4.16699 -2 7.5 -2c2.66699 0 5.66699 1.33301 9 4s7.5 5.5 12.5 8.5s11.333 5.83301 19 8.5s17.5 4 29.5 4c18 0 32.333 -3.66699 43 -11s19.334 -15.666 26.001 -24.999c2.66699 -4 6 -6 10 -6
s7.66699 2 11 6z" />
    <glyph glyph-name="n" unicode="n" 
d="M163 477c7.33301 0 14.166 1.66895 20.499 5.00195l22 11.5c8.33301 4.33301 18.5 8.16602 30.5 11.499s27.333 5 46 5c26 0 50 -3.66699 72 -11s41 -18.333 57 -33s28.333 -32.834 37 -54.501s13 -46.834 13 -75.501v-316c0 -5.33301 -2 -10 -6 -14s-8.66699 -6 -14 -6
h-19c-5.33301 0 -10 2 -14 6s-6 8.66699 -6 14v316c0 42 -12.167 71.667 -36.5 89s-54.5 26 -90.5 26c-18 0 -34.667 -2.83301 -50 -8.5s-28.833 -13.5 -40.5 -23.5s-20.667 -21.667 -27 -35s-9.5 -27.666 -9.5 -42.999v-321c0 -5.33301 -2 -10 -6 -14s-8.66699 -6 -14 -6
h-19c-5.33301 0 -10 2 -14 6s-6 8.66699 -6 14v460c0 5.33301 2 10 6 14s8.66699 6 14 6h16c4.66699 0 9.33398 -2.33301 14.001 -7l10 -10.5c3.33301 -3.66699 8 -5.5 14 -5.5z" />
    <glyph glyph-name="o" unicode="o" 
d="M275 510c30 0 57 -5 81 -15s44.667 -23.5 62 -40.5s31 -37.167 41 -60.5s16 -48 18 -74c1.33301 -20 2 -43.333 2 -70s-0.666992 -50 -2 -70c-2 -26 -8 -50.667 -18 -74s-23.667 -43.5 -41 -60.5s-38 -30.5 -62 -40.5s-51 -15 -81 -15s-57 5 -81 15
s-44.667 23.5 -62 40.5s-31 37.167 -41 60.5s-16 48 -18 74c-1.33301 20 -2 43.333 -2 70s0.666992 50 2 70c2 26 8 50.667 18 74s23.667 43.5 41 60.5s38 30.5 62 40.5s51 15 81 15zM275 49c24.667 0 45.834 4.33301 63.501 13s32 19.5 43 32.5s19.167 27.167 24.5 42.5
s8.66602 29.666 9.99902 42.999c2 20.667 3 44 3 70s-1 49.333 -3 70c-1.33301 13.333 -4.66602 27.666 -9.99902 42.999s-13.5 29.5 -24.5 42.5s-25.333 23.833 -43 32.5s-38.834 13 -63.501 13c-25.333 0 -46.666 -4.33301 -63.999 -13s-31.5 -19.5 -42.5 -32.5
s-19.167 -27.167 -24.5 -42.5s-8.66602 -29.666 -9.99902 -42.999c-2 -20.667 -3 -44 -3 -70s1 -49.333 3 -70c1.33301 -13.333 4.66602 -27.666 9.99902 -42.999s13.5 -29.5 24.5 -42.5s25.167 -23.833 42.5 -32.5s38.666 -13 63.999 -13z" />
    <glyph glyph-name="p" unicode="p" 
d="M268 451c-22 0 -40.668 -4.33301 -56.001 -13s-27.666 -19.5 -36.999 -32.5s-16.333 -27.167 -21 -42.5s-7.66699 -29.666 -9 -42.999c-2 -20.667 -3 -44 -3 -70s1 -49.333 3 -70c1.33301 -13.333 4.33301 -27.666 9 -42.999s11.667 -29.5 21 -42.5
s21.666 -23.833 36.999 -32.5s34 -13 56 -13c24 0 44.333 4.33301 61 13s30.167 19.5 40.5 32.5s18 27.167 23 42.5s8.16699 29.666 9.5 42.999c2.66699 20.667 4 44 4 70s-1.33301 49.333 -4 70c-1.33301 13.333 -4.5 27.666 -9.5 42.999s-12.667 29.5 -23 42.5
s-23.666 23.833 -39.999 32.5s-36.833 13 -61.5 13zM272.999 510c26 0 50.166 -4.99902 72.499 -14.999s41.833 -23.5 58.5 -40.5s30.167 -37.167 40.5 -60.5s16.5 -48 18.5 -74c1.33301 -20 2 -43.333 2 -70s-0.666992 -50 -2 -70c-2 -26 -8.16699 -50.667 -18.5 -74
s-23.833 -43.5 -40.5 -60.5s-36.167 -30.5 -58.5 -40.5s-46.5 -15 -72.5 -15c-16 0 -29.667 1.33301 -41 4s-21 5.5 -29 8.5s-15 5.83301 -21 8.5s-11.333 4 -16 4c-6.66699 0 -12.167 -1.83301 -16.5 -5.5s-6.5 -10.167 -6.5 -19.5v-170c0 -5.33301 -2 -10 -6 -14
s-8.66699 -6 -14 -6h-19c-5.33301 0 -10 2 -14 6s-6 8.66699 -6 14v660c0 5.33301 2 10 6 14s8.66699 6 14 6h16c4.66699 0 9.33398 -2.33301 14.001 -7l11 -10.5c4 -3.66699 8.66699 -5.5 14 -5.5c7.33301 0 13.833 1.66699 19.5 5l20.5 11.5
c8 4.33301 17.667 8.16602 29 11.499s26.333 5 45 5z" />
    <glyph glyph-name="q" unicode="q" 
d="M282 451c-24.667 0 -45.168 -4.33301 -61.501 -13s-29.666 -19.5 -39.999 -32.5s-18 -27.167 -23 -42.5s-8.16699 -29.666 -9.5 -42.999c-2.66699 -20.667 -4 -44 -4 -70s1.33301 -49.333 4 -70c1.33301 -13.333 4.5 -27.666 9.5 -42.999s12.667 -29.5 23 -42.5
s23.833 -23.833 40.5 -32.5s37 -13 61 -13c22 0 40.667 4.33301 56 13s27.666 19.5 36.999 32.5s16.333 27.167 21 42.5s7.66699 29.666 9 42.999c2 20.667 3 44 3 70s-1 49.333 -3 70c-1.33301 13.333 -4.33301 27.666 -9 42.999s-11.667 29.5 -21 42.5
s-21.666 23.833 -36.999 32.5s-34 13 -56 13zM276.999 510c18.667 0 33.666 -1.66797 44.999 -5.00098s21 -7.16602 29 -11.499l20.5 -11.5c5.66699 -3.33301 12.167 -5 19.5 -5c5.33301 0 10 1.83301 14 5.5l11 10.5c4.66699 4.66699 9.33398 7 14.001 7h16
c5.33301 0 10 -2 14 -6s6 -8.66699 6 -14v-660c0 -5.33301 -2 -10 -6 -14s-8.66699 -6 -14 -6h-19c-5.33301 0 -10 2 -14 6s-6 8.66699 -6 14v170c0 9.33301 -2.33301 15.833 -7 19.5s-10 5.5 -16 5.5c-5.33301 0 -10.833 -1.33301 -16.5 -4s-12.5 -5.5 -20.5 -8.5
s-17.667 -5.83301 -29 -8.5s-25 -4 -41 -4c-26 0 -50.167 5 -72.5 15s-41.833 23.5 -58.5 40.5s-30.167 37.167 -40.5 60.5s-16.5 48 -18.5 74c-1.33301 20 -2 43.333 -2 70s0.666992 50 2 70c2 26 8.16699 50.667 18.5 74s23.833 43.5 40.5 60.5s36.167 30.5 58.5 40.5
s46.5 15 72.5 15z" />
    <glyph glyph-name="r" unicode="r" 
d="M438 340c0 32 -11.335 58.501 -34.002 79.501s-54 31.5 -94 31.5c-18 0 -34.833 -3 -50.5 -9s-29.167 -14.333 -40.5 -25s-20.333 -23.5 -27 -38.5s-10 -31.167 -10 -48.5v-310c0 -5.33301 -2 -10 -6 -14s-8.66699 -6 -14 -6h-19c-5.33301 0 -10 2 -14 6
s-6 8.66699 -6 14v460c0 5.33301 2 10 6 14s8.66699 6 14 6h16c4.66699 0 9.33398 -2.33301 14.001 -7l11 -10.5c4 -3.66699 8.66699 -5.5 14 -5.5c7.33301 0 14.333 1.66699 21 5l23 11.5c8.66699 4.33301 19.167 8.16602 31.5 11.499s27.833 5 46.5 5
c25.333 0 48.833 -4 70.5 -12s40.334 -19.333 56.001 -34s28 -32.5 37 -53.5s13.5 -44.5 13.5 -70.5c0 -5.33301 -2 -10 -6 -14s-8.66699 -6 -14 -6h-19c-5.33301 0 -10 2 -14 6s-6 8.66699 -6 14z" />
    <glyph glyph-name="s" unicode="s" 
d="M82 163c0 5.33301 2.00293 9.99902 6.00293 13.999s8.66699 6 14 6h19c5.33301 0 10 -2 14 -6s6 -8.66699 6 -14c0 -18 3.5 -34.167 10.5 -48.5s16.5 -26.5 28.5 -36.5s26.167 -17.5 42.5 -22.5s33.833 -7.5 52.5 -7.5c41.333 0 73.833 9.33301 97.5 28
s35.5 41.667 35.5 69c0 16 -4.33301 29.333 -13 40s-19.667 19.5 -33 26.5s-28.166 12.5 -44.499 16.5s-32.166 7 -47.499 9c-22 3.33301 -43.333 7.83301 -64 13.5s-38.834 13.667 -54.501 24s-28.334 23.333 -38.001 39s-14.5 35.167 -14.5 58.5
c0 19.333 4.83301 37.5 14.5 54.5s22.667 31.667 39 44s35.166 22 56.499 29s43.333 10.5 66 10.5s44.334 -3.33301 65.001 -10s39 -16.5 55 -29.5s28.833 -28.667 38.5 -47s14.5 -39.5 14.5 -63.5c0 -5.33301 -2 -10 -6 -14s-8.66699 -6 -14 -6h-19c-5.33301 0 -10 2 -14 6
s-6 8.66699 -6 14c0 25.333 -10.333 47.333 -31 66s-48.334 28 -83.001 28c-35.333 0 -63.5 -8.33301 -84.5 -25s-31.5 -35.667 -31.5 -57c0 -14 3.5 -25.333 10.5 -34s15.833 -15.667 26.5 -21s22.667 -9.5 36 -12.5s26 -5.5 38 -7.5c20.667 -4 42.667 -9 66 -15
s44.666 -14.5 63.999 -25.5s35.333 -25.5 48 -43.5s19 -40.667 19 -68c0 -21.333 -4.5 -41.333 -13.5 -60s-22 -35 -39 -49s-37.333 -25.167 -61 -33.5s-49.834 -12.5 -78.501 -12.5c-25.333 0 -49.5 3.66699 -72.5 11s-43.5 18.333 -61.5 33s-32.333 32.834 -43 54.501
s-16 46.5 -16 74.5z" />
    <glyph glyph-name="t" unicode="t" 
d="M239 160c0 -35.333 9.50195 -62.5 28.502 -81.5s41.167 -28.5 66.5 -28.5c28.667 0 51.167 9.66699 67.5 29s24.5 43 24.5 71c0 5.33301 2 10 6 14s8.66699 6 14 6h21c5.33301 0 10 -2 14 -6s6 -8.66699 6 -14c0 -22 -3.83301 -42.667 -11.5 -62
s-18.334 -36.333 -32.001 -51s-29.834 -26.167 -48.501 -34.5s-39 -12.5 -61 -12.5s-42.5 4.16699 -61.5 12.5s-35.333 19.833 -49 34.5s-24.5 31.667 -32.5 51s-12 40 -12 62v276c0 6.66699 -3.33301 10 -10 10h-111c-5.33301 0 -10 2 -14 6s-6 8.66699 -6 14v19
c0 5.33301 2 10 6 14s8.66699 6 14 6h111c6.66699 0 10 3.33301 10 10v155c0 5.33301 2 10 6 14s8.66699 6 14 6h20c5.33301 0 10 -2 14 -6s6 -8.66699 6 -14v-155c0 -6.66699 3.33301 -10 10 -10h166c5.33301 0 10 -2 14 -6s6 -8.66699 6 -14v-19c0 -5.33301 -2 -10 -6 -14
s-8.66699 -6 -14 -6h-166c-6.66699 0 -10 -3.33301 -10 -10v-266z" />
    <glyph glyph-name="u" unicode="u" 
d="M387 23c-7.33301 0 -14.166 -1.66895 -20.499 -5.00195l-22 -11.5c-8.33301 -4.33301 -18.5 -8.16602 -30.5 -11.499s-27.333 -5 -46 -5c-26 0 -50 3.66699 -72 11s-41 18.333 -57 33s-28.333 32.834 -37 54.501s-13 46.834 -13 75.501v316c0 5.33301 2 10 6 14
s8.66699 6 14 6h19c5.33301 0 10 -2 14 -6s6 -8.66699 6 -14v-316c0 -42 12.167 -71.667 36.5 -89s54.5 -26 90.5 -26c18 0 34.667 2.83301 50 8.5s28.833 13.5 40.5 23.5s20.667 21.667 27 35s9.5 27.666 9.5 42.999v321c0 5.33301 2 10 6 14s8.66699 6 14 6h19
c5.33301 0 10 -2 14 -6s6 -8.66699 6 -14v-460c0 -5.33301 -2 -10 -6 -14s-8.66699 -6 -14 -6h-16c-4.66699 -0 -9.33398 2.33301 -14.001 7l-10 10.5c-3.33301 3.66699 -8 5.5 -14 5.5z" />
    <glyph glyph-name="v" unicode="v" 
d="M432 485c3.33301 10 9.66797 15 19.001 15h26c8 0 13.667 -2.5 17 -7.5s4 -10.167 2 -15.5l-177 -462c-4 -10 -10.333 -15 -19 -15h-51c-8.66699 0 -15 5 -19 15l-177 462c-2 5.33301 -1.33301 10.5 2 15.5s9 7.5 17 7.5h26c9.33301 0 15.666 -5 18.999 -15l150 -405
c1.33301 -4 3.83301 -6 7.5 -6s6.16699 2 7.5 6z" />
    <glyph glyph-name="w" unicode="w" 
d="M291 390c10.667 0 17.0039 -5 19.0039 -15l49 -252c1.33301 -4 3.66602 -6 6.99902 -6s5.66602 2 6.99902 6l67 362c2 10 8.33301 15 19 15h21c8 0 13.5 -2.5 16.5 -7.5s3.83301 -10.167 2.5 -15.5l-94 -462c-2 -10 -8.33301 -15 -19 -15h-37c-10.667 0 -17 5 -19 15
l-49 258c-0.666992 3.33301 -2.66699 5 -6 5s-5.33301 -1.66699 -6 -5l-49 -258c-2 -10 -8.33301 -15 -19 -15h-37c-10.667 0 -17 5 -19 15l-94 462c-1.33301 5.33301 -0.5 10.5 2.5 15.5s8.5 7.5 16.5 7.5h21c10.667 0 17 -5 19 -15l67 -362
c1.33301 -4 3.66602 -6 6.99902 -6s5.66602 2 6.99902 6l49 252c2 10 8.33301 15 19 15h32z" />
    <glyph glyph-name="x" unicode="x" 
d="M150 10c-1.33301 -2.66699 -3.5 -5 -6.5 -7s-8.16699 -3 -15.5 -3h-24c-9.33301 0 -15.666 3.5 -18.999 10.5s-2.33301 14.5 3 22.5l149 227c2.66699 4.66699 3 9 1 13l-133 194c-5.33301 8 -6.33301 15.5 -3 22.5s9.66602 10.5 18.999 10.5h22
c7.33301 0 12.5 -1 15.5 -3s5.16699 -4.33301 6.5 -7l106 -165c2.66699 -5.33301 5.33398 -5.33301 8.00098 0l106 165c1.33301 2.66699 3.5 5 6.5 7s8.16699 3 15.5 3h22c9.33301 0 15.666 -3.5 18.999 -10.5s2.33301 -14.5 -3 -22.5l-133 -194
c-2 -4 -1.66699 -8.33301 1 -13l149 -227c5.33301 -8 6.33301 -15.5 3 -22.5s-9.66602 -10.5 -18.999 -10.5h-24c-7.33301 0 -12.5 1 -15.5 3s-5.16699 4.33301 -6.5 7l-121 190c-2.66699 5.33301 -5.33398 5.33301 -8.00098 0z" />
    <glyph glyph-name="y" unicode="y" 
d="M281 117c2.66699 -6.66699 5.33398 -6.66602 8.00098 0.000976562l134 368c3.33301 10 9.66602 15 18.999 15h28c8 0 13.667 -2.5 17 -7.5s4 -10.167 2 -15.5l-254 -662c-3.33301 -10 -9.66602 -15 -18.999 -15h-22c-8 0 -13.667 2.5 -17 7.5s-4 10.167 -2 15.5l74 201
c2 5.33301 2.33301 9.66602 1 12.999l-189 440c-2 5.33301 -1.33301 10.5 2 15.5s9 7.5 17 7.5h28c9.33301 0 15.666 -5 18.999 -15z" />
    <glyph glyph-name="z" unicode="z" 
d="M385 432c2 2.66699 2.5 4.99902 1.5 6.99902s-3.16699 3 -6.5 3h-270c-5.33301 0 -10 2 -14 6s-6 8.66699 -6 14v18c0 5.33301 2 10 6 14s8.66699 6 14 6h330c5.33301 0 10 -2 14 -6s6 -8.66699 6 -14v-29c0 -9.33301 -2.16699 -17.166 -6.5 -23.499
s-8.83301 -12.166 -13.5 -17.499l-284 -342c-2 -2.66699 -2.5 -5 -1.5 -7s3.16699 -3 6.5 -3h289c5.33301 0 10 -2 14 -6s6 -8.66699 6 -14v-18c0 -5.33301 -2 -10 -6 -14s-8.66699 -6 -14 -6h-350c-5.33301 0 -10 2 -14 6s-6 8.66699 -6 14v31
c0 6.66699 0.666992 11.667 2 15s5 8.66602 11 15.999z" />
    <glyph glyph-name="braceleft" unicode="{" 
d="M206 260c0 5.33301 -1.83301 9.50488 -5.5 12.5049s-7.83398 5.5 -12.501 7.5l-11 5c-5.33301 2 -10 4.5 -14 7.5s-6 7.16699 -6 12.5v30c0 5.33301 2 9.5 6 12.5s8.66699 5.5 14 7.5l11 5c4.66699 2 8.83398 4.5 12.501 7.5s5.5 7.16699 5.5 12.5v130
c0 27.333 4.5 53.666 13.5 78.999s22.167 47.666 39.5 66.999s38.666 34.833 63.999 46.5s54.666 17.5 87.999 17.5h42c5.33301 0 10 -2 14 -6s6 -8.66699 6 -14v-17c0 -5.33301 -2 -10 -6 -14s-8.66699 -6 -14 -6h-42c-23.333 0 -44.166 -4 -62.499 -12
s-33.666 -19 -45.999 -33s-21.666 -30.333 -27.999 -49s-9.5 -38.334 -9.5 -59.001v-125c0 -8.66699 -1.5 -16.5 -4.5 -23.5s-6.66699 -13.333 -11 -19s-8.83301 -10.334 -13.5 -14.001s-8.66699 -6.5 -12 -8.5c3.33301 -2 7.33301 -5 12 -9s9.16699 -8.66699 13.5 -14
s8 -11.5 11 -18.5s4.5 -14.833 4.5 -23.5v-135c0 -21.333 3.16699 -41.166 9.5 -59.499s15.666 -34.5 27.999 -48.5s27.666 -25 45.999 -33s39.166 -12 62.499 -12h52c5.33301 0 10 -2 14 -6s6 -8.66699 6 -14v-17c0 -5.33301 -2 -10 -6 -14s-8.66699 -6 -14 -6h-52
c-33.333 0 -62.666 5.83301 -87.999 17.5s-46.666 27.167 -63.999 46.5s-30.5 41.666 -39.5 66.999s-13.5 51.666 -13.5 78.999v140z" />
    <glyph glyph-name="bar" unicode="|" 
d="M302 -50c0 -5.33301 -2 -10 -6 -14s-8.66699 -6 -14 -6h-15c-5.33301 0 -10 2 -14 6s-6 8.66699 -6 14v750c0 5.33301 2 10 6 14s8.66699 6 14 6h15c5.33301 0 10 -2 14 -6s6 -8.66699 6 -14v-750z" />
    <glyph glyph-name="braceright" unicode="}" 
d="M344 120c0 -27.333 -4.5 -53.6709 -13.5 -79.0039s-22.167 -47.666 -39.5 -66.999s-38.833 -34.833 -64.5 -46.5s-54.834 -17.5 -87.501 -17.5h-52c-5.33301 0 -10 2 -14 6s-6 8.66699 -6 14v17c0 5.33301 2 10 6 14s8.66699 6 14 6h52c23.333 0 44.166 4 62.499 12
s33.666 19 45.999 33s21.666 30.167 27.999 48.5s9.5 38.166 9.5 59.499v135c0 8.66699 1.5 16.5 4.5 23.5s6.66699 13.167 11 18.5s8.83301 10 13.5 14s8.66699 7 12 9c-3.33301 2 -7.33301 4.83301 -12 8.5s-9.16699 8.33398 -13.5 14.001s-8 12 -11 19
s-4.5 14.833 -4.5 23.5v125c0 20.667 -3.16699 40.334 -9.5 59.001s-15.666 35 -27.999 49s-27.666 25 -45.999 33s-39.166 12 -62.499 12h-42c-5.33301 0 -10 2 -14 6s-6 8.66699 -6 14v17c0 5.33301 2 10 6 14s8.66699 6 14 6h42c32.667 0 61.834 -5.83301 87.501 -17.5
s47.167 -27.167 64.5 -46.5s30.5 -41.666 39.5 -66.999s13.5 -51.666 13.5 -78.999v-130c0 -5.33301 1.83301 -9.5 5.5 -12.5s7.83398 -5.5 12.501 -7.5l11 -5c5.33301 -2 10 -4.5 14 -7.5s6 -7.16699 6 -12.5v-30c0 -5.33301 -2 -9.5 -6 -12.5s-8.66699 -5.5 -14 -7.5
l-11 -5c-4.66699 -2 -8.83398 -4.5 -12.501 -7.5s-5.5 -7.16699 -5.5 -12.5v-140z" />
    <glyph glyph-name="asciitilde" unicode="~" 
d="M161 248c-11.333 0 -23.1641 -2.5 -35.4971 -7.5s-21.166 -11.167 -26.499 -18.5c-5.33301 -6.66699 -11.5 -9.33398 -18.5 -8.00098s-10.5 7 -10.5 17v24c0 18 8.83301 32.667 26.5 44s39.167 17 64.5 17c26 0 47.5 -2.33301 64.5 -7s33 -9.83398 48 -15.501
s31.167 -10.834 48.5 -15.501s39.666 -7 66.999 -7c11.333 0 23.166 2.5 35.499 7.5s21.166 11.167 26.499 18.5c5.33301 6.66699 11.5 9.33398 18.5 8.00098s10.5 -7 10.5 -17v-24c0 -18 -8.83301 -32.667 -26.5 -44s-39.167 -17 -64.5 -17c-26 0 -47.5 2.33301 -64.5 7
s-33 9.83398 -48 15.501s-31.333 10.834 -49 15.501s-39.834 7 -66.501 7z" />
    <glyph glyph-name="exclamdown" unicode="&#xa1;" 
d="M334 -170c0 -5.33301 -2 -10 -6 -14s-8.66699 -6 -14 -6h-20c-5.33301 0 -10 2 -14 6s-6 8.66699 -6 14v470c0 5.33301 2 10 6 14s8.66699 6 14 6h20c5.33301 0 10 -2 14 -6s6 -8.66699 6 -14v-470zM352 431c0 -4 -1.5 -7.66699 -4.5 -11s-6.83301 -5 -11.5 -5h-62
c-4.66699 0 -8.5 1.66699 -11.5 5s-4.5 7 -4.5 11v63c0 10.667 5.33301 16 16 16h62c10.667 0 16 -5.33301 16 -16v-63z" />
    <glyph glyph-name="cent" unicode="&#xa2;" 
d="M324 -7c-6.66699 -0.666992 -10.001 -3.99902 -10.001 -9.99902v-33c0 -5.33301 -2 -10 -6 -14s-8.66699 -6 -14 -6h-22c-5.33301 0 -10 2 -14 6s-6 8.66699 -6 14v33c0 6 -3.33301 9.33301 -10 10c-24 4 -45.5 11.667 -64.5 23s-35.333 25.333 -49 42
s-24.5 35.334 -32.5 56.001s-13 42.667 -15 66c-1.33301 20 -2 43.333 -2 70s0.666992 50 2 70c2 22.667 7 44.5 15 65.5s18.833 39.667 32.5 56s30 30.333 49 42s40.5 19.5 64.5 23.5c6.66699 0.666992 10 4 10 10v33c0 5.33301 2 10 6 14s8.66699 6 14 6h22
c5.33301 0 10 -2 14 -6s6 -8.66699 6 -14v-33c0 -6 3.33301 -9.33301 10 -10c44.667 -8 80.334 -27.167 107.001 -57.5s40 -66.833 40 -109.5c0 -5.33301 -1.5 -10 -4.5 -14s-7.16699 -6 -12.5 -6h-29c-4.66699 0 -9 1.33301 -13 4s-6 6.66699 -6 12
c0 12.667 -2.5 25.5 -7.5 38.5s-12.667 24.833 -23 35.5s-23.166 19.167 -38.499 25.5s-33.333 9.5 -54 9.5c-23.333 0 -43.333 -4 -60 -12s-30.334 -18.167 -41.001 -30.5s-18.834 -25.833 -24.501 -40.5s-8.83398 -28.667 -9.50098 -42c-1.33301 -20.667 -2 -44 -2 -70
s0.666992 -49.333 2 -70c0.666992 -13.333 3.83398 -27.333 9.50098 -42s13.834 -28.167 24.501 -40.5s24.334 -22.5 41.001 -30.5s36.667 -12 60 -12c20 0 37.667 3.16699 53 9.5s28.166 14.666 38.499 24.999s18 21.833 23 34.5s7.5 25.667 7.5 39
c0 6.66699 2 11.167 6 13.5s8.33301 3.5 13 3.5h27c5.33301 0 10 -2 14 -6s6 -8.66699 6 -14c0 -21.333 -3.5 -41.333 -10.5 -60s-16.833 -35.334 -29.5 -50.001s-28.167 -27 -46.5 -37s-38.5 -16.667 -60.5 -20z" />
    <glyph glyph-name="sterling" unicode="&#xa3;" 
d="M472 530c0 -5.33301 -1.99805 -9.99902 -5.99805 -13.999s-8.66699 -6 -14 -6h-23c-5.33301 0 -10 2 -14 6s-6 8.66699 -6 14v10c0 10.667 -1.5 22.167 -4.5 34.5s-8.33301 23.833 -16 34.5s-17.667 19.5 -30 26.5s-27.833 10.5 -46.5 10.5s-34 -3.5 -46 -10.5
s-21.333 -15.833 -28 -26.5s-11.334 -22.167 -14.001 -34.5s-4 -23.833 -4 -34.5v-142c0 -6.66699 3.33301 -10 10 -10h154c5.33301 0 10 -2 14 -6s6 -8.66699 6 -14v-20c0 -5.33301 -2 -10 -6 -14s-8.66699 -6 -14 -6h-154c-3.33301 0 -5.83301 -1.16699 -7.5 -3.5
s-2.5 -5.16602 -2.5 -8.49902v-106c0 -30 -3.5 -57.833 -10.5 -83.5s-15.167 -43.834 -24.5 -54.501c-2 -2 -2.66699 -3.83301 -2 -5.5s2.66699 -2.5 6 -2.5h283c5.33301 0 10 -2 14 -6s6 -8.66699 6 -14v-24c0 -5.33301 -2 -10 -6 -14s-8.66699 -6 -14 -6h-394
c-6 0 -11 2 -15 6s-6 8.66699 -6 14v27c0 5.33301 2 10 6 14s8.66699 6 14 6h5c10 0 19.5 3.66699 28.5 11s16.833 17.5 23.5 30.5s12 28.167 16 45.5s6 36 6 56v106c0 3.33301 -0.833008 6.16602 -2.5 8.49902s-4.16699 3.5 -7.5 3.5h-60c-5.33301 0 -10 2 -14 6
s-6 8.66699 -6 14v20c0 5.33301 2 10 6 14s8.66699 6 14 6h60c6.66699 0 10 3.33301 10 10v142c0 23.333 3.66699 45.333 11 66s17.833 38.667 31.5 54s30.167 27.5 49.5 36.5s40.666 13.5 63.999 13.5s44.833 -4.5 64.5 -13.5s36.5 -21.167 50.5 -36.5s25 -33.333 33 -54
s12 -42.667 12 -66v-10z" />
    <glyph glyph-name="currency" unicode="&#xa4;" 
d="M502 535c3.33301 -3.33301 5.00488 -8.00098 5.00488 -14.001s-1.66699 -10.667 -5 -14l-70 -70c13.333 -18 24 -38 32 -60s12 -45 12 -69c0 -25.333 -4 -49 -12 -71s-19 -42.333 -33 -61l71 -71c3.33301 -3.33301 5 -8 5 -14s-1.66699 -10.667 -5 -14l-14 -14
c-9.33301 -8 -18.666 -8 -27.999 0l-72 71c-17.333 -13.333 -35.833 -23.666 -55.5 -30.999s-40.5 -11 -62.5 -11c-22.667 0 -43.834 3.83301 -63.501 11.5s-38.167 18.167 -55.5 31.5l-73 -72c-4 -4 -8.66699 -6 -14 -6s-10 2 -14 6l-14 14c-3.33301 3.33301 -5 8 -5 14
s1.66699 10.667 5 14l72 73c-14 18 -24.833 38 -32.5 60s-11.5 45.333 -11.5 70c0 24 3.66699 46.833 11 68.5s17.666 41.5 30.999 59.5l-70 71c-3.33301 3.33301 -5 8 -5 14s1.66699 10.667 5 14l14 14c9.33301 8 18.666 8 27.999 0l70 -71
c17.333 14 36.166 25.167 56.499 33.5s42.166 12.5 65.499 12.5c22.667 0 44 -4 64 -12s38.667 -18.667 56 -32l70 69c9.33301 9.33301 18.666 9.33301 27.999 0zM122.005 307.999c0 -22 3.83301 -42.5 11.5 -61.5s18.167 -35.5 31.5 -49.5s29 -25.167 47 -33.5
s37 -12.5 57 -12.5s39 4.16699 57 12.5s33.667 19.5 47 33.5s23.833 30.5 31.5 49.5s11.5 39.5 11.5 61.5s-3.83301 42.5 -11.5 61.5s-18.167 35.5 -31.5 49.5s-29 25.167 -47 33.5s-37 12.5 -57 12.5s-39 -4.16699 -57 -12.5s-33.667 -19.5 -47 -33.5
s-23.833 -30.5 -31.5 -49.5s-11.5 -39.5 -11.5 -61.5z" />
    <glyph glyph-name="yen" unicode="&#xa5;" 
d="M66 672c-3.33301 7.33301 -3.16504 13.833 0.501953 19.5s8.83398 8.5 15.501 8.5h32c9.33301 0 15.666 -5 18.999 -15l139 -357c2.66699 -6.66699 5.33398 -6.66699 8.00098 0l137 357c3.33301 10 9.66602 15 18.999 15h32c6.66699 0 11.834 -2.83301 15.501 -8.5
s3.83398 -12.167 0.500977 -19.5l-105 -259c-1.33301 -3.33301 -1.33301 -6.16602 0 -8.49902s3.66602 -3.5 6.99902 -3.5h54c5.33301 0 10 -2 14 -6s6 -8.66699 6 -14v-16c0 -5.33301 -2 -10 -6 -14s-8.66699 -6 -14 -6h-82c-4.66699 0 -7.66699 -1.66699 -9 -5l-12 -30
c-1.33301 -3.33301 -1.33301 -6.16602 0 -8.49902s3.66602 -3.5 6.99902 -3.5h96c5.33301 0 10 -2 14 -6s6 -8.66699 6 -14v-16c0 -5.33301 -2 -10 -6 -14s-8.66699 -6 -14 -6h-121c-6.66699 0 -10 -3.33301 -10 -10v-212c0 -5.33301 -2 -10 -6 -14s-8.66699 -6 -14 -6h-26
c-5.33301 0 -10 2 -14 6s-6 8.66699 -6 14v212c0 6.66699 -3.33301 10 -10 10h-123c-5.33301 0 -10 2 -14 6s-6 8.66699 -6 14v16c0 5.33301 2 10 6 14s8.66699 6 14 6h97c3.33301 0 5.66602 1.16699 6.99902 3.5s1.33301 5.16602 0 8.49902l-12 30
c-1.33301 3.33301 -4.33301 5 -9 5h-83c-5.33301 0 -10 2 -14 6s-6 8.66699 -6 14v16c0 5.33301 2 10 6 14s8.66699 6 14 6h55c3.33301 0 5.66602 1.16699 6.99902 3.5s1.33301 5.16602 0 8.49902z" />
    <glyph glyph-name="brokenbar" unicode="&#xa6;" 
d="M306 420c0 -5.33301 -2 -10 -6 -14s-8.66699 -6 -14 -6h-22c-5.33301 0 -10 2 -14 6s-6 8.66699 -6 14v267c0 5.33301 2 10 6 14s8.66699 6 14 6h22c5.33301 0 10 -2 14 -6s6 -8.66699 6 -14v-267zM306 20c0 -5.33301 -2 -10 -6 -14s-8.66699 -6 -14 -6h-22
c-5.33301 0 -10 2 -14 6s-6 8.66699 -6 14v267c0 5.33301 2 10 6 14s8.66699 6 14 6h22c5.33301 0 10 -2 14 -6s6 -8.66699 6 -14v-267z" />
    <glyph glyph-name="section" unicode="&#xa7;" 
d="M335 79c5.33301 -4 11.167 -6 17.5 -6s12.166 2 17.499 6c13.333 11.333 24.5 26.5 33.5 45.5s13.5 36.5 13.5 52.5c0 10.667 -3.16699 23.667 -9.5 39s-17.166 30.333 -32.499 45l-151 136c-5.33301 5.33301 -11.333 7.83301 -18 7.5s-12.667 -2.83301 -18 -7.5
c-12.667 -11.333 -25.167 -25.333 -37.5 -42s-18.5 -33.667 -18.5 -51c0 -11.333 3 -24 9 -38s15.667 -27 29 -39zM415.001 310c20 -18 35.6709 -38.1631 47.0039 -60.4961s17 -46.166 17 -71.499s-6.66699 -50.333 -20 -75s-29.666 -44.334 -48.999 -59.001
c-6 -5.33301 -9.33301 -11.166 -10 -17.499s1.66602 -13.166 6.99902 -20.499c9.33301 -12 15.833 -24.333 19.5 -37s5.5 -25.667 5.5 -39c0 -24.667 -4.5 -46.5 -13.5 -65.5s-21.167 -35 -36.5 -48s-33 -22.833 -53 -29.5s-41 -10 -63 -10c-24 0 -46 3.33301 -66 10
s-37.333 16.667 -52 30s-26.167 30.166 -34.5 50.499s-12.5 44.166 -12.5 71.499v41c0 5.33301 2 10 6 14s8.66699 6 14 6h21c5.33301 0 10 -2 14 -6s6 -8.66699 6 -14v-41c0 -30.667 9.16699 -55.667 27.5 -75s43.833 -29 76.5 -29c13.333 0 26 1.66699 38 5
s22.5 8.66602 31.5 15.999s16 17.166 21 29.499s7.5 27.166 7.5 44.499s-5.16699 32.5 -15.5 45.5s-21.5 24.833 -33.5 35.5l-93 80.5l-92 83.5c-21.333 19.333 -36.5 38.833 -45.5 58.5s-13.5 44.167 -13.5 73.5c0 24 6.5 46.833 19.5 68.5s30.167 40.167 51.5 55.5
c15.333 11.333 16.666 24.333 3.99902 39c-11.333 13.333 -19 27.166 -23 41.499s-6 29.5 -6 45.5c0 25.333 4.5 47.666 13.5 66.999s21.167 35.5 36.5 48.5s33 22.833 53 29.5s41 10 63 10c24 0 45.833 -3.83301 65.5 -11.5s36.5 -18.5 50.5 -32.5s25 -31 33 -51
s12 -42.333 12 -67v-30c0 -5.33301 -2 -10 -6 -14s-8.66699 -6 -14 -6h-21c-5.33301 0 -10 2 -14 6s-6 8.66699 -6 14v30c0 12.667 -2 25.167 -6 37.5s-10.167 23.333 -18.5 33s-18.833 17.5 -31.5 23.5s-27.334 9 -44.001 9c-18 0 -33.333 -2.5 -46 -7.5
s-22.834 -11.833 -30.501 -20.5s-13.334 -18.667 -17.001 -30s-5.5 -23.333 -5.5 -36c0 -16.667 4.16699 -31.667 12.5 -45s18.833 -25.666 31.5 -36.999z" />
    <glyph glyph-name="dieresis" unicode="&#xa8;" 
d="M231 638c0 -10.667 -5.33301 -16 -16 -16h-52c-10.667 0 -16 5.33301 -16 16v53c0 4 1.5 7.66699 4.5 11s6.83301 5 11.5 5h52c4.66699 0 8.5 -1.66699 11.5 -5s4.5 -7 4.5 -11v-53zM402 638c0 -10.667 -5.33301 -16 -16 -16h-52c-10.667 0 -16 5.33301 -16 16v53
c0 4 1.5 7.66699 4.5 11s6.83301 5 11.5 5h52c4.66699 0 8.5 -1.66699 11.5 -5s4.5 -7 4.5 -11v-53z" />
    <glyph glyph-name="copyright" unicode="&#xa9;" 
d="M18 350c0 35.333 6.66699 68.666 20 99.999s31.666 58.5 54.999 81.5s50.666 41.167 81.999 54.5s64.666 20 99.999 20s68.666 -6.66699 99.999 -20s58.5 -31.5 81.5 -54.5s41.167 -50.167 54.5 -81.5s20 -64.666 20 -99.999s-6.66699 -68.666 -20 -99.999
s-31.5 -58.666 -54.5 -81.999s-50.167 -41.666 -81.5 -54.999s-64.666 -20 -99.999 -20s-68.666 6.66699 -99.999 20s-58.666 31.666 -81.999 54.999s-41.666 50.666 -54.999 81.999s-20 64.666 -20 99.999zM69 350c0 -28.667 5.33301 -55.5 16 -80.5
s25.334 -46.833 44.001 -65.5s40.5 -33.334 65.5 -44.001s51.833 -16 80.5 -16c28 0 54.5 5.33301 79.5 16s46.833 25.334 65.5 44.001s33.334 40.5 44.001 65.5s16 51.833 16 80.5c0 28 -5.33301 54.5 -16 79.5s-25.334 46.833 -44.001 65.5s-40.5 33.334 -65.5 44.001
s-51.5 16 -79.5 16c-28.667 0 -55.5 -5.33301 -80.5 -16s-46.833 -25.334 -65.5 -44.001s-33.334 -40.5 -44.001 -65.5s-16 -51.5 -16 -79.5zM368 305c0 -28.667 -8.99805 -52.4961 -26.998 -71.4961s-41.667 -28.5 -71 -28.5c-32.667 0 -57.167 10.667 -73.5 32
s-25.833 47.666 -28.5 78.999c-1.33301 11.333 -2 21.666 -2 30.999s0.666992 19.666 2 30.999c2 30.667 11.667 56.834 29 78.501s41.666 32.5 72.999 32.5c29.333 0 53 -9.5 71 -28.5s27 -42.833 27 -71.5c0 -7.33301 -3 -11 -9 -11h-30c-2.66699 0 -5.16699 0.5 -7.5 1.5
s-3.5 3.16699 -3.5 6.5c0 17.333 -4.66699 31.166 -14 41.499s-20.666 15.5 -33.999 15.5c-16 0 -28.667 -6.16699 -38 -18.5s-14.666 -27.833 -15.999 -46.5c-1.33301 -12.667 -2 -23 -2 -31s0.666992 -18.333 2 -31c1.33301 -18.667 6.66602 -34.167 15.999 -46.5
s22 -18.5 38 -18.5c13.333 0 24.5 4.66699 33.5 14s13.5 23.333 13.5 42c0 3.33301 1.16699 5.66602 3.5 6.99902s5.16602 2 8.49902 2h27c3.33301 0 6.16602 -1 8.49902 -3s3.5 -4.66699 3.5 -8z" />
    <glyph glyph-name="ordfeminine" unicode="&#xaa;" 
d="M220 565c-12.667 0 -22.167 -3.49902 -28.5 -10.499s-9.5 -15.833 -9.5 -26.5c0 -24.667 14.667 -37 44 -37c26 0 43.667 5.16699 53 15.5s14 24.166 14 41.499v12c0 3.33301 -1.66699 5 -5 5h-68zM241 665.001c-13.333 0 -24.835 -2.49902 -34.502 -7.49902
s-14.5 -12.167 -14.5 -21.5c0 -4 -1.33301 -6.33301 -4 -7s-5 -1 -7 -1h-22c-6.66699 0 -10 3.33301 -10 10c0 11.333 2.83301 21.333 8.5 30s12.834 16 21.501 22s18.5 10.5 29.5 13.5s21.833 4.5 32.5 4.5c24.667 0 46.667 -7.83301 66 -23.5s29 -37.834 29 -66.501v-155
c0 -6.66699 -3.33301 -10 -10 -10h-15c-2.66699 0 -5 1 -7 3c-1.33301 2 -2.66602 4.33301 -3.99902 7s-3.33301 4 -6 4c-4.66699 0 -12.167 -3.16699 -22.5 -9.5s-24.833 -9.5 -43.5 -9.5c-30.667 0 -53.5 8 -68.5 24s-22.5 34.667 -22.5 56
c0 20.667 7.16699 39.167 21.5 55.5s34.833 24.5 61.5 24.5h66c3.33301 0 5 1.66699 5 5v12c0 10.667 -4.33301 20 -13 28s-21 12 -37 12z" />
    <glyph glyph-name="guillemotleft" unicode="&#xab;" 
d="M212 435c1.33301 2.66699 4 5.83203 8 9.49902s9.66699 5.5 17 5.5h19c9.33301 0 16 -3 20 -9s2.66699 -14 -4 -24l-85 -145c-5.33301 -7.33301 -5.33301 -15.333 0 -24l85 -145c6.66699 -10 8 -18 4 -24s-10.667 -9 -20 -9h-19c-7.33301 0 -13 1.83301 -17 5.5
s-6.66699 6.83398 -8 9.50098l-96 161c-3.33301 5.33301 -5 10 -5 14s1.66699 8.66699 5 14zM374 434.998c1.33301 2.66699 4 5.83203 8 9.49902s9.66699 5.5 17 5.5h19c9.33301 0 16 -3 20 -9s2.66699 -14 -4 -24l-85 -145c-5.33301 -7.33301 -5.33301 -15.333 0 -24
l85 -145c6.66699 -10 8 -18 4 -24s-10.667 -9 -20 -9h-19c-7.33301 0 -13 1.83301 -17 5.5s-6.66699 6.83398 -8 9.50098l-96 161c-3.33301 5.33301 -5 10 -5 14s1.66699 8.66699 5 14z" />
    <glyph glyph-name="logicalnot" unicode="&#xac;" 
d="M430 230c0 6.66699 -3.33301 10 -10 10h-340c-5.33301 0 -10 2 -14 6s-6 8.66699 -6 14v20c0 5.33301 2 10 6 14s8.66699 6 14 6h390c5.33301 0 10 -2 14 -6s6 -8.66699 6 -14v-170c0 -5.33301 -2 -10 -6 -14s-8.66699 -6 -14 -6h-20c-5.33301 0 -10 2 -14 6
s-6 8.66699 -6 14v120z" />
    <glyph glyph-name="registered" unicode="&#xae;" 
d="M18 350c0 35.333 6.66699 68.666 20 99.999s31.666 58.5 54.999 81.5s50.666 41.167 81.999 54.5s64.666 20 99.999 20s68.666 -6.66699 99.999 -20s58.5 -31.5 81.5 -54.5s41.167 -50.167 54.5 -81.5s20 -64.666 20 -99.999s-6.66699 -68.666 -20 -99.999
s-31.5 -58.666 -54.5 -81.999s-50.167 -41.666 -81.5 -54.999s-64.666 -20 -99.999 -20s-68.666 6.66699 -99.999 20s-58.666 31.666 -81.999 54.999s-41.666 50.666 -54.999 81.999s-20 64.666 -20 99.999zM69 350c0 -28.667 5.33301 -55.5 16 -80.5
s25.334 -46.833 44.001 -65.5s40.5 -33.334 65.5 -44.001s51.833 -16 80.5 -16c28 0 54.5 5.33301 79.5 16s46.833 25.334 65.5 44.001s33.334 40.5 44.001 65.5s16 51.833 16 80.5c0 28 -5.33301 54.5 -16 79.5s-25.334 46.833 -44.001 65.5s-40.5 33.334 -65.5 44.001
s-51.5 16 -79.5 16c-28.667 0 -55.5 -5.33301 -80.5 -16s-46.833 -25.334 -65.5 -44.001s-33.334 -40.5 -44.001 -65.5s-16 -51.5 -16 -79.5zM234 442c-1.33301 0 -2.66602 -0.5 -3.99902 -1.5s-2 -2.5 -2 -4.5v-71c0 -1.33301 0.666992 -2.33301 2 -3
s2.66602 -1 3.99902 -1h60c13.333 0 24 4.33301 32 13s12 18 12 28c0 9.33301 -3.5 18.333 -10.5 27s-18.167 13 -33.5 13h-60zM341 331c-5.33301 -3.33301 -9.00098 -5.49805 -11.001 -6.49805s-1.66699 -4.16699 1 -9.5l43 -83c2.66699 -4 3.16699 -7.66699 1.5 -11
s-5.16699 -5 -10.5 -5h-22c-4.66699 0 -8 1 -10 3s-4 4.66699 -6 8l-41 83c-1.33301 4.66699 -4.33301 7 -9 7h-43c-1.33301 0 -2.66602 -0.5 -3.99902 -1.5s-2 -2.16699 -2 -3.5v-85c0 -7.33301 -3.33301 -11 -10 -11h-25c-2 0 -4 1 -6 3s-3 4.66699 -3 8v247
c0 3.33301 1 6 3 8s4 3 6 3h103c12 0 23.167 -2.33301 33.5 -7s19.5 -10.834 27.5 -18.501s14.167 -16.334 18.5 -26.001s6.5 -19.834 6.5 -30.501c0 -18 -3.83301 -32.667 -11.5 -44s-17.5 -20.666 -29.5 -27.999z" />
    <glyph glyph-name="macron" unicode="&#xaf;" 
d="M170 634c-5.33301 0 -10 2 -14 6s-6 8.66699 -6 14v20c0 5.33301 2 10 6 14s8.66699 6 14 6h242c5.33301 0 10 -2 14 -6s6 -8.66699 6 -14v-20c0 -5.33301 -2 -10 -6 -14s-8.66699 -6 -14 -6h-242z" />
    <glyph glyph-name="degree" unicode="&#xb0;" 
d="M126 585c0 20.667 3.83301 40 11.5 58s18.334 33.667 32.001 47s29.5 23.833 47.5 31.5s37.333 11.5 58 11.5s40 -3.83301 58 -11.5s33.667 -18.167 47 -31.5s23.833 -29 31.5 -47s11.5 -37.333 11.5 -58s-3.83301 -40 -11.5 -58s-18.167 -33.833 -31.5 -47.5
s-29 -24.334 -47 -32.001s-37.333 -11.5 -58 -11.5s-40 3.83301 -58 11.5s-33.833 18.334 -47.5 32.001s-24.334 29.5 -32.001 47.5s-11.5 37.333 -11.5 58zM182 585c0 -12 2.5 -23.667 7.5 -35s11.833 -21.333 20.5 -30s18.667 -15.5 30 -20.5s23 -7.5 35 -7.5
s23.667 2.5 35 7.5s21.333 11.833 30 20.5s15.5 18.667 20.5 30s7.5 23 7.5 35s-2.5 23.667 -7.5 35s-11.833 21.333 -20.5 30s-18.667 15.5 -30 20.5s-23 7.5 -35 7.5s-23.667 -2.5 -35 -7.5s-21.333 -11.833 -30 -20.5s-15.5 -18.667 -20.5 -30s-7.5 -23 -7.5 -35z" />
    <glyph glyph-name="plusminus" unicode="&#xb1;" 
d="M234 449c6.66699 0 10 3.33301 10 10v159c0 5.33301 2 10 6 14s8.66699 6 14 6h22c5.33301 0 10 -2 14 -6s6 -8.66699 6 -14v-159c0 -6.66699 3.33301 -10 10 -10h159c5.33301 0 10 -2 14 -6s6 -8.66699 6 -14v-21c0 -5.33301 -2 -10 -6 -14s-8.66699 -6 -14 -6h-159
c-6.66699 0 -10 -3.33301 -10 -10v-160c0 -5.33301 -2 -10 -6 -14s-8.66699 -6 -14 -6h-22c-5.33301 0 -10 2 -14 6s-6 8.66699 -6 14v160c0 6.66699 -3.33301 10 -10 10h-159c-5.33301 0 -10 2 -14 6s-6 8.66699 -6 14v21c0 5.33301 2 10 6 14s8.66699 6 14 6h159zM472 70
c5.33301 0 10 -2 14 -6s6 -8.66699 6 -14v-30c0 -5.33301 -2 -10 -6 -14s-8.66699 -6 -14 -6h-394c-5.33301 0 -10 2 -14 6s-6 8.66699 -6 14v30c0 5.33301 2 10 6 14s8.66699 6 14 6h394z" />
    <glyph glyph-name="twosuperior" unicode="&#xb2;" 
d="M309 605c0 11.333 -3.33496 20.001 -10.002 26.001s-15.334 9 -26.001 9c-11.333 0 -20 -3.16699 -26 -9.5s-9 -14.833 -9 -25.5v-8c0 -6.66699 -3.33301 -10 -10 -10h-40c-6.66699 0 -10 3.33301 -10 10v8c0 26.667 9.16699 49.167 27.5 67.5s40.833 27.5 67.5 27.5
c14.667 0 27.834 -2.66699 39.501 -8s21.5 -12.333 29.5 -21s14.167 -18.834 18.5 -30.501s6.5 -23.5 6.5 -35.5c0 -38.667 -13 -73.667 -39 -105l-74 -88c-1.33301 -1.33301 -1.66602 -3 -0.999023 -5s2.33398 -3 5.00098 -3h107c2.66699 0 5 -0.5 7 -1.5
s3 -3.83301 3 -8.5v-38c0 -6.66699 -3.33301 -10 -10 -10h-181c-6.66699 0 -10 3.33301 -10 10v46c0 4 0.333008 6.83301 1 8.5s1.66699 3.16699 3 4.5l99 115c10.667 12 18.667 24 24 36s8 25 8 39z" />
    <glyph glyph-name="threesuperior" unicode="&#xb3;" 
d="M319 450c0 10.667 -3.16699 21.333 -9.5 32s-17.833 16 -34.5 16h-8c-6.66699 0 -10 3.33301 -10 10v41c0 6.66699 3.33301 10 10 10h8c14.667 0 24.334 4.5 29.001 13.5s7 18.167 7 27.5c0 14 -4 23.833 -12 29.5s-16.333 8.5 -25 8.5s-16.834 -3 -24.501 -9
s-11.5 -14 -11.5 -24v-8c0 -6.66699 -3.33301 -10 -10 -10h-42c-6.66699 0 -10 3.33301 -10 10v8c0 26.667 9.33301 49.167 28 67.5s42 27.5 70 27.5c13.333 0 26.166 -2.5 38.499 -7.5s23 -11.667 32 -20s16.167 -18.333 21.5 -30s8 -24.167 8 -37.5
c0 -14 -2.5 -27 -7.5 -39s-12.167 -22 -21.5 -30c-4.66699 -4.66699 -5 -8.66699 -1 -12c11.333 -9.33301 20.333 -20.833 27 -34.5s10 -28.5 10 -44.5c0 -28.667 -9.5 -53 -28.5 -73s-45.167 -30 -78.5 -30c-14.667 0 -28.5 2.66699 -41.5 8s-24.167 12.666 -33.5 21.999
s-16.833 20.333 -22.5 33s-8.5 26 -8.5 40v4c0 6.66699 3.33301 10 10 10h43c6.66699 0 10 -3.33301 10 -10v-4c0 -10.667 3.83301 -20 11.5 -28s18.167 -12 31.5 -12c16.667 0 28.334 4.83301 35.001 14.5s10 19.834 10 30.501z" />
    <glyph glyph-name="acute" unicode="&#xb4;" 
d="M349 730c6.66699 0 11 -2.66895 13 -8.00195s1.33301 -9.66602 -2 -12.999l-108 -112c-3.33301 -3.33301 -6.83301 -6.16602 -10.5 -8.49902s-10.167 -3.5 -19.5 -3.5h-19c-6.66699 0 -11.334 2.5 -14.001 7.5s-2.66699 9.16699 0 12.5l76 109
c2.66699 3.33301 5.83398 6.83301 9.50098 10.5s9.16699 5.5 16.5 5.5h58z" />
    <glyph glyph-name="uni00B5" unicode="&#xb5;" 
d="M89 480c0 5.33301 2.00098 10.001 6.00098 14.001s8.66699 6 14 6h19c5.33301 0 10 -2 14 -6s6 -8.66699 6 -14v-316c0 -42 12.167 -71.667 36.5 -89s54.5 -26 90.5 -26c18 0 34.667 2.83301 50 8.5s28.833 13.5 40.5 23.5s20.667 21.667 27 35s9.5 27.666 9.5 42.999
v321c0 5.33301 2 10 6 14s8.66699 6 14 6h19c5.33301 0 10 -2 14 -6s6 -8.66699 6 -14v-460c0 -5.33301 -2 -10 -6 -14s-8.66699 -6 -14 -6h-16c-4.66699 -0 -9.33398 2.33301 -14.001 7l-10 10.5c-3.33301 3.66699 -8 5.5 -14 5.5c-7.33301 0 -14.166 -1.66699 -20.499 -5
l-22 -11.5c-8.33301 -4.33301 -18.5 -8.16602 -30.5 -11.499s-27.333 -5 -46 -5c-11.333 0 -22 1.33301 -32 4s-19 5.5 -27 8.5l-22 8.5c-6.66699 2.66699 -12.334 4 -17.001 4c-7.33301 0 -12.833 -2.33301 -16.5 -7s-5.5 -9.33398 -5.5 -14.001v-174
c0 -5.33301 -2 -10 -6 -14s-8.66699 -6 -14 -6h-19c-5.33301 0 -10 2 -14 6s-6 8.66699 -6 14v660z" />
    <glyph glyph-name="paragraph" unicode="&#xb6;" 
d="M241 360c-22 0 -42.667 4.66699 -62 14s-36.333 21.666 -51 36.999s-26.167 33.333 -34.5 54s-12.5 42.334 -12.5 65.001c0 23.333 4.5 45.333 13.5 66s21.167 38.667 36.5 54s33.333 27.5 54 36.5s42.667 13.5 66 13.5h198c5.33301 0 10 -2 14 -6s6 -8.66699 6 -14v-760
c0 -5.33301 -2 -10 -6 -14s-8.66699 -6 -14 -6h-14c-5.33301 0 -10 2 -14 6s-6 8.66699 -6 14v721c0 6.66699 -3.33301 10 -10 10h-90c-6.66699 0 -10 -3.33301 -10 -10v-721c0 -5.33301 -2 -10 -6 -14s-8.66699 -6 -14 -6h-14c-5.33301 0 -10 2 -14 6s-6 8.66699 -6 14v430
c0 6.66699 -3.33301 10 -10 10z" />
    <glyph glyph-name="periodcentered" unicode="&#xb7;" 
d="M345 215c0 -5.33301 -2 -10 -6 -14s-8.66699 -6 -14 -6h-100c-5.33301 0 -10 2 -14 6s-6 8.66699 -6 14v100c0 5.33301 2 10 6 14s8.66699 6 14 6h100c5.33301 0 10 -2 14 -6s6 -8.66699 6 -14v-100z" />
    <glyph glyph-name="cedilla" unicode="&#xb8;" 
d="M297 -184c-2.66699 -10.667 -9 -16 -19 -16h-37c-6.66699 0 -11.334 1.83301 -14.001 5.5s-3.33398 7.83398 -2.00098 12.501l38 121c2.66699 10.667 9 16 19 16h27c6.66699 0 11.334 -1.83301 14.001 -5.5s3.33398 -7.83398 2.00098 -12.501z" />
    <glyph glyph-name="onesuperior" unicode="&#xb9;" 
d="M250 598c0 1.33301 -0.5 2.16699 -1.5 2.5s-1.83301 0.166016 -2.5 -0.500977l-73 -71c-1.33301 -1.33301 -3.33301 -2.16602 -6 -2.49902s-4 1.5 -4 5.5v56c0 4 1.16699 8 3.5 12s4.5 7 6.5 9l74 82c2 3.33301 5.33301 5 10 5h46c6.66699 0 10 -3.33301 10 -10v-277
c0 -3.33301 1.66699 -5 5 -5h59c6.66699 0 10 -3.33301 10 -10v-38c0 -6.66699 -3.33301 -10 -10 -10h-204c-6.66699 0 -10 3.33301 -10 10v38c0 6.66699 3.33301 10 10 10h72c3.33301 0 5 1.66699 5 5v189z" />
    <glyph glyph-name="ordmasculine" unicode="&#xba;" 
d="M235 661c-17.333 0 -30.833 -3.83301 -40.5 -11.5s-16.167 -17.5 -19.5 -29.5c-4 -13.333 -6.16699 -26.333 -6.5 -39s1.16699 -26.334 4.5 -41.001c2.66699 -13.333 9.5 -24.333 20.5 -33s24.833 -13 41.5 -13s30.5 4.33301 41.5 13s17.833 19.667 20.5 33
c3.33301 14.667 4.83301 28.334 4.5 41.001s-2.5 25.667 -6.5 39c-3.33301 12 -9.83301 21.833 -19.5 29.5s-23.167 11.5 -40.5 11.5zM235 708c12 0 23.8369 -1.66699 35.5039 -5s22.5 -8.66602 32.5 -15.999s18.667 -16.5 26 -27.5s12.666 -24.167 15.999 -39.5
c3.33301 -13.333 5 -27 5 -41s-1.33301 -27 -4 -39c-6.66699 -30.667 -20.834 -53.667 -42.501 -69s-44.5 -23 -68.5 -23s-46.833 7.66699 -68.5 23s-35.834 38.333 -42.501 69c-2.66699 12 -4 25 -4 39s1.66699 27.667 5 41c3.33301 15.333 8.66602 28.5 15.999 39.5
s16 20.167 26 27.5s20.833 12.666 32.5 15.999s23.5 5 35.5 5z" />
    <glyph glyph-name="guillemotright" unicode="&#xbb;" 
d="M435 274c3.33301 -5.33301 5 -10 5 -14s-1.66699 -8.66699 -5 -14l-96 -161c-1.33301 -2.66699 -4 -5.83398 -8 -9.50098s-9.66699 -5.5 -17 -5.5h-19c-9.33301 0 -15.833 2.83301 -19.5 8.5s-2.5 13.834 3.5 24.501l85 145c5.33301 8.66699 5.33301 16.667 0 24l-85 145
c-6 10.667 -7.16699 18.834 -3.5 24.501s10.167 8.5 19.5 8.5h19c7.33301 0 13 -1.83301 17 -5.5s6.66699 -6.83398 8 -9.50098zM273 274c3.33301 -5.33301 5 -10 5 -14s-1.66699 -8.66699 -5 -14l-96 -161c-1.33301 -2.66699 -4 -5.83398 -8 -9.50098
s-9.66699 -5.5 -17 -5.5h-19c-9.33301 0 -15.833 2.83301 -19.5 8.5s-2.5 13.834 3.5 24.501l85 145c5.33301 8.66699 5.33301 16.667 0 24l-85 145c-6 10.667 -7.16699 18.834 -3.5 24.501s10.167 8.5 19.5 8.5h19c7.33301 0 13 -1.83301 17 -5.5
s6.66699 -6.83398 8 -9.50098z" />
    <glyph glyph-name="onequarter" unicode="&#xbc;" 
d="M112 15c-6 -10 -13 -15 -21 -15h-15c-6.66699 -0 -12 2.83301 -16 8.5s-4 12.167 0 19.5l387 657c6 10 13.333 15 22 15h13c6.66699 0 12 -3 16 -9s4 -12.333 0 -19zM135 602c0 1.33301 -0.5 2.16699 -1.5 2.5s-1.83301 0.166016 -2.5 -0.500977l-73 -71
c-1.33301 -1.33301 -3.33301 -2.16602 -6 -2.49902s-4 1.16699 -4 4.5v57c0 4 1.16699 8 3.5 12s4.5 7 6.5 9l74 82c2 3.33301 5.33301 5 10 5h46c6.66699 0 10 -3.33301 10 -10v-329c0 -6.66699 -3.33301 -10 -10 -10h-45c-5.33301 0 -8 3.33301 -8 10v241zM493 115.001
c6.66699 0 10 -3.33301 10 -10v-35c0 -6.66699 -3.33301 -10 -10 -10h-20c-3.33301 0 -5 -1.66699 -5 -5v-45c0 -6.66699 -3.33301 -10 -10 -10h-37c-6.66699 0 -10 3.33301 -10 10v45c0 3.33301 -1.66699 5 -5 5h-130c-6.66699 0 -10 3.33301 -10 10v37
c0 2 0.833008 4 2.5 6s3.5 4.66699 5.5 8l132 222c2.66699 4.66699 6 7 10 7h42c6.66699 0 10 -3.33301 10 -10v-220c0 -3.33301 1.66699 -5 5 -5h20zM337 119.001c-1.33301 -2.66699 -0.666992 -3.99902 2 -3.99902h67c3.33301 0 5 1.66699 5 5v120
c0 1.33301 -0.666992 2.16602 -2 2.49902s-2.33301 -0.166992 -3 -1.5z" />
    <glyph glyph-name="onehalf" unicode="&#xbd;" 
d="M107 15c-6 -10 -13 -15 -21 -15h-15c-6.66699 -0 -12 2.83301 -16 8.5s-4 12.167 0 19.5l387 657c6 10 13.333 15 22 15h13c6.66699 0 12 -3 16 -9s4 -12.333 0 -19zM130 602c0 1.33301 -0.5 2.16699 -1.5 2.5s-1.83301 0.166016 -2.5 -0.500977l-73 -71
c-1.33301 -1.33301 -3.33301 -2.16602 -6 -2.49902s-4 1.16699 -4 4.5v57c0 4 1.16699 8 3.5 12s4.5 7 6.5 9l74 82c2 3.33301 5.33301 5 10 5h46c6.66699 0 10 -3.33301 10 -10v-329c0 -6.66699 -3.33301 -10 -10 -10h-45c-5.33301 0 -8 3.33301 -8 10v241zM457 259.001
c0 11.333 -3.33496 20.001 -10.002 26.001s-15.334 9 -26.001 9c-11.333 0 -20 -3.16699 -26 -9.5s-9 -14.833 -9 -25.5v-8c0 -6.66699 -3.33301 -10 -10 -10h-40c-6.66699 0 -10 3.33301 -10 10v8c0 26.667 9.16699 49.167 27.5 67.5s40.833 27.5 67.5 27.5
c14.667 0 27.834 -2.66699 39.501 -8s21.5 -12.333 29.5 -21s14.167 -18.834 18.5 -30.501s6.5 -23.5 6.5 -35.5c0 -38.667 -13 -73.667 -39 -105l-74 -88c-1.33301 -1.33301 -1.66602 -3 -0.999023 -5s2.33398 -3 5.00098 -3h107c2.66699 0 5 -0.5 7 -1.5
s3 -3.83301 3 -8.5v-38c0 -6.66699 -3.33301 -10 -10 -10h-181c-6.66699 0 -10 3.33301 -10 10v46c0 4 0.333008 6.83301 1 8.5s1.66699 3.16699 3 4.5l99 115c10.667 12 18.667 24 24 36s8 25 8 39z" />
    <glyph glyph-name="threequarters" unicode="&#xbe;" 
d="M117 15c-6 -10 -13 -15 -21 -15h-15c-6.66699 -0 -12 2.83301 -16 8.5s-4 12.167 0 19.5l387 657c6 10 13.333 15 22 15h13c6.66699 0 12 -3 16 -9s4 -12.333 0 -19zM493 115c6.66699 0 10 -3.33301 10 -10v-35c0 -6.66699 -3.33301 -10 -10 -10h-20
c-3.33301 0 -5 -1.66699 -5 -5v-45c0 -6.66699 -3.33301 -10 -10 -10h-37c-6.66699 -0 -10 3.33301 -10 10v45c0 3.33301 -1.66699 5 -5 5h-130c-6.66699 0 -10 3.33301 -10 10v37c0 2 0.833008 4 2.5 6s3.5 4.66699 5.5 8l132 222c2.66699 4.66699 6 7 10 7h42
c6.66699 0 10 -3.33301 10 -10v-220c0 -3.33301 1.66699 -5 5 -5h20zM337 119c-1.33301 -2.66699 -0.666992 -3.99902 2 -3.99902h67c3.33301 0 5 1.66699 5 5v120c0 1.33301 -0.666992 2.16602 -2 2.49902s-2.33301 -0.166992 -3 -1.5zM183.999 456.001
c0 10.667 -3.16699 21.333 -9.5 32s-17.833 16 -34.5 16h-8c-6.66699 0 -10 3.33301 -10 10v41c0 6.66699 3.33301 10 10 10h8c14.667 0 24.334 4.5 29.001 13.5s7 18.167 7 27.5c0 14 -4 23.833 -12 29.5s-16.333 8.5 -25 8.5s-16.834 -3 -24.501 -9s-11.5 -14 -11.5 -24
v-8c0 -6.66699 -3.33301 -10 -10 -10h-42c-6.66699 0 -10 3.33301 -10 10v8c0 26.667 9.33301 49.167 28 67.5s42 27.5 70 27.5c13.333 0 26.166 -2.5 38.499 -7.5s23 -11.667 32 -20s16.167 -18.333 21.5 -30s8 -24.167 8 -37.5c0 -14 -2.5 -27 -7.5 -39
s-12.167 -22 -21.5 -30c-4.66699 -4.66699 -5 -8.66699 -1 -12c11.333 -9.33301 20.333 -20.833 27 -34.5s10 -28.5 10 -44.5c0 -28.667 -9.5 -53 -28.5 -73s-45.167 -30 -78.5 -30c-14.667 0 -28.5 2.66699 -41.5 8s-24.167 12.666 -33.5 21.999s-16.833 20.333 -22.5 33
s-8.5 26 -8.5 40v4c0 6.66699 3.33301 10 10 10h43c6.66699 0 10 -3.33301 10 -10v-4c0 -10.667 3.83301 -20 11.5 -28s18.167 -12 31.5 -12c16.667 0 28.334 4.83301 35.001 14.5s10 19.834 10 30.501z" />
    <glyph glyph-name="questiondown" unicode="&#xbf;" 
d="M155 -27c0 -34 10.8301 -61.333 32.4971 -82s51.5 -31 89.5 -31c16.667 0 32.334 3.5 47.001 10.5s27.334 16.5 38.001 28.5s19 26 25 42s9 33.333 9 52v7c0 5.33301 2 10 6 14s8.66699 6 14 6h20c5.33301 0 10 -2 14 -6s6 -8.66699 6 -14v-7
c0 -26.667 -4.5 -51.667 -13.5 -75s-21.5 -43.833 -37.5 -61.5s-35 -31.5 -57 -41.5s-45.667 -15 -71 -15c-26.667 0 -51.167 4.16699 -73.5 12.5s-41.666 20 -57.999 35s-29 33.167 -38 54.5s-13.5 45 -13.5 71c0 18 2.5 34.167 7.5 48.5s11.333 27.333 19 39
s16.167 22.334 25.5 32.001l27 28.5c4.66699 4.66699 11.667 11.167 21 19.5s18.666 17.333 27.999 27s17.5 19.834 24.5 30.501s10.5 21 10.5 31v71c0 5.33301 2 10 6 14s8.66699 6 14 6h20c5.33301 0 10 -2 14 -6s6 -8.66699 6 -14c0 -24 -0.5 -43.833 -1.5 -59.5
s-2.16699 -28.334 -3.5 -38.001s-3.16602 -17 -5.49902 -22s-4.83301 -9.16699 -7.5 -12.5c-17.333 -20 -32.5 -35.5 -45.5 -46.5s-24.5 -21.5 -34.5 -31.5l-18.5 -18c-7 -6.66699 -14 -14.834 -21 -24.501s-12.833 -20.5 -17.5 -32.5s-7 -26 -7 -42zM237.997 494
c0 10.667 5.33301 16 16 16h62c10.667 0 16 -5.33301 16 -16v-63c0 -4 -1.5 -7.66699 -4.5 -11s-6.83301 -5 -11.5 -5h-62c-4.66699 0 -8.5 1.66699 -11.5 5s-4.5 7 -4.5 11v63z" />
    <glyph glyph-name="Agrave" unicode="&#xc0;" 
d="M104 15c-2 -10 -8.33496 -15 -19.002 -15h-25c-8 0 -13.667 2.16699 -17 6.5s-4.33301 8.83301 -3 13.5l191 665c2 10 8.33301 15 19 15h50c10.667 0 17 -5 19 -15l191 -665c1.33301 -4.66699 0.333008 -9.16699 -3 -13.5s-9 -6.5 -17 -6.5h-25c-10.667 0 -17 5 -19 15
l-49 169c-3.33301 9.33301 -9.66602 14 -18.999 14h-206c-9.33301 0 -15.666 -4.66699 -18.999 -14zM178.998 271c-2 -7.33301 0.666016 -11 7.99902 -11h176c7.33301 0 10 3.66699 8 11l-91 340c-1.33301 4 -2.66602 6 -3.99902 6h-2c-2 0 -3.33301 -2 -4 -6zM208.997 895
c7.33301 0 12.833 -1.83105 16.5 -5.49805s6.83398 -7.16699 9.50098 -10.5l76 -109c2.66699 -3.33301 2.66699 -7.5 0 -12.5s-7.33398 -7.5 -14.001 -7.5h-19c-9.33301 0 -15.833 1.16699 -19.5 3.5s-7.16699 5.16602 -10.5 8.49902l-108 112
c-3.33301 3.33301 -4 7.66602 -2 12.999s6.33301 8 13 8h58z" />
    <glyph glyph-name="Aacute" unicode="&#xc1;" 
d="M104 15c-2 -10 -8.33496 -15 -19.002 -15h-25c-8 0 -13.667 2.16699 -17 6.5s-4.33301 8.83301 -3 13.5l191 665c2 10 8.33301 15 19 15h50c10.667 0 17 -5 19 -15l191 -665c1.33301 -4.66699 0.333008 -9.16699 -3 -13.5s-9 -6.5 -17 -6.5h-25c-10.667 0 -17 5 -19 15
l-49 169c-3.33301 9.33301 -9.66602 14 -18.999 14h-206c-9.33301 0 -15.666 -4.66699 -18.999 -14zM178.998 271c-2 -7.33301 0.666016 -11 7.99902 -11h176c7.33301 0 10 3.66699 8 11l-91 340c-1.33301 4 -2.66602 6 -3.99902 6h-2c-2 0 -3.33301 -2 -4 -6zM388.997 895
c6.66699 0 11 -2.66895 13 -8.00195s1.33301 -9.66602 -2 -12.999l-108 -112c-3.33301 -3.33301 -6.83301 -6.16602 -10.5 -8.49902s-10.167 -3.5 -19.5 -3.5h-19c-6.66699 0 -11.334 2.5 -14.001 7.5s-2.66699 9.16699 0 12.5l76 109
c2.66699 3.33301 5.83398 6.83301 9.50098 10.5s9.16699 5.5 16.5 5.5h58z" />
    <glyph glyph-name="Acircumflex" unicode="&#xc2;" 
d="M104 15c-2 -10 -8.33496 -15 -19.002 -15h-25c-8 0 -13.667 2.16699 -17 6.5s-4.33301 8.83301 -3 13.5l191 665c2 10 8.33301 15 19 15h50c10.667 0 17 -5 19 -15l191 -665c1.33301 -4.66699 0.333008 -9.16699 -3 -13.5s-9 -6.5 -17 -6.5h-25c-10.667 0 -17 5 -19 15
l-49 169c-3.33301 9.33301 -9.66602 14 -18.999 14h-206c-9.33301 0 -15.666 -4.66699 -18.999 -14zM178.998 271c-2 -7.33301 0.666016 -11 7.99902 -11h176c7.33301 0 10 3.66699 8 11l-91 340c-1.33301 4 -2.66602 6 -3.99902 6h-2c-2 0 -3.33301 -2 -4 -6zM201.997 767
c-3.33301 -3.33301 -7.5 -6.83301 -12.5 -10.5s-11.167 -5.5 -18.5 -5.5h-43c-6.66699 0 -11 2.66699 -13 8s-1.33301 9.66602 2 12.999l118 112c3.33301 3.33301 6.83301 6.16602 10.5 8.49902s10.167 3.5 19.5 3.5h22c8.66699 0 14.834 -1.16699 18.501 -3.5
s7.16699 -5.16602 10.5 -8.49902l118 -112c3.33301 -3.33301 4 -7.66602 2 -12.999s-6.33301 -8 -13 -8h-43c-7.33301 0 -13.5 1.83301 -18.5 5.5s-9.16699 7.16699 -12.5 10.5l-67 65c-4.66699 4.66699 -9.33398 4.66699 -14.001 0z" />
    <glyph glyph-name="Atilde" unicode="&#xc3;" 
d="M104 15c-2 -10 -8.33496 -15 -19.002 -15h-25c-8 0 -13.667 2.16699 -17 6.5s-4.33301 8.83301 -3 13.5l191 665c2 10 8.33301 15 19 15h50c10.667 0 17 -5 19 -15l191 -665c1.33301 -4.66699 0.333008 -9.16699 -3 -13.5s-9 -6.5 -17 -6.5h-25c-10.667 0 -17 5 -19 15
l-49 169c-3.33301 9.33301 -9.66602 14 -18.999 14h-206c-9.33301 0 -15.666 -4.66699 -18.999 -14zM178.998 271c-2 -7.33301 0.666016 -11 7.99902 -11h176c7.33301 0 10 3.66699 8 11l-91 340c-1.33301 4 -2.66602 6 -3.99902 6h-2c-2 0 -3.33301 -2 -4 -6zM344.997 832
c12.667 0 22.5 2.17188 29.5 6.50488s12.5 9.16602 16.5 14.499s9.16699 6.66602 15.5 3.99902s9.5 -8.66699 9.5 -18v-24c0 -13.333 -6.83301 -25.166 -20.5 -35.499s-30.5 -15.5 -50.5 -15.5c-16 0 -29.167 1.33301 -39.5 4s-20 5.5 -29 8.5s-19 5.83301 -30 8.5
s-24.833 4 -41.5 4c-11.333 0 -20.5 -1.83301 -27.5 -5.5s-13.167 -8.83398 -18.5 -15.501c-4 -4.66699 -9.16699 -5.83398 -15.5 -3.50098s-9.5 8.16602 -9.5 17.499v24c0 13.333 6.83301 25.166 20.5 35.499s30.5 15.5 50.5 15.5c16 0 29.167 -1.33301 39.5 -4
s20 -5.5 29 -8.5s18.833 -5.83301 29.5 -8.5s24.667 -4 42 -4z" />
    <glyph glyph-name="Adieresis" unicode="&#xc4;" 
d="M104 15c-2 -10 -8.33496 -15 -19.002 -15h-25c-8 0 -13.667 2.16699 -17 6.5s-4.33301 8.83301 -3 13.5l191 665c2 10 8.33301 15 19 15h50c10.667 0 17 -5 19 -15l191 -665c1.33301 -4.66699 0.333008 -9.16699 -3 -13.5s-9 -6.5 -17 -6.5h-25c-10.667 0 -17 5 -19 15
l-49 169c-3.33301 9.33301 -9.66602 14 -18.999 14h-206c-9.33301 0 -15.666 -4.66699 -18.999 -14zM178.998 271c-2 -7.33301 0.666016 -11 7.99902 -11h176c7.33301 0 10 3.66699 8 11l-91 340c-1.33301 4 -2.66602 6 -3.99902 6h-2c-2 0 -3.33301 -2 -4 -6zM230.997 778
c0 -10.667 -5.33301 -16 -16 -16h-52c-10.667 0 -16 5.33301 -16 16v53c0 4 1.5 7.66699 4.5 11s6.83301 5 11.5 5h52c4.66699 0 8.5 -1.66699 11.5 -5s4.5 -7 4.5 -11v-53zM401.997 778c0 -10.667 -5.33301 -16 -16 -16h-52c-10.667 0 -16 5.33301 -16 16v53
c0 4 1.5 7.66699 4.5 11s6.83301 5 11.5 5h52c4.66699 0 8.5 -1.66699 11.5 -5s4.5 -7 4.5 -11v-53z" />
    <glyph glyph-name="Aring" unicode="&#xc5;" 
d="M104 15c-2 -10 -8.33496 -15 -19.002 -15h-25c-8 0 -13.667 2.16699 -17 6.5s-4.33301 8.83301 -3 13.5l191 665c2 10 8.33301 15 19 15h50c10.667 0 17 -5 19 -15l191 -665c1.33301 -4.66699 0.333008 -9.16699 -3 -13.5s-9 -6.5 -17 -6.5h-25c-10.667 0 -17 5 -19 15
l-49 169c-3.33301 9.33301 -9.66602 14 -18.999 14h-206c-9.33301 0 -15.666 -4.66699 -18.999 -14zM178.998 271c-2 -7.33301 0.666016 -11 7.99902 -11h176c7.33301 0 10 3.66699 8 11l-91 340c-1.33301 4 -2.66602 6 -3.99902 6h-2c-2 0 -3.33301 -2 -4 -6zM164.997 840
c0 15.333 2.83301 29.666 8.5 42.999s13.5 25 23.5 35s21.667 17.833 35 23.5s27.666 8.5 42.999 8.5s29.666 -2.83301 42.999 -8.5s25 -13.5 35 -23.5s17.833 -21.667 23.5 -35s8.5 -27.666 8.5 -42.999s-2.83301 -29.666 -8.5 -42.999s-13.5 -25 -23.5 -35
s-21.667 -17.833 -35 -23.5s-27.666 -8.5 -42.999 -8.5s-29.666 2.83301 -42.999 8.5s-25 13.5 -35 23.5s-17.833 21.667 -23.5 35s-8.5 27.666 -8.5 42.999zM218.997 840c0 -15.333 5.5 -28.5 16.5 -39.5s24.167 -16.5 39.5 -16.5c16 0 29.167 5.5 39.5 16.5
s15.5 24.167 15.5 39.5c0 16 -5.16699 29.167 -15.5 39.5s-23.5 15.5 -39.5 15.5c-15.333 0 -28.5 -5.16699 -39.5 -15.5s-16.5 -23.5 -16.5 -39.5z" />
    <glyph glyph-name="AE" unicode="&#xc6;" 
d="M295 188c0 6.66699 -3.33398 10 -10.001 10h-128c-9.33301 0 -15.666 -4.66699 -18.999 -14l-49 -169c-2 -10 -8.33301 -15 -19 -15h-25c-8 0 -13.667 2.16699 -17 6.5s-4.33301 8.83301 -3 13.5l191 665c2 10 8.33301 15 19 15h278c5.33301 0 10 -2 14 -6
s6 -8.66699 6 -14v-24c0 -5.33301 -2 -10 -6 -14s-8.66699 -6 -14 -6h-144c-6.66699 0 -10 -3.33301 -10 -10v-227c0 -6.66699 3.33301 -10 10 -10h133c5.33301 0 10 -2 14 -6s6 -8.66699 6 -14v-23c0 -5.33301 -2 -10 -6 -14s-8.66699 -6 -14 -6h-133
c-6.66699 0 -10 -3.33301 -10 -10v-242c0 -6.66699 3.33301 -10 10 -10h146c5.33301 0 10 -2 14 -6s6 -8.66699 6 -14v-24c0 -5.33301 -2 -10 -6 -14s-8.66699 -6 -14 -6h-200c-5.33301 0 -10 2 -14 6s-6 8.66699 -6 14v168zM284.999 260
c6.66699 0 9.99902 3.33301 9.99902 10v337c0 6.66699 -3.33301 10 -10 10h-21c-3.33301 0 -5.66602 -1.16699 -6.99902 -3.5s-2.33301 -4.5 -3 -6.5l-90 -336c-2 -7.33301 0.666992 -11 8 -11h113z" />
    <glyph glyph-name="Ccedilla" unicode="&#xc7;" 
d="M435 204c0 5.33301 2.00098 10.0039 6.00098 14.0039s8.66699 6 14 6h27c5.33301 0 10 -2 14 -6s6 -8.66699 6 -14v-4c0 -32.667 -6 -61.834 -18 -87.501s-28.167 -47.5 -48.5 -65.5s-44 -31.667 -71 -41s-55.5 -14 -85.5 -14c-60.667 0 -110.834 18.5 -150.501 55.5
s-63.834 87.833 -72.501 152.5c-2.66699 20 -4.66699 43.167 -6 69.5s-2 53.333 -2 81s0.666992 54.5 2 80.5s3.33301 49 6 69c4 27.333 11.667 53.5 23 78.5s26.333 47.167 45 66.5s40.834 34.666 66.501 45.999s55.167 17 88.5 17c32.667 0 62.834 -5.66699 90.501 -17
s51.167 -26.5 70.5 -45.5s34.5 -41.167 45.5 -66.5s16.5 -51.666 16.5 -78.999v-4c0 -5.33301 -2 -10 -6 -14s-8.66699 -6 -14 -6h-27c-5.33301 0 -10 2 -14 6s-6 8.66699 -6 14v4c0 18.667 -3.66699 36.667 -11 54s-17.833 32.666 -31.5 45.999s-30 24 -49 32
s-40.5 12 -64.5 12s-45 -4 -63 -12s-33.5 -18.833 -46.5 -32.5s-23.333 -29.167 -31 -46.5s-12.834 -35 -15.501 -53c-3.33301 -20.667 -5.66602 -44 -6.99902 -70s-2 -52.667 -2 -80s0.666992 -54 2 -80s3.66602 -49.333 6.99902 -70
c2 -14.667 6.16699 -30.334 12.5 -47.001s15.666 -32.167 27.999 -46.5s27.833 -26.333 46.5 -36s41.667 -14.5 69 -14.5c26.667 0 49.834 4.66699 69.501 14s36 21.166 49 35.499s22.5 30 28.5 47s9 32.833 9 47.5v4zM287.001 -183.996c-2.66699 -10.667 -9 -16 -19 -16
h-37c-6.66699 0 -11.334 1.83301 -14.001 5.5s-3.33398 7.83398 -2.00098 12.501l38 121c2.66699 10.667 9 16 19 16h27c6.66699 0 11.334 -1.83301 14.001 -5.5s3.33398 -7.83398 2.00098 -12.501z" />
    <glyph glyph-name="Egrave" unicode="&#xc8;" 
d="M161 399c0 -6.66699 3.33301 -10 10 -10h268c5.33301 0 10 -2 14 -6s6 -8.66699 6 -14v-23c0 -5.33301 -2 -10 -6 -14s-8.66699 -6 -14 -6h-268c-6.66699 0 -10 -3.33301 -10 -10v-242c0 -6.66699 3.33301 -10 10 -10h281c5.33301 0 10 -2 14 -6s6 -8.66699 6 -14v-24
c0 -5.33301 -2 -10 -6 -14s-8.66699 -6 -14 -6h-335c-5.33301 0 -10 2 -14 6s-6 8.66699 -6 14v660c0 5.33301 2 10 6 14s8.66699 6 14 6h333c5.33301 0 10 -2 14 -6s6 -8.66699 6 -14v-24c0 -5.33301 -2 -10 -6 -14s-8.66699 -6 -14 -6h-279
c-6.66699 0 -10 -3.33301 -10 -10v-227zM219 895c7.33301 0 12.833 -1.83105 16.5 -5.49805s6.83398 -7.16699 9.50098 -10.5l76 -109c2.66699 -3.33301 2.66699 -7.5 0 -12.5s-7.33398 -7.5 -14.001 -7.5h-19c-9.33301 0 -15.833 1.16699 -19.5 3.5
s-7.16699 5.16602 -10.5 8.49902l-108 112c-3.33301 3.33301 -4 7.66602 -2 12.999s6.33301 8 13 8h58z" />
    <glyph glyph-name="Eacute" unicode="&#xc9;" 
d="M161 399c0 -6.66699 3.33301 -10 10 -10h268c5.33301 0 10 -2 14 -6s6 -8.66699 6 -14v-23c0 -5.33301 -2 -10 -6 -14s-8.66699 -6 -14 -6h-268c-6.66699 0 -10 -3.33301 -10 -10v-242c0 -6.66699 3.33301 -10 10 -10h281c5.33301 0 10 -2 14 -6s6 -8.66699 6 -14v-24
c0 -5.33301 -2 -10 -6 -14s-8.66699 -6 -14 -6h-335c-5.33301 0 -10 2 -14 6s-6 8.66699 -6 14v660c0 5.33301 2 10 6 14s8.66699 6 14 6h333c5.33301 0 10 -2 14 -6s6 -8.66699 6 -14v-24c0 -5.33301 -2 -10 -6 -14s-8.66699 -6 -14 -6h-279
c-6.66699 0 -10 -3.33301 -10 -10v-227zM389 895c6.66699 0 11 -2.66895 13 -8.00195s1.33301 -9.66602 -2 -12.999l-108 -112c-3.33301 -3.33301 -6.83301 -6.16602 -10.5 -8.49902s-10.167 -3.5 -19.5 -3.5h-19c-6.66699 0 -11.334 2.5 -14.001 7.5
s-2.66699 9.16699 0 12.5l76 109c2.66699 3.33301 5.83398 6.83301 9.50098 10.5s9.16699 5.5 16.5 5.5h58z" />
    <glyph glyph-name="Ecircumflex" unicode="&#xca;" 
d="M161 399c0 -6.66699 3.33301 -10 10 -10h268c5.33301 0 10 -2 14 -6s6 -8.66699 6 -14v-23c0 -5.33301 -2 -10 -6 -14s-8.66699 -6 -14 -6h-268c-6.66699 0 -10 -3.33301 -10 -10v-242c0 -6.66699 3.33301 -10 10 -10h281c5.33301 0 10 -2 14 -6s6 -8.66699 6 -14v-24
c0 -5.33301 -2 -10 -6 -14s-8.66699 -6 -14 -6h-335c-5.33301 0 -10 2 -14 6s-6 8.66699 -6 14v660c0 5.33301 2 10 6 14s8.66699 6 14 6h333c5.33301 0 10 -2 14 -6s6 -8.66699 6 -14v-24c0 -5.33301 -2 -10 -6 -14s-8.66699 -6 -14 -6h-279
c-6.66699 0 -10 -3.33301 -10 -10v-227zM212 767c-3.33301 -3.33301 -7.5 -6.83301 -12.5 -10.5s-11.167 -5.5 -18.5 -5.5h-43c-6.66699 0 -11 2.66699 -13 8s-1.33301 9.66602 2 12.999l118 112c3.33301 3.33301 6.83301 6.16602 10.5 8.49902s10.167 3.5 19.5 3.5h22
c8.66699 0 14.834 -1.16699 18.501 -3.5s7.16699 -5.16602 10.5 -8.49902l118 -112c3.33301 -3.33301 4 -7.66602 2 -12.999s-6.33301 -8 -13 -8h-43c-7.33301 0 -13.5 1.83301 -18.5 5.5s-9.16699 7.16699 -12.5 10.5l-67 65c-4.66699 4.66699 -9.33398 4.66699 -14.001 0z
" />
    <glyph glyph-name="Edieresis" unicode="&#xcb;" 
d="M161 399c0 -6.66699 3.33301 -10 10 -10h268c5.33301 0 10 -2 14 -6s6 -8.66699 6 -14v-23c0 -5.33301 -2 -10 -6 -14s-8.66699 -6 -14 -6h-268c-6.66699 0 -10 -3.33301 -10 -10v-242c0 -6.66699 3.33301 -10 10 -10h281c5.33301 0 10 -2 14 -6s6 -8.66699 6 -14v-24
c0 -5.33301 -2 -10 -6 -14s-8.66699 -6 -14 -6h-335c-5.33301 0 -10 2 -14 6s-6 8.66699 -6 14v660c0 5.33301 2 10 6 14s8.66699 6 14 6h333c5.33301 0 10 -2 14 -6s6 -8.66699 6 -14v-24c0 -5.33301 -2 -10 -6 -14s-8.66699 -6 -14 -6h-279
c-6.66699 0 -10 -3.33301 -10 -10v-227zM241 778c0 -10.667 -5.33301 -16 -16 -16h-52c-10.667 0 -16 5.33301 -16 16v53c0 4 1.5 7.66699 4.5 11s6.83301 5 11.5 5h52c4.66699 0 8.5 -1.66699 11.5 -5s4.5 -7 4.5 -11v-53zM412 778c0 -10.667 -5.33301 -16 -16 -16h-52
c-10.667 0 -16 5.33301 -16 16v53c0 4 1.5 7.66699 4.5 11s6.83301 5 11.5 5h52c4.66699 0 8.5 -1.66699 11.5 -5s4.5 -7 4.5 -11v-53z" />
    <glyph glyph-name="Igrave" unicode="&#xcc;" 
d="M242 630c0 6.66699 -3.33301 10 -10 10h-125c-5.33301 0 -10 2 -14 6s-6 8.66699 -6 14v20c0 5.33301 2 10 6 14s8.66699 6 14 6h335c5.33301 0 10 -2 14 -6s6 -8.66699 6 -14v-20c0 -5.33301 -2 -10 -6 -14s-8.66699 -6 -14 -6h-125c-6.66699 0 -10 -3.33301 -10 -10
v-559c0 -6.66699 3.33301 -10 10 -10h135c5.33301 0 10 -2 14 -6s6 -8.66699 6 -14v-21c0 -5.33301 -2 -10 -6 -14s-8.66699 -6 -14 -6h-355c-5.33301 0 -10 2 -14 6s-6 8.66699 -6 14v21c0 5.33301 2 10 6 14s8.66699 6 14 6h135c6.66699 0 10 3.33301 10 10v559zM219 895
c7.33301 0 12.833 -1.83105 16.5 -5.49805s6.83398 -7.16699 9.50098 -10.5l76 -109c2.66699 -3.33301 2.66699 -7.5 0 -12.5s-7.33398 -7.5 -14.001 -7.5h-19c-9.33301 0 -15.833 1.16699 -19.5 3.5s-7.16699 5.16602 -10.5 8.49902l-108 112
c-3.33301 3.33301 -4 7.66602 -2 12.999s6.33301 8 13 8h58z" />
    <glyph glyph-name="Iacute" unicode="&#xcd;" 
d="M242 630c0 6.66699 -3.33301 10 -10 10h-125c-5.33301 0 -10 2 -14 6s-6 8.66699 -6 14v20c0 5.33301 2 10 6 14s8.66699 6 14 6h335c5.33301 0 10 -2 14 -6s6 -8.66699 6 -14v-20c0 -5.33301 -2 -10 -6 -14s-8.66699 -6 -14 -6h-125c-6.66699 0 -10 -3.33301 -10 -10
v-559c0 -6.66699 3.33301 -10 10 -10h135c5.33301 0 10 -2 14 -6s6 -8.66699 6 -14v-21c0 -5.33301 -2 -10 -6 -14s-8.66699 -6 -14 -6h-355c-5.33301 0 -10 2 -14 6s-6 8.66699 -6 14v21c0 5.33301 2 10 6 14s8.66699 6 14 6h135c6.66699 0 10 3.33301 10 10v559zM389 895
c6.66699 0 11 -2.66895 13 -8.00195s1.33301 -9.66602 -2 -12.999l-108 -112c-3.33301 -3.33301 -6.83301 -6.16602 -10.5 -8.49902s-10.167 -3.5 -19.5 -3.5h-19c-6.66699 0 -11.334 2.5 -14.001 7.5s-2.66699 9.16699 0 12.5l76 109
c2.66699 3.33301 5.83398 6.83301 9.50098 10.5s9.16699 5.5 16.5 5.5h58z" />
    <glyph glyph-name="Icircumflex" unicode="&#xce;" 
d="M242 630c0 6.66699 -3.33301 10 -10 10h-125c-5.33301 0 -10 2 -14 6s-6 8.66699 -6 14v20c0 5.33301 2 10 6 14s8.66699 6 14 6h335c5.33301 0 10 -2 14 -6s6 -8.66699 6 -14v-20c0 -5.33301 -2 -10 -6 -14s-8.66699 -6 -14 -6h-125c-6.66699 0 -10 -3.33301 -10 -10
v-559c0 -6.66699 3.33301 -10 10 -10h135c5.33301 0 10 -2 14 -6s6 -8.66699 6 -14v-21c0 -5.33301 -2 -10 -6 -14s-8.66699 -6 -14 -6h-355c-5.33301 0 -10 2 -14 6s-6 8.66699 -6 14v21c0 5.33301 2 10 6 14s8.66699 6 14 6h135c6.66699 0 10 3.33301 10 10v559zM202 767
c-3.33301 -3.33301 -7.5 -6.83301 -12.5 -10.5s-11.167 -5.5 -18.5 -5.5h-43c-6.66699 0 -11 2.66699 -13 8s-1.33301 9.66602 2 12.999l118 112c3.33301 3.33301 6.83301 6.16602 10.5 8.49902s10.167 3.5 19.5 3.5h22c8.66699 0 14.834 -1.16699 18.501 -3.5
s7.16699 -5.16602 10.5 -8.49902l118 -112c3.33301 -3.33301 4 -7.66602 2 -12.999s-6.33301 -8 -13 -8h-43c-7.33301 0 -13.5 1.83301 -18.5 5.5s-9.16699 7.16699 -12.5 10.5l-67 65c-4.66699 4.66699 -9.33398 4.66699 -14.001 0z" />
    <glyph glyph-name="Idieresis" unicode="&#xcf;" 
d="M242 630c0 6.66699 -3.33301 10 -10 10h-125c-5.33301 0 -10 2 -14 6s-6 8.66699 -6 14v20c0 5.33301 2 10 6 14s8.66699 6 14 6h335c5.33301 0 10 -2 14 -6s6 -8.66699 6 -14v-20c0 -5.33301 -2 -10 -6 -14s-8.66699 -6 -14 -6h-125c-6.66699 0 -10 -3.33301 -10 -10
v-559c0 -6.66699 3.33301 -10 10 -10h135c5.33301 0 10 -2 14 -6s6 -8.66699 6 -14v-21c0 -5.33301 -2 -10 -6 -14s-8.66699 -6 -14 -6h-355c-5.33301 0 -10 2 -14 6s-6 8.66699 -6 14v21c0 5.33301 2 10 6 14s8.66699 6 14 6h135c6.66699 0 10 3.33301 10 10v559zM231 778
c0 -10.667 -5.33301 -16 -16 -16h-52c-10.667 0 -16 5.33301 -16 16v53c0 4 1.5 7.66699 4.5 11s6.83301 5 11.5 5h52c4.66699 0 8.5 -1.66699 11.5 -5s4.5 -7 4.5 -11v-53zM402 778c0 -10.667 -5.33301 -16 -16 -16h-52c-10.667 0 -16 5.33301 -16 16v53
c0 4 1.5 7.66699 4.5 11s6.83301 5 11.5 5h52c4.66699 0 8.5 -1.66699 11.5 -5s4.5 -7 4.5 -11v-53z" />
    <glyph glyph-name="Eth" unicode="&#xd0;" 
d="M69 680c0 5.33301 2.00195 9.99902 6.00195 13.999s8.66699 6 14 6h180c32.667 0 62 -5.33301 88 -16s48.333 -25 67 -43s33.667 -39.167 45 -63.5s19 -50.166 23 -77.499c2.66699 -20 4.66699 -43 6 -69s2 -52.833 2 -80.5s-0.666992 -54.667 -2 -81
s-3.33301 -49.5 -6 -69.5c-8.66699 -64.667 -32.834 -114.167 -72.501 -148.5s-89.834 -51.5 -150.501 -51.5h-180c-5.33301 0 -10 2 -14 6s-6 8.66699 -6 14v296c0 6.66699 -3.33301 10 -10 10h-22c-5.33301 0 -10 2 -14 6s-6 8.66699 -6 14v23c0 5.33301 2 10 6 14
s8.66699 6 14 6h22c6.66699 0 10 3.33301 10 10v281zM133.002 73.999c0 -6.66699 3.33496 -9.99902 10.002 -9.99902h126c26.667 0 49.5 4.33301 68.5 13s34.667 19.667 47 33s21.666 28 27.999 44s10.5 31.333 12.5 46c2.66699 20.667 4.83398 44 6.50098 70
s2.5 52.667 2.5 80s-0.833008 54 -2.5 80s-3.83398 49.333 -6.50098 70c-2.66699 18 -7.83398 35.333 -15.501 52s-18 31.167 -31 43.5s-28.5 22.166 -46.5 29.499s-39 11 -63 11h-126c-6.66699 0 -10 -3.33301 -10 -10v-227c0 -6.66699 3.33301 -10 10 -10h100
c5.33301 0 10 -2 14 -6s6 -8.66699 6 -14v-23c0 -5.33301 -2 -10 -6 -14s-8.66699 -6 -14 -6h-100c-6.66699 0 -10 -3.33301 -10 -10v-242z" />
    <glyph glyph-name="Ntilde" unicode="&#xd1;" 
d="M475 20c0 -5.33301 -2 -10 -6 -14s-8.66699 -6 -14 -6h-52c-5.33301 0 -9.33301 1 -12 3s-5.66699 6.66699 -9 14l-239 574c-1.33301 2 -3 2.83301 -5 2.5s-3 -1.83301 -3 -4.5v-569c0 -5.33301 -2 -10 -6 -14s-8.66699 -6 -14 -6h-20c-5.33301 0 -10 2 -14 6
s-6 8.66699 -6 14v660c0 5.33301 2 10 6 14s8.66699 6 14 6h52c5.33301 0 9.33301 -1 12 -3s5.66699 -6.66699 9 -14l239 -569c1.33301 -2 3 -2.83301 5 -2.5s3 1.83301 3 4.5v564c0 5.33301 2 10 6 14s8.66699 6 14 6h20c5.33301 0 10 -2 14 -6s6 -8.66699 6 -14v-660z
M345 832c12.667 0 22.5 2.17188 29.5 6.50488s12.5 9.16602 16.5 14.499s9.16699 6.66602 15.5 3.99902s9.5 -8.66699 9.5 -18v-24c0 -13.333 -6.83301 -25.166 -20.5 -35.499s-30.5 -15.5 -50.5 -15.5c-16 0 -29.167 1.33301 -39.5 4s-20 5.5 -29 8.5s-19 5.83301 -30 8.5
s-24.833 4 -41.5 4c-11.333 0 -20.5 -1.83301 -27.5 -5.5s-13.167 -8.83398 -18.5 -15.501c-4 -4.66699 -9.16699 -5.83398 -15.5 -3.50098s-9.5 8.16602 -9.5 17.499v24c0 13.333 6.83301 25.166 20.5 35.499s30.5 15.5 50.5 15.5c16 0 29.167 -1.33301 39.5 -4
s20 -5.5 29 -8.5s18.833 -5.83301 29.5 -8.5s24.667 -4 42 -4z" />
    <glyph glyph-name="Ograve" unicode="&#xd2;" 
d="M275 644c-24 0 -44.9961 -4 -62.9961 -12s-33.5 -18.833 -46.5 -32.5s-23.333 -29.167 -31 -46.5s-12.834 -35 -15.501 -53c-3.33301 -20.667 -5.66602 -44 -6.99902 -70s-2 -52.667 -2 -80s0.666992 -54 2 -80s3.66602 -49.333 6.99902 -70
c2 -14.667 6.16699 -30.334 12.5 -47.001s15.666 -32.167 27.999 -46.5s27.833 -26.333 46.5 -36s41.667 -14.5 69 -14.5c26.667 0 49.5 4.83301 68.5 14.5s34.667 21.667 47 36s21.666 29.833 27.999 46.5s10.5 32.334 12.5 47.001c2.66699 20.667 4.83398 44 6.50098 70
s2.5 52.667 2.5 80s-0.833008 54 -2.5 80s-3.83398 49.333 -6.50098 70c-2.66699 18 -7.83398 35.667 -15.501 53s-18 32.833 -31 46.5s-28.5 24.5 -46.5 32.5s-39 12 -63 12zM275.004 708c32.667 0 62.0029 -5.66699 88.0029 -17s48.333 -26.666 67 -45.999
s33.667 -41.5 45 -66.5s19 -51.167 23 -78.5c2.66699 -20 4.66699 -43 6 -69s2 -52.833 2 -80.5s-0.666992 -54.667 -2 -81s-3.33301 -49.5 -6 -69.5c-8.66699 -64.667 -32.834 -115.5 -72.501 -152.5s-89.834 -55.5 -150.501 -55.5s-110.834 18.5 -150.501 55.5
s-63.834 87.833 -72.501 152.5c-2.66699 20 -4.66699 43.167 -6 69.5s-2 53.333 -2 81s0.666992 54.5 2 80.5s3.33301 49 6 69c4 27.333 11.667 53.5 23 78.5s26.333 47.167 45 66.5s40.834 34.666 66.501 45.999s55.167 17 88.5 17zM219.007 895
c7.33301 0 12.833 -1.83105 16.5 -5.49805s6.83398 -7.16699 9.50098 -10.5l76 -109c2.66699 -3.33301 2.66699 -7.5 0 -12.5s-7.33398 -7.5 -14.001 -7.5h-19c-9.33301 0 -15.833 1.16699 -19.5 3.5s-7.16699 5.16602 -10.5 8.49902l-108 112
c-3.33301 3.33301 -4 7.66602 -2 12.999s6.33301 8 13 8h58z" />
    <glyph glyph-name="Oacute" unicode="&#xd3;" 
d="M275 644c-24 0 -44.9961 -4 -62.9961 -12s-33.5 -18.833 -46.5 -32.5s-23.333 -29.167 -31 -46.5s-12.834 -35 -15.501 -53c-3.33301 -20.667 -5.66602 -44 -6.99902 -70s-2 -52.667 -2 -80s0.666992 -54 2 -80s3.66602 -49.333 6.99902 -70
c2 -14.667 6.16699 -30.334 12.5 -47.001s15.666 -32.167 27.999 -46.5s27.833 -26.333 46.5 -36s41.667 -14.5 69 -14.5c26.667 0 49.5 4.83301 68.5 14.5s34.667 21.667 47 36s21.666 29.833 27.999 46.5s10.5 32.334 12.5 47.001c2.66699 20.667 4.83398 44 6.50098 70
s2.5 52.667 2.5 80s-0.833008 54 -2.5 80s-3.83398 49.333 -6.50098 70c-2.66699 18 -7.83398 35.667 -15.501 53s-18 32.833 -31 46.5s-28.5 24.5 -46.5 32.5s-39 12 -63 12zM275.004 708c32.667 0 62.0029 -5.66699 88.0029 -17s48.333 -26.666 67 -45.999
s33.667 -41.5 45 -66.5s19 -51.167 23 -78.5c2.66699 -20 4.66699 -43 6 -69s2 -52.833 2 -80.5s-0.666992 -54.667 -2 -81s-3.33301 -49.5 -6 -69.5c-8.66699 -64.667 -32.834 -115.5 -72.501 -152.5s-89.834 -55.5 -150.501 -55.5s-110.834 18.5 -150.501 55.5
s-63.834 87.833 -72.501 152.5c-2.66699 20 -4.66699 43.167 -6 69.5s-2 53.333 -2 81s0.666992 54.5 2 80.5s3.33301 49 6 69c4 27.333 11.667 53.5 23 78.5s26.333 47.167 45 66.5s40.834 34.666 66.501 45.999s55.167 17 88.5 17zM399.007 895
c6.66699 0 11 -2.66895 13 -8.00195s1.33301 -9.66602 -2 -12.999l-108 -112c-3.33301 -3.33301 -6.83301 -6.16602 -10.5 -8.49902s-10.167 -3.5 -19.5 -3.5h-19c-6.66699 0 -11.334 2.5 -14.001 7.5s-2.66699 9.16699 0 12.5l76 109
c2.66699 3.33301 5.83398 6.83301 9.50098 10.5s9.16699 5.5 16.5 5.5h58z" />
    <glyph glyph-name="Ocircumflex" unicode="&#xd4;" 
d="M275 644c-24 0 -44.9961 -4 -62.9961 -12s-33.5 -18.833 -46.5 -32.5s-23.333 -29.167 -31 -46.5s-12.834 -35 -15.501 -53c-3.33301 -20.667 -5.66602 -44 -6.99902 -70s-2 -52.667 -2 -80s0.666992 -54 2 -80s3.66602 -49.333 6.99902 -70
c2 -14.667 6.16699 -30.334 12.5 -47.001s15.666 -32.167 27.999 -46.5s27.833 -26.333 46.5 -36s41.667 -14.5 69 -14.5c26.667 0 49.5 4.83301 68.5 14.5s34.667 21.667 47 36s21.666 29.833 27.999 46.5s10.5 32.334 12.5 47.001c2.66699 20.667 4.83398 44 6.50098 70
s2.5 52.667 2.5 80s-0.833008 54 -2.5 80s-3.83398 49.333 -6.50098 70c-2.66699 18 -7.83398 35.667 -15.501 53s-18 32.833 -31 46.5s-28.5 24.5 -46.5 32.5s-39 12 -63 12zM275.004 708c32.667 0 62.0029 -5.66699 88.0029 -17s48.333 -26.666 67 -45.999
s33.667 -41.5 45 -66.5s19 -51.167 23 -78.5c2.66699 -20 4.66699 -43 6 -69s2 -52.833 2 -80.5s-0.666992 -54.667 -2 -81s-3.33301 -49.5 -6 -69.5c-8.66699 -64.667 -32.834 -115.5 -72.501 -152.5s-89.834 -55.5 -150.501 -55.5s-110.834 18.5 -150.501 55.5
s-63.834 87.833 -72.501 152.5c-2.66699 20 -4.66699 43.167 -6 69.5s-2 53.333 -2 81s0.666992 54.5 2 80.5s3.33301 49 6 69c4 27.333 11.667 53.5 23 78.5s26.333 47.167 45 66.5s40.834 34.666 66.501 45.999s55.167 17 88.5 17zM202.007 767
c-3.33301 -3.33301 -7.5 -6.83301 -12.5 -10.5s-11.167 -5.5 -18.5 -5.5h-43c-6.66699 0 -11 2.66699 -13 8s-1.33301 9.66602 2 12.999l118 112c3.33301 3.33301 6.83301 6.16602 10.5 8.49902s10.167 3.5 19.5 3.5h22c8.66699 0 14.834 -1.16699 18.501 -3.5
s7.16699 -5.16602 10.5 -8.49902l118 -112c3.33301 -3.33301 4 -7.66602 2 -12.999s-6.33301 -8 -13 -8h-43c-7.33301 0 -13.5 1.83301 -18.5 5.5s-9.16699 7.16699 -12.5 10.5l-67 65c-4.66699 4.66699 -9.33398 4.66699 -14.001 0z" />
    <glyph glyph-name="Otilde" unicode="&#xd5;" 
d="M275 644c-24 0 -44.9961 -4 -62.9961 -12s-33.5 -18.833 -46.5 -32.5s-23.333 -29.167 -31 -46.5s-12.834 -35 -15.501 -53c-3.33301 -20.667 -5.66602 -44 -6.99902 -70s-2 -52.667 -2 -80s0.666992 -54 2 -80s3.66602 -49.333 6.99902 -70
c2 -14.667 6.16699 -30.334 12.5 -47.001s15.666 -32.167 27.999 -46.5s27.833 -26.333 46.5 -36s41.667 -14.5 69 -14.5c26.667 0 49.5 4.83301 68.5 14.5s34.667 21.667 47 36s21.666 29.833 27.999 46.5s10.5 32.334 12.5 47.001c2.66699 20.667 4.83398 44 6.50098 70
s2.5 52.667 2.5 80s-0.833008 54 -2.5 80s-3.83398 49.333 -6.50098 70c-2.66699 18 -7.83398 35.667 -15.501 53s-18 32.833 -31 46.5s-28.5 24.5 -46.5 32.5s-39 12 -63 12zM275.004 708c32.667 0 62.0029 -5.66699 88.0029 -17s48.333 -26.666 67 -45.999
s33.667 -41.5 45 -66.5s19 -51.167 23 -78.5c2.66699 -20 4.66699 -43 6 -69s2 -52.833 2 -80.5s-0.666992 -54.667 -2 -81s-3.33301 -49.5 -6 -69.5c-8.66699 -64.667 -32.834 -115.5 -72.501 -152.5s-89.834 -55.5 -150.501 -55.5s-110.834 18.5 -150.501 55.5
s-63.834 87.833 -72.501 152.5c-2.66699 20 -4.66699 43.167 -6 69.5s-2 53.333 -2 81s0.666992 54.5 2 80.5s3.33301 49 6 69c4 27.333 11.667 53.5 23 78.5s26.333 47.167 45 66.5s40.834 34.666 66.501 45.999s55.167 17 88.5 17zM345.007 832
c12.667 0 22.5 2.17188 29.5 6.50488s12.5 9.16602 16.5 14.499s9.16699 6.66602 15.5 3.99902s9.5 -8.66699 9.5 -18v-24c0 -13.333 -6.83301 -25.166 -20.5 -35.499s-30.5 -15.5 -50.5 -15.5c-16 0 -29.167 1.33301 -39.5 4s-20 5.5 -29 8.5s-19 5.83301 -30 8.5
s-24.833 4 -41.5 4c-11.333 0 -20.5 -1.83301 -27.5 -5.5s-13.167 -8.83398 -18.5 -15.501c-4 -4.66699 -9.16699 -5.83398 -15.5 -3.50098s-9.5 8.16602 -9.5 17.499v24c0 13.333 6.83301 25.166 20.5 35.499s30.5 15.5 50.5 15.5c16 0 29.167 -1.33301 39.5 -4
s20 -5.5 29 -8.5s18.833 -5.83301 29.5 -8.5s24.667 -4 42 -4z" />
    <glyph glyph-name="Odieresis" unicode="&#xd6;" 
d="M275 644c-24 0 -44.9961 -4 -62.9961 -12s-33.5 -18.833 -46.5 -32.5s-23.333 -29.167 -31 -46.5s-12.834 -35 -15.501 -53c-3.33301 -20.667 -5.66602 -44 -6.99902 -70s-2 -52.667 -2 -80s0.666992 -54 2 -80s3.66602 -49.333 6.99902 -70
c2 -14.667 6.16699 -30.334 12.5 -47.001s15.666 -32.167 27.999 -46.5s27.833 -26.333 46.5 -36s41.667 -14.5 69 -14.5c26.667 0 49.5 4.83301 68.5 14.5s34.667 21.667 47 36s21.666 29.833 27.999 46.5s10.5 32.334 12.5 47.001c2.66699 20.667 4.83398 44 6.50098 70
s2.5 52.667 2.5 80s-0.833008 54 -2.5 80s-3.83398 49.333 -6.50098 70c-2.66699 18 -7.83398 35.667 -15.501 53s-18 32.833 -31 46.5s-28.5 24.5 -46.5 32.5s-39 12 -63 12zM275.004 708c32.667 0 62.0029 -5.66699 88.0029 -17s48.333 -26.666 67 -45.999
s33.667 -41.5 45 -66.5s19 -51.167 23 -78.5c2.66699 -20 4.66699 -43 6 -69s2 -52.833 2 -80.5s-0.666992 -54.667 -2 -81s-3.33301 -49.5 -6 -69.5c-8.66699 -64.667 -32.834 -115.5 -72.501 -152.5s-89.834 -55.5 -150.501 -55.5s-110.834 18.5 -150.501 55.5
s-63.834 87.833 -72.501 152.5c-2.66699 20 -4.66699 43.167 -6 69.5s-2 53.333 -2 81s0.666992 54.5 2 80.5s3.33301 49 6 69c4 27.333 11.667 53.5 23 78.5s26.333 47.167 45 66.5s40.834 34.666 66.501 45.999s55.167 17 88.5 17zM231.007 778
c0 -10.667 -5.33301 -16 -16 -16h-52c-10.667 0 -16 5.33301 -16 16v53c0 4 1.5 7.66699 4.5 11s6.83301 5 11.5 5h52c4.66699 0 8.5 -1.66699 11.5 -5s4.5 -7 4.5 -11v-53zM402.007 778c0 -10.667 -5.33301 -16 -16 -16h-52c-10.667 0 -16 5.33301 -16 16v53
c0 4 1.5 7.66699 4.5 11s6.83301 5 11.5 5h52c4.66699 0 8.5 -1.66699 11.5 -5s4.5 -7 4.5 -11v-53z" />
    <glyph glyph-name="multiply" unicode="&#xd7;" 
d="M224 243c4.66699 4.66699 4.66797 9.33398 0.000976562 14.001l-112 113c-4 3.33301 -6 7.83301 -6 13.5s2 10.5 6 14.5l15 15c4 4 8.83301 6 14.5 6s10.167 -2 13.5 -6l113 -112c4.66699 -4.66699 9.33398 -4.66699 14.001 0l113 112c3.33301 4 7.83301 6 13.5 6
s10.5 -2 14.5 -6l15 -15c3.33301 -3.33301 5 -7.83301 5 -13.5s-1.66699 -10.5 -5 -14.5l-113 -112c-4.66699 -4.66699 -4.66699 -9.33398 0 -14.001l113 -114c4 -3.33301 6 -7.83301 6 -13.5s-2 -10.5 -6 -14.5l-15 -15c-4 -4 -8.83301 -6 -14.5 -6s-10.167 2 -13.5 6
l-114 113c-4.66699 4.66699 -9.33398 4.66699 -14.001 0l-112 -113c-4 -3.33301 -8.83301 -5 -14.5 -5s-10.167 1.66699 -13.5 5l-15 15c-4 4 -5.83301 8.66699 -5.5 14s2.16602 10 5.49902 14z" />
    <glyph glyph-name="Oslash" unicode="&#xd8;" 
d="M430 200c2.66699 20.667 4.83496 43.998 6.50195 69.998s2.5 52.667 2.5 80s-0.833008 54 -2.5 80s-3.83398 49.333 -6.50098 70c-2 9.33301 -3.66699 16.5 -5 21.5s-3.33301 11.5 -6 19.5c-0.666992 1.33301 -1.5 2.33301 -2.5 3s-2.5 -0.666016 -4.5 -3.99902
l-239 -442c-2.66699 -4.66699 -0.666992 -9.5 6 -14.5s15.5 -9.5 26.5 -13.5s22.833 -7.33301 35.5 -10s23.667 -4 33 -4c26.667 0 49.5 4.83301 68.5 14.5s34.667 21.667 47 36s21.666 29.833 27.999 46.5s10.5 32.334 12.5 47.001zM274.001 643.998
c-24 0 -45 -4.00195 -63 -12.002s-33.5 -18.833 -46.5 -32.5s-23.333 -29.167 -31 -46.5s-12.834 -35 -15.501 -53c-3.33301 -24.667 -5.83301 -53.167 -7.5 -85.5s-2.16699 -64.833 -1.5 -97.5s2.5 -63.167 5.5 -91.5s7.5 -50.833 13.5 -67.5
c0.666992 -1.33301 1.83398 -2.5 3.50098 -3.5s3.5 0.166992 5.5 3.5l239 439c2.66699 4.66699 0.666992 9.83398 -6 15.501s-15.667 10.834 -27 15.501s-23.5 8.5 -36.5 11.5s-23.833 4.5 -32.5 4.5zM456.001 620.996
c-0.666992 -1.33301 0.833984 -6.8291 4.50098 -16.4961l13 -33.5c5 -12.667 9.83301 -25.667 14.5 -39s7.66699 -24 9 -32c2.66699 -20 4.66699 -43 6 -69s2 -52.833 2 -80.5s-0.666992 -54.667 -2 -81s-3.33301 -49.5 -6 -69.5
c-8.66699 -64.667 -32.834 -115.5 -72.501 -152.5s-89.834 -55.5 -150.501 -55.5c-41.333 0 -77.666 8.66699 -108.999 26c-4 2 -7.83301 4.16699 -11.5 6.5s-7.16699 4.83301 -10.5 7.5c-0.666992 0.666992 -1.66699 1.16699 -3 1.5s-2.66602 -1.16699 -3.99902 -4.5
l-8 -14c-6 -10 -13 -15 -21 -15h-29c-6.66699 0 -11.5 2.16699 -14.5 6.5s-2.83301 10.166 0.5 17.499l28 52c1.33301 3.33301 1.66602 5.66602 0.999023 6.99902l-2 4c-13.333 19.333 -23.833 45.333 -31.5 78s-12.834 68 -15.501 106s-3.33398 77 -2.00098 117
s4.33301 77.333 9 112c4 27.333 11.667 53.5 23 78.5s26.333 47.167 45 66.5s40.834 34.666 66.501 45.999s55.167 17 88.5 17c26.667 0 50.834 -3.66699 72.501 -11s41.167 -17.666 58.5 -30.999c1.33301 -0.666992 2.83301 -1.33398 4.5 -2.00098
s3.5 0.666016 5.5 3.99902l9 17c4.66699 10 11 15 19 15h30c6.66699 0 11.5 -2.16699 14.5 -6.5s2.83301 -9.5 -0.5 -15.5z" />
    <glyph glyph-name="Ugrave" unicode="&#xd9;" 
d="M124 207c0 -20 3.83105 -39.167 11.498 -57.5s18.334 -34.333 32.001 -48s29.667 -24.667 48 -33s38.166 -12.5 59.499 -12.5s41.166 4.16699 59.499 12.5s34.333 19.333 48 33s24.334 29.667 32.001 48s11.5 37.5 11.5 57.5v473c0 5.33301 2 10 6 14s8.66699 6 14 6h24
c5.33301 0 10 -2 14 -6s6 -8.66699 6 -14v-473c0 -30 -5.66699 -58 -17 -84s-26.666 -48.667 -45.999 -68s-42 -34.666 -68 -45.999s-54 -17 -84 -17s-58 5.66699 -84 17s-48.667 26.666 -68 45.999s-34.666 42 -45.999 68s-17 54 -17 84v473c0 5.33301 2 10 6 14
s8.66699 6 14 6h24c5.33301 0 10 -2 14 -6s6 -8.66699 6 -14v-473zM218.998 895c7.33301 0 12.833 -1.83105 16.5 -5.49805s6.83398 -7.16699 9.50098 -10.5l76 -109c2.66699 -3.33301 2.66699 -7.5 0 -12.5s-7.33398 -7.5 -14.001 -7.5h-19
c-9.33301 0 -15.833 1.16699 -19.5 3.5s-7.16699 5.16602 -10.5 8.49902l-108 112c-3.33301 3.33301 -4 7.66602 -2 12.999s6.33301 8 13 8h58z" />
    <glyph glyph-name="Uacute" unicode="&#xda;" 
d="M124 207c0 -20 3.83105 -39.167 11.498 -57.5s18.334 -34.333 32.001 -48s29.667 -24.667 48 -33s38.166 -12.5 59.499 -12.5s41.166 4.16699 59.499 12.5s34.333 19.333 48 33s24.334 29.667 32.001 48s11.5 37.5 11.5 57.5v473c0 5.33301 2 10 6 14s8.66699 6 14 6h24
c5.33301 0 10 -2 14 -6s6 -8.66699 6 -14v-473c0 -30 -5.66699 -58 -17 -84s-26.666 -48.667 -45.999 -68s-42 -34.666 -68 -45.999s-54 -17 -84 -17s-58 5.66699 -84 17s-48.667 26.666 -68 45.999s-34.666 42 -45.999 68s-17 54 -17 84v473c0 5.33301 2 10 6 14
s8.66699 6 14 6h24c5.33301 0 10 -2 14 -6s6 -8.66699 6 -14v-473zM388.998 895c6.66699 0 11 -2.66895 13 -8.00195s1.33301 -9.66602 -2 -12.999l-108 -112c-3.33301 -3.33301 -6.83301 -6.16602 -10.5 -8.49902s-10.167 -3.5 -19.5 -3.5h-19
c-6.66699 0 -11.334 2.5 -14.001 7.5s-2.66699 9.16699 0 12.5l76 109c2.66699 3.33301 5.83398 6.83301 9.50098 10.5s9.16699 5.5 16.5 5.5h58z" />
    <glyph glyph-name="Ucircumflex" unicode="&#xdb;" 
d="M124 207c0 -20 3.83105 -39.167 11.498 -57.5s18.334 -34.333 32.001 -48s29.667 -24.667 48 -33s38.166 -12.5 59.499 -12.5s41.166 4.16699 59.499 12.5s34.333 19.333 48 33s24.334 29.667 32.001 48s11.5 37.5 11.5 57.5v473c0 5.33301 2 10 6 14s8.66699 6 14 6h24
c5.33301 0 10 -2 14 -6s6 -8.66699 6 -14v-473c0 -30 -5.66699 -58 -17 -84s-26.666 -48.667 -45.999 -68s-42 -34.666 -68 -45.999s-54 -17 -84 -17s-58 5.66699 -84 17s-48.667 26.666 -68 45.999s-34.666 42 -45.999 68s-17 54 -17 84v473c0 5.33301 2 10 6 14
s8.66699 6 14 6h24c5.33301 0 10 -2 14 -6s6 -8.66699 6 -14v-473zM201.998 767c-3.33301 -3.33301 -7.5 -6.83301 -12.5 -10.5s-11.167 -5.5 -18.5 -5.5h-43c-6.66699 0 -11 2.66699 -13 8s-1.33301 9.66602 2 12.999l118 112
c3.33301 3.33301 6.83301 6.16602 10.5 8.49902s10.167 3.5 19.5 3.5h22c8.66699 0 14.834 -1.16699 18.501 -3.5s7.16699 -5.16602 10.5 -8.49902l118 -112c3.33301 -3.33301 4 -7.66602 2 -12.999s-6.33301 -8 -13 -8h-43c-7.33301 0 -13.5 1.83301 -18.5 5.5
s-9.16699 7.16699 -12.5 10.5l-67 65c-4.66699 4.66699 -9.33398 4.66699 -14.001 0z" />
    <glyph glyph-name="Udieresis" unicode="&#xdc;" 
d="M124 207c0 -20 3.83105 -39.167 11.498 -57.5s18.334 -34.333 32.001 -48s29.667 -24.667 48 -33s38.166 -12.5 59.499 -12.5s41.166 4.16699 59.499 12.5s34.333 19.333 48 33s24.334 29.667 32.001 48s11.5 37.5 11.5 57.5v473c0 5.33301 2 10 6 14s8.66699 6 14 6h24
c5.33301 0 10 -2 14 -6s6 -8.66699 6 -14v-473c0 -30 -5.66699 -58 -17 -84s-26.666 -48.667 -45.999 -68s-42 -34.666 -68 -45.999s-54 -17 -84 -17s-58 5.66699 -84 17s-48.667 26.666 -68 45.999s-34.666 42 -45.999 68s-17 54 -17 84v473c0 5.33301 2 10 6 14
s8.66699 6 14 6h24c5.33301 0 10 -2 14 -6s6 -8.66699 6 -14v-473zM230.998 778c0 -10.667 -5.33301 -16 -16 -16h-52c-10.667 0 -16 5.33301 -16 16v53c0 4 1.5 7.66699 4.5 11s6.83301 5 11.5 5h52c4.66699 0 8.5 -1.66699 11.5 -5s4.5 -7 4.5 -11v-53zM401.998 778
c0 -10.667 -5.33301 -16 -16 -16h-52c-10.667 0 -16 5.33301 -16 16v53c0 4 1.5 7.66699 4.5 11s6.83301 5 11.5 5h52c4.66699 0 8.5 -1.66699 11.5 -5s4.5 -7 4.5 -11v-53z" />
    <glyph glyph-name="Yacute" unicode="&#xdd;" 
d="M272 328c2.66699 -6.66699 5.33105 -6.66699 7.99805 0l137 357c3.33301 10 9.66602 15 18.999 15h32c6.66699 0 11.834 -2.83301 15.501 -8.5s3.83398 -12.167 0.500977 -19.5l-175 -431v-221c0 -5.33301 -2 -10 -6 -14s-8.66699 -6 -14 -6h-26c-5.33301 0 -10 2 -14 6
s-6 8.66699 -6 14v220l-177 432c-3.33301 7.33301 -3.16602 13.833 0.500977 19.5s8.83398 8.5 15.501 8.5h32c9.33301 0 15.666 -5 18.999 -15zM388.997 895c6.66699 0 11 -2.66895 13 -8.00195s1.33301 -9.66602 -2 -12.999l-108 -112
c-3.33301 -3.33301 -6.83301 -6.16602 -10.5 -8.49902s-10.167 -3.5 -19.5 -3.5h-19c-6.66699 0 -11.334 2.5 -14.001 7.5s-2.66699 9.16699 0 12.5l76 109c2.66699 3.33301 5.83398 6.83301 9.50098 10.5s9.16699 5.5 16.5 5.5h58z" />
    <glyph glyph-name="Thorn" unicode="&#xde;" 
d="M411 380c0 20 -3.83301 38.833 -11.5 56.5s-18.167 33.167 -31.5 46.5s-28.833 23.833 -46.5 31.5s-36.5 11.5 -56.5 11.5h-116c-6.66699 0 -10 -3.33301 -10 -10v-322c0 -6.66699 3.33301 -10 10 -10h116c20 0 38.833 3.83301 56.5 11.5s33.167 18.167 46.5 31.5
s23.833 28.833 31.5 46.5s11.5 36.5 11.5 56.5v50zM475 330c0 -29.333 -5.5 -56.666 -16.5 -81.999s-26 -47.5 -45 -66.5s-41.333 -34 -67 -45s-52.834 -16.5 -81.501 -16.5h-116c-6.66699 0 -10 -3.33301 -10 -10v-90c0 -5.33301 -2 -10 -6 -14s-8.66699 -6 -14 -6h-24
c-5.33301 0 -10 2 -14 6s-6 8.66699 -6 14v660c0 5.33301 2 10 6 14s8.66699 6 14 6h24c5.33301 0 10 -2 14 -6s6 -8.66699 6 -14v-80c0 -6.66699 3.33301 -10 10 -10h116c28.667 0 55.834 -5.5 81.501 -16.5s48 -26 67 -45s34 -41.333 45 -67s16.5 -52.834 16.5 -81.501
v-50z" />
    <glyph glyph-name="germandbls" unicode="&#xdf;" 
d="M83 517c0 28 4.50391 53.8262 13.5039 77.4932s21.5 44 37.5 61s35.333 30.333 58 40s47.667 14.5 75 14.5s52.333 -5 75 -15s42.167 -23.833 58.5 -41.5s29 -38.167 38 -61.5s13.5 -48.333 13.5 -75c0 -28 -5.33301 -53.5 -16 -76.5s-24.667 -43.167 -42 -60.5
c-3.33301 -3.33301 -5.5 -7.16602 -6.5 -11.499s0.833008 -8.5 5.5 -12.5c22 -19.333 39.833 -41.5 53.5 -66.5s20.5 -55.5 20.5 -91.5c0 -28.667 -5 -55.167 -15 -79.5s-23.833 -45.166 -41.5 -62.499s-38.834 -31 -63.501 -41s-51.334 -15 -80.001 -15h-20
c-5.33301 0 -10 2 -14 6s-6 8.66699 -6 14v19c0 5.33301 2 10 6 14s8.66699 6 14 6h20c19.333 0 37.666 3.66699 54.999 11s32.333 17.333 45 30s22.667 27.334 30 44.001s11 34.667 11 54c0 18 -3.16699 35.333 -9.5 52s-15.333 31.334 -27 44.001
s-26.167 22.834 -43.5 30.501s-37 11.5 -59 11.5h-7c-5.33301 0 -10 2 -14 6s-6 8.66699 -6 14v20c0 5.33301 2 10 6 14s8.66699 6 14 6h7c17.333 0 33.5 3 48.5 9s28.167 14.333 39.5 25s20.166 23.334 26.499 38.001s9.5 31 9.5 49c0 42 -11.667 74.833 -35 98.5
s-53.666 35.5 -90.999 35.5c-18.667 0 -35.667 -3.5 -51 -10.5s-28.333 -16.667 -39 -29s-18.834 -26.666 -24.501 -42.999s-8.5 -33.5 -8.5 -51.5v-497c0 -5.33301 -2 -10 -6 -14s-8.66699 -6 -14 -6h-21c-5.33301 0 -10 2 -14 6s-6 8.66699 -6 14v497z" />
    <glyph glyph-name="agrave" unicode="&#xe0;" 
d="M251 241c-28 0 -52.667 -7.66797 -74 -23.001s-32 -37.666 -32 -66.999c0 -18 3.16699 -33.5 9.5 -46.5s15 -23.833 26 -32.5s23.5 -15.167 37.5 -19.5s29 -6.5 45 -6.5c46 0 81.5 10.667 106.5 32s37.5 52.333 37.5 93v60c0 6.66699 -3.33301 10 -10 10h-146z
M283 454.999c-15.333 0 -30 -2.16211 -44 -6.49512s-26.333 -10.333 -37 -18s-19.334 -16.834 -26.001 -27.501s-10 -22.667 -10 -36c0 -8.66699 -2.66699 -13.667 -8 -15s-10.333 -2 -15 -2h-14c-13.333 0 -20 6.66699 -20 20c0 23.333 5 43.666 15 60.999
s23.333 31.833 40 43.5s35.334 20.5 56.001 26.5s41.667 9 63 9c24.667 0 47.834 -3.33301 69.501 -10s40.667 -16.834 57 -30.501s29.333 -30.834 39 -51.501s14.5 -45.334 14.5 -74.001v-324c0 -5.33301 -2 -10 -6 -14s-8.66699 -6 -14 -6h-9
c-6.66699 0 -11.334 2.33301 -14.001 7c-2.66699 4 -5 8.5 -7 13.5s-6.33301 7.5 -13 7.5c-4.66699 0 -10.667 -2 -18 -6s-16.333 -8.33301 -27 -13s-23.167 -9 -37.5 -13s-30.833 -6 -49.5 -6c-30.667 0 -57.5 4.33301 -80.5 13s-42 20.334 -57 35.001
s-26.167 31.667 -33.5 51s-11 39.666 -11 60.999c0 20.667 3.66699 40 11 58s18 33.5 32 46.5s31.333 23.167 52 30.5s44 11 70 11h143c6.66699 0 10 3.33301 10 10v39c0 32.667 -11.333 59.167 -34 79.5s-51.667 30.5 -87 30.5zM239 730.004
c7.33301 0 12.833 -1.83105 16.5 -5.49805s6.83398 -7.16699 9.50098 -10.5l76 -109c2.66699 -3.33301 2.66699 -7.5 0 -12.5s-7.33398 -7.5 -14.001 -7.5h-19c-9.33301 0 -15.833 1.16699 -19.5 3.5s-7.16699 5.16602 -10.5 8.49902l-108 112
c-3.33301 3.33301 -4 7.66602 -2 12.999s6.33301 8 13 8h58z" />
    <glyph glyph-name="aacute" unicode="&#xe1;" 
d="M251 241c-28 0 -52.667 -7.66797 -74 -23.001s-32 -37.666 -32 -66.999c0 -18 3.16699 -33.5 9.5 -46.5s15 -23.833 26 -32.5s23.5 -15.167 37.5 -19.5s29 -6.5 45 -6.5c46 0 81.5 10.667 106.5 32s37.5 52.333 37.5 93v60c0 6.66699 -3.33301 10 -10 10h-146z
M283 454.999c-15.333 0 -30 -2.16211 -44 -6.49512s-26.333 -10.333 -37 -18s-19.334 -16.834 -26.001 -27.501s-10 -22.667 -10 -36c0 -8.66699 -2.66699 -13.667 -8 -15s-10.333 -2 -15 -2h-14c-13.333 0 -20 6.66699 -20 20c0 23.333 5 43.666 15 60.999
s23.333 31.833 40 43.5s35.334 20.5 56.001 26.5s41.667 9 63 9c24.667 0 47.834 -3.33301 69.501 -10s40.667 -16.834 57 -30.501s29.333 -30.834 39 -51.501s14.5 -45.334 14.5 -74.001v-324c0 -5.33301 -2 -10 -6 -14s-8.66699 -6 -14 -6h-9
c-6.66699 0 -11.334 2.33301 -14.001 7c-2.66699 4 -5 8.5 -7 13.5s-6.33301 7.5 -13 7.5c-4.66699 0 -10.667 -2 -18 -6s-16.333 -8.33301 -27 -13s-23.167 -9 -37.5 -13s-30.833 -6 -49.5 -6c-30.667 0 -57.5 4.33301 -80.5 13s-42 20.334 -57 35.001
s-26.167 31.667 -33.5 51s-11 39.666 -11 60.999c0 20.667 3.66699 40 11 58s18 33.5 32 46.5s31.333 23.167 52 30.5s44 11 70 11h143c6.66699 0 10 3.33301 10 10v39c0 32.667 -11.333 59.167 -34 79.5s-51.667 30.5 -87 30.5zM409 730.004
c6.66699 0 11 -2.66895 13 -8.00195s1.33301 -9.66602 -2 -12.999l-108 -112c-3.33301 -3.33301 -6.83301 -6.16602 -10.5 -8.49902s-10.167 -3.5 -19.5 -3.5h-19c-6.66699 0 -11.334 2.5 -14.001 7.5s-2.66699 9.16699 0 12.5l76 109
c2.66699 3.33301 5.83398 6.83301 9.50098 10.5s9.16699 5.5 16.5 5.5h58z" />
    <glyph glyph-name="acircumflex" unicode="&#xe2;" 
d="M251 241c-28 0 -52.667 -7.66797 -74 -23.001s-32 -37.666 -32 -66.999c0 -18 3.16699 -33.5 9.5 -46.5s15 -23.833 26 -32.5s23.5 -15.167 37.5 -19.5s29 -6.5 45 -6.5c46 0 81.5 10.667 106.5 32s37.5 52.333 37.5 93v60c0 6.66699 -3.33301 10 -10 10h-146z
M283 454.999c-15.333 0 -30 -2.16211 -44 -6.49512s-26.333 -10.333 -37 -18s-19.334 -16.834 -26.001 -27.501s-10 -22.667 -10 -36c0 -8.66699 -2.66699 -13.667 -8 -15s-10.333 -2 -15 -2h-14c-13.333 0 -20 6.66699 -20 20c0 23.333 5 43.666 15 60.999
s23.333 31.833 40 43.5s35.334 20.5 56.001 26.5s41.667 9 63 9c24.667 0 47.834 -3.33301 69.501 -10s40.667 -16.834 57 -30.501s29.333 -30.834 39 -51.501s14.5 -45.334 14.5 -74.001v-324c0 -5.33301 -2 -10 -6 -14s-8.66699 -6 -14 -6h-9
c-6.66699 0 -11.334 2.33301 -14.001 7c-2.66699 4 -5 8.5 -7 13.5s-6.33301 7.5 -13 7.5c-4.66699 0 -10.667 -2 -18 -6s-16.333 -8.33301 -27 -13s-23.167 -9 -37.5 -13s-30.833 -6 -49.5 -6c-30.667 0 -57.5 4.33301 -80.5 13s-42 20.334 -57 35.001
s-26.167 31.667 -33.5 51s-11 39.666 -11 60.999c0 20.667 3.66699 40 11 58s18 33.5 32 46.5s31.333 23.167 52 30.5s44 11 70 11h143c6.66699 0 10 3.33301 10 10v39c0 32.667 -11.333 59.167 -34 79.5s-51.667 30.5 -87 30.5zM217 601.004
c-3.33301 -3.33301 -7.5 -6.83301 -12.5 -10.5s-11.167 -5.5 -18.5 -5.5h-43c-6.66699 0 -11 2.66699 -13 8s-1.33301 9.66602 2 12.999l118 112c3.33301 3.33301 6.83301 6.16602 10.5 8.49902s10.167 3.5 19.5 3.5h22c8.66699 0 14.834 -1.16699 18.501 -3.5
s7.16699 -5.16602 10.5 -8.49902l118 -112c3.33301 -3.33301 4 -7.66602 2 -12.999s-6.33301 -8 -13 -8h-43c-7.33301 0 -13.5 1.83301 -18.5 5.5s-9.16699 7.16699 -12.5 10.5l-67 65c-4.66699 4.66699 -9.33398 4.66699 -14.001 0z" />
    <glyph glyph-name="atilde" unicode="&#xe3;" 
d="M251 241c-28 0 -52.667 -7.66797 -74 -23.001s-32 -37.666 -32 -66.999c0 -18 3.16699 -33.5 9.5 -46.5s15 -23.833 26 -32.5s23.5 -15.167 37.5 -19.5s29 -6.5 45 -6.5c46 0 81.5 10.667 106.5 32s37.5 52.333 37.5 93v60c0 6.66699 -3.33301 10 -10 10h-146z
M283 454.999c-15.333 0 -30 -2.16211 -44 -6.49512s-26.333 -10.333 -37 -18s-19.334 -16.834 -26.001 -27.501s-10 -22.667 -10 -36c0 -8.66699 -2.66699 -13.667 -8 -15s-10.333 -2 -15 -2h-14c-13.333 0 -20 6.66699 -20 20c0 23.333 5 43.666 15 60.999
s23.333 31.833 40 43.5s35.334 20.5 56.001 26.5s41.667 9 63 9c24.667 0 47.834 -3.33301 69.501 -10s40.667 -16.834 57 -30.501s29.333 -30.834 39 -51.501s14.5 -45.334 14.5 -74.001v-324c0 -5.33301 -2 -10 -6 -14s-8.66699 -6 -14 -6h-9
c-6.66699 0 -11.334 2.33301 -14.001 7c-2.66699 4 -5 8.5 -7 13.5s-6.33301 7.5 -13 7.5c-4.66699 0 -10.667 -2 -18 -6s-16.333 -8.33301 -27 -13s-23.167 -9 -37.5 -13s-30.833 -6 -49.5 -6c-30.667 0 -57.5 4.33301 -80.5 13s-42 20.334 -57 35.001
s-26.167 31.667 -33.5 51s-11 39.666 -11 60.999c0 20.667 3.66699 40 11 58s18 33.5 32 46.5s31.333 23.167 52 30.5s44 11 70 11h143c6.66699 0 10 3.33301 10 10v39c0 32.667 -11.333 59.167 -34 79.5s-51.667 30.5 -87 30.5zM360 676.004
c12.667 0 22.5 2.17188 29.5 6.50488s12.5 9.16602 16.5 14.499s9.16699 6.66602 15.5 3.99902s9.5 -8.66699 9.5 -18v-24c0 -13.333 -6.83301 -25.166 -20.5 -35.499s-30.5 -15.5 -50.5 -15.5c-16 0 -29.167 1.33301 -39.5 4s-20 5.5 -29 8.5s-19 5.83301 -30 8.5
s-24.833 4 -41.5 4c-11.333 0 -20.5 -1.83301 -27.5 -5.5s-13.167 -8.83398 -18.5 -15.501c-4 -4.66699 -9.16699 -5.83398 -15.5 -3.50098s-9.5 8.16602 -9.5 17.499v24c0 13.333 6.83301 25.166 20.5 35.499s30.5 15.5 50.5 15.5c16 0 29.167 -1.33301 39.5 -4
s20 -5.5 29 -8.5s18.833 -5.83301 29.5 -8.5s24.667 -4 42 -4z" />
    <glyph glyph-name="adieresis" unicode="&#xe4;" 
d="M251 241c-28 0 -52.667 -7.66797 -74 -23.001s-32 -37.666 -32 -66.999c0 -18 3.16699 -33.5 9.5 -46.5s15 -23.833 26 -32.5s23.5 -15.167 37.5 -19.5s29 -6.5 45 -6.5c46 0 81.5 10.667 106.5 32s37.5 52.333 37.5 93v60c0 6.66699 -3.33301 10 -10 10h-146z
M283 454.999c-15.333 0 -30 -2.16211 -44 -6.49512s-26.333 -10.333 -37 -18s-19.334 -16.834 -26.001 -27.501s-10 -22.667 -10 -36c0 -8.66699 -2.66699 -13.667 -8 -15s-10.333 -2 -15 -2h-14c-13.333 0 -20 6.66699 -20 20c0 23.333 5 43.666 15 60.999
s23.333 31.833 40 43.5s35.334 20.5 56.001 26.5s41.667 9 63 9c24.667 0 47.834 -3.33301 69.501 -10s40.667 -16.834 57 -30.501s29.333 -30.834 39 -51.501s14.5 -45.334 14.5 -74.001v-324c0 -5.33301 -2 -10 -6 -14s-8.66699 -6 -14 -6h-9
c-6.66699 0 -11.334 2.33301 -14.001 7c-2.66699 4 -5 8.5 -7 13.5s-6.33301 7.5 -13 7.5c-4.66699 0 -10.667 -2 -18 -6s-16.333 -8.33301 -27 -13s-23.167 -9 -37.5 -13s-30.833 -6 -49.5 -6c-30.667 0 -57.5 4.33301 -80.5 13s-42 20.334 -57 35.001
s-26.167 31.667 -33.5 51s-11 39.666 -11 60.999c0 20.667 3.66699 40 11 58s18 33.5 32 46.5s31.333 23.167 52 30.5s44 11 70 11h143c6.66699 0 10 3.33301 10 10v39c0 32.667 -11.333 59.167 -34 79.5s-51.667 30.5 -87 30.5zM246 638.004
c0 -10.667 -5.33301 -16 -16 -16h-52c-10.667 0 -16 5.33301 -16 16v53c0 4 1.5 7.66699 4.5 11s6.83301 5 11.5 5h52c4.66699 0 8.5 -1.66699 11.5 -5s4.5 -7 4.5 -11v-53zM417 638.004c0 -10.667 -5.33301 -16 -16 -16h-52c-10.667 0 -16 5.33301 -16 16v53
c0 4 1.5 7.66699 4.5 11s6.83301 5 11.5 5h52c4.66699 0 8.5 -1.66699 11.5 -5s4.5 -7 4.5 -11v-53z" />
    <glyph glyph-name="aring" unicode="&#xe5;" 
d="M251 241c-28 0 -52.667 -7.66797 -74 -23.001s-32 -37.666 -32 -66.999c0 -18 3.16699 -33.5 9.5 -46.5s15 -23.833 26 -32.5s23.5 -15.167 37.5 -19.5s29 -6.5 45 -6.5c46 0 81.5 10.667 106.5 32s37.5 52.333 37.5 93v60c0 6.66699 -3.33301 10 -10 10h-146z
M283 454.999c-15.333 0 -30 -2.16211 -44 -6.49512s-26.333 -10.333 -37 -18s-19.334 -16.834 -26.001 -27.501s-10 -22.667 -10 -36c0 -8.66699 -2.66699 -13.667 -8 -15s-10.333 -2 -15 -2h-14c-13.333 0 -20 6.66699 -20 20c0 23.333 5 43.666 15 60.999
s23.333 31.833 40 43.5s35.334 20.5 56.001 26.5s41.667 9 63 9c24.667 0 47.834 -3.33301 69.501 -10s40.667 -16.834 57 -30.501s29.333 -30.834 39 -51.501s14.5 -45.334 14.5 -74.001v-324c0 -5.33301 -2 -10 -6 -14s-8.66699 -6 -14 -6h-9
c-6.66699 0 -11.334 2.33301 -14.001 7c-2.66699 4 -5 8.5 -7 13.5s-6.33301 7.5 -13 7.5c-4.66699 0 -10.667 -2 -18 -6s-16.333 -8.33301 -27 -13s-23.167 -9 -37.5 -13s-30.833 -6 -49.5 -6c-30.667 0 -57.5 4.33301 -80.5 13s-42 20.334 -57 35.001
s-26.167 31.667 -33.5 51s-11 39.666 -11 60.999c0 20.667 3.66699 40 11 58s18 33.5 32 46.5s31.333 23.167 52 30.5s44 11 70 11h143c6.66699 0 10 3.33301 10 10v39c0 32.667 -11.333 59.167 -34 79.5s-51.667 30.5 -87 30.5zM180 670.004
c0 15.333 2.83301 29.666 8.5 42.999s13.5 25 23.5 35s21.667 17.833 35 23.5s27.666 8.5 42.999 8.5s29.666 -2.83301 42.999 -8.5s25 -13.5 35 -23.5s17.833 -21.667 23.5 -35s8.5 -27.666 8.5 -42.999s-2.83301 -29.666 -8.5 -42.999s-13.5 -25 -23.5 -35
s-21.667 -17.833 -35 -23.5s-27.666 -8.5 -42.999 -8.5s-29.666 2.83301 -42.999 8.5s-25 13.5 -35 23.5s-17.833 21.667 -23.5 35s-8.5 27.666 -8.5 42.999zM234 670.004c0 -15.333 5.5 -28.5 16.5 -39.5s24.167 -16.5 39.5 -16.5c16 0 29.167 5.5 39.5 16.5
s15.5 24.167 15.5 39.5c0 16 -5.16699 29.167 -15.5 39.5s-23.5 15.5 -39.5 15.5c-15.333 0 -28.5 -5.16699 -39.5 -15.5s-16.5 -23.5 -16.5 -39.5z" />
    <glyph glyph-name="ae" unicode="&#xe6;" 
d="M289 38c-4 5.33301 -10.667 8.00098 -20 8.00098s-16 -3 -20 -9c-10 -14.667 -23 -26.167 -39 -34.5s-35 -12.5 -57 -12.5c-26 0 -48.333 4.66699 -67 14s-34 21.5 -46 36.5s-20.667 32 -26 51s-8 38.5 -8 58.5s3.5 38.833 10.5 56.5s17.333 33.167 31 46.5
s30 23.833 49 31.5s40.5 11.5 64.5 11.5h67c6.66699 0 10 3.33301 10 10v39c0 32.667 -6.33301 59.167 -19 79.5s-31.334 30.5 -56.001 30.5c-27.333 0 -48 -8 -62 -24s-21 -37.333 -21 -64c0 -8.66699 -2.66699 -13.667 -8 -15s-10.333 -2 -15 -2h-14
c-13.333 0 -20 6.66699 -20 20c0 22 3.66699 41.667 11 59s17.166 32 29.499 44s27 21.167 44 27.5s35.5 9.5 55.5 9.5c23.333 0 43.166 -4.16699 59.499 -12.5s29.833 -19.5 40.5 -33.5c3.33301 -4.66699 8.16602 -7 14.499 -7s11.5 2.33301 15.5 7
c12 14 26.167 25.167 42.5 33.5s36.166 12.5 59.499 12.5c22.667 0 43.334 -5.16699 62.001 -15.5s34.5 -24.5 47.5 -42.5s23 -39.167 30 -63.5s10.5 -50.5 10.5 -78.5v-64c-0.666992 -5.33301 -2.83398 -10 -6.50098 -14s-8.16699 -6 -13.5 -6h-217
c-6.66699 0 -10 -3.33301 -10 -10c0 -24 1.83301 -46.167 5.5 -66.5s9.5 -38 17.5 -53s18.167 -26.667 30.5 -35s26.833 -12.5 43.5 -12.5c14 0 26 2.83301 36 8.5s18.333 13 25 22s12.167 19.167 16.5 30.5s7.5 22.333 9.5 33c1.33301 6.66699 4.33301 11.167 9 13.5
s9.33398 3.5 14.001 3.5h17c5.33301 0 9.83301 -1.5 13.5 -4.5s4.83398 -8.16699 3.50098 -15.5c-3.33301 -19.333 -8.66602 -38 -15.999 -56s-17 -34 -29 -48s-26.167 -25.167 -42.5 -33.5s-35.166 -12.5 -56.499 -12.5c-24.667 0 -45.667 4.16699 -63 12.5
s-31.666 20.166 -42.999 35.499zM161 241.001c-28.667 0 -51.833 -8.33203 -69.5 -24.999s-26.5 -38.334 -26.5 -65.001c0 -34 7.5 -60 22.5 -78s36.833 -27 65.5 -27c26 0 47.167 12.5 63.5 37.5s24.5 58.833 24.5 101.5v46c0 6.66699 -3.33301 10 -10 10h-70z
M300.001 292.002c0 -6.66699 3.33301 -10.001 10 -10.001h170c6.66699 0 10 3.33301 10 10c0 46.667 -7.33301 84.834 -22 114.501s-38.667 44.5 -72 44.5c-30 0 -53.5 -14 -70.5 -42s-25.5 -67 -25.5 -117z" />
    <glyph glyph-name="ccedilla" unicode="&#xe7;" 
d="M283 49c22 0 41 3.49902 57 10.499s29.333 16 40 27s18.5 23.167 23.5 36.5s7.5 26.666 7.5 39.999c0 6.66699 2 11.167 6 13.5s8.33301 3.5 13 3.5h21c5.33301 0 10 -2 14 -6s6 -8.66699 6 -14c0 -22.667 -4.5 -44.167 -13.5 -64.5s-21.833 -38.333 -38.5 -54
s-36.5 -28.167 -59.5 -37.5s-48.5 -14 -76.5 -14c-30 0 -57 5 -81 15s-44.667 23.5 -62 40.5s-31 37.167 -41 60.5s-16 48 -18 74c-1.33301 20 -2 43.333 -2 70s0.666992 50 2 70c2 26 8 50.667 18 74s23.667 43.5 41 60.5s38 30.5 62 40.5s51 15 81 15
c28 0 53.5 -4.66699 76.5 -14s42.833 -21.833 59.5 -37.5s29.5 -33.667 38.5 -54s13.5 -41.833 13.5 -64.5c0 -5.33301 -1.5 -10 -4.5 -14s-7.16699 -6 -12.5 -6h-23c-4.66699 0 -9 1.33301 -13 4s-6 6.66699 -6 12c0 14.667 -2.83301 29 -8.5 43s-14 26.333 -25 37
s-24.5 19.167 -40.5 25.5s-34.333 9.5 -55 9.5c-25.333 0 -46.666 -4.33301 -63.999 -13s-31.5 -19.5 -42.5 -32.5s-19.167 -27.167 -24.5 -42.5s-8.66602 -29.666 -9.99902 -42.999c-2 -20.667 -3 -44 -3 -70s1 -49.333 3 -70
c1.33301 -13.333 4.66602 -27.666 9.99902 -42.999s13.5 -29.5 24.5 -42.5s25.167 -23.833 42.5 -32.5s38.666 -13 63.999 -13zM287 -184.001c-2.66699 -10.667 -9 -16 -19 -16h-37c-6.66699 0 -11.334 1.83301 -14.001 5.5s-3.33398 7.83398 -2.00098 12.501l38 121
c2.66699 10.667 9 16 19 16h27c6.66699 0 11.334 -1.83301 14.001 -5.5s3.33398 -7.83398 2.00098 -12.501z" />
    <glyph glyph-name="egrave" unicode="&#xe8;" 
d="M132 216c0 -24 2.83203 -46.1699 8.49902 -66.5029s14.5 -38 26.5 -53s27.167 -26.667 45.5 -35s40.5 -12.5 66.5 -12.5c19.333 0 36.5 2.66699 51.5 8s28 12.5 39 21.5s20 19 27 30s12.5 22.5 16.5 34.5c2 6.66699 5.16699 11.167 9.5 13.5s8.83301 3.5 13.5 3.5h20
c5.33301 0 9.83301 -1.5 13.5 -4.5s4.83398 -8.16699 3.50098 -15.5c-3.33301 -22 -10.333 -42.167 -21 -60.5s-24.5 -34.166 -41.5 -47.499s-36.667 -23.666 -59 -30.999s-46.5 -11 -72.5 -11c-30 0 -57.167 5 -81.5 15s-45.333 23.5 -63 40.5s-31.667 37.167 -42 60.5
s-16.5 48 -18.5 74c-1.33301 20 -2 43.333 -2 70s0.666992 50 2 70c2 26 8.16699 50.667 18.5 74s24.333 43.5 42 60.5s38.667 30.5 63 40.5s51.5 15 81.5 15c28 0 54.167 -5.33301 78.5 -16s45.5 -25 63.5 -43s32.167 -39.167 42.5 -63.5s15.5 -50.166 15.5 -77.499v-64
c0 -5.33301 -2 -10 -6 -14s-8.66699 -6 -14 -6h-317c-6.66699 0 -10 -3.33301 -10 -10zM133.999 291.997c0 -6.66699 3.33301 -10.002 10 -10.002h270c6.66699 0 10 3.33301 10 10c0 25.333 -3.66699 47.833 -11 67.5s-17.5 36.334 -30.5 50.001s-28.167 24 -45.5 31
s-36.333 10.5 -57 10.5c-44.667 0 -80.167 -13.667 -106.5 -41s-39.5 -66.666 -39.5 -117.999zM228.999 729.995c7.33301 0 12.833 -1.83105 16.5 -5.49805s6.83398 -7.16699 9.50098 -10.5l76 -109c2.66699 -3.33301 2.66699 -7.5 0 -12.5s-7.33398 -7.5 -14.001 -7.5h-19
c-9.33301 0 -15.833 1.16699 -19.5 3.5s-7.16699 5.16602 -10.5 8.49902l-108 112c-3.33301 3.33301 -4 7.66602 -2 12.999s6.33301 8 13 8h58z" />
    <glyph glyph-name="eacute" unicode="&#xe9;" 
d="M132 216c0 -24 2.83203 -46.1699 8.49902 -66.5029s14.5 -38 26.5 -53s27.167 -26.667 45.5 -35s40.5 -12.5 66.5 -12.5c19.333 0 36.5 2.66699 51.5 8s28 12.5 39 21.5s20 19 27 30s12.5 22.5 16.5 34.5c2 6.66699 5.16699 11.167 9.5 13.5s8.83301 3.5 13.5 3.5h20
c5.33301 0 9.83301 -1.5 13.5 -4.5s4.83398 -8.16699 3.50098 -15.5c-3.33301 -22 -10.333 -42.167 -21 -60.5s-24.5 -34.166 -41.5 -47.499s-36.667 -23.666 -59 -30.999s-46.5 -11 -72.5 -11c-30 0 -57.167 5 -81.5 15s-45.333 23.5 -63 40.5s-31.667 37.167 -42 60.5
s-16.5 48 -18.5 74c-1.33301 20 -2 43.333 -2 70s0.666992 50 2 70c2 26 8.16699 50.667 18.5 74s24.333 43.5 42 60.5s38.667 30.5 63 40.5s51.5 15 81.5 15c28 0 54.167 -5.33301 78.5 -16s45.5 -25 63.5 -43s32.167 -39.167 42.5 -63.5s15.5 -50.166 15.5 -77.499v-64
c0 -5.33301 -2 -10 -6 -14s-8.66699 -6 -14 -6h-317c-6.66699 0 -10 -3.33301 -10 -10zM133.999 291.997c0 -6.66699 3.33301 -10.002 10 -10.002h270c6.66699 0 10 3.33301 10 10c0 25.333 -3.66699 47.833 -11 67.5s-17.5 36.334 -30.5 50.001s-28.167 24 -45.5 31
s-36.333 10.5 -57 10.5c-44.667 0 -80.167 -13.667 -106.5 -41s-39.5 -66.666 -39.5 -117.999zM398.999 729.995c6.66699 0 11 -2.66895 13 -8.00195s1.33301 -9.66602 -2 -12.999l-108 -112c-3.33301 -3.33301 -6.83301 -6.16602 -10.5 -8.49902s-10.167 -3.5 -19.5 -3.5
h-19c-6.66699 0 -11.334 2.5 -14.001 7.5s-2.66699 9.16699 0 12.5l76 109c2.66699 3.33301 5.83398 6.83301 9.50098 10.5s9.16699 5.5 16.5 5.5h58z" />
    <glyph glyph-name="ecircumflex" unicode="&#xea;" 
d="M132 216c0 -24 2.83203 -46.1699 8.49902 -66.5029s14.5 -38 26.5 -53s27.167 -26.667 45.5 -35s40.5 -12.5 66.5 -12.5c19.333 0 36.5 2.66699 51.5 8s28 12.5 39 21.5s20 19 27 30s12.5 22.5 16.5 34.5c2 6.66699 5.16699 11.167 9.5 13.5s8.83301 3.5 13.5 3.5h20
c5.33301 0 9.83301 -1.5 13.5 -4.5s4.83398 -8.16699 3.50098 -15.5c-3.33301 -22 -10.333 -42.167 -21 -60.5s-24.5 -34.166 -41.5 -47.499s-36.667 -23.666 -59 -30.999s-46.5 -11 -72.5 -11c-30 0 -57.167 5 -81.5 15s-45.333 23.5 -63 40.5s-31.667 37.167 -42 60.5
s-16.5 48 -18.5 74c-1.33301 20 -2 43.333 -2 70s0.666992 50 2 70c2 26 8.16699 50.667 18.5 74s24.333 43.5 42 60.5s38.667 30.5 63 40.5s51.5 15 81.5 15c28 0 54.167 -5.33301 78.5 -16s45.5 -25 63.5 -43s32.167 -39.167 42.5 -63.5s15.5 -50.166 15.5 -77.499v-64
c0 -5.33301 -2 -10 -6 -14s-8.66699 -6 -14 -6h-317c-6.66699 0 -10 -3.33301 -10 -10zM133.999 291.997c0 -6.66699 3.33301 -10.002 10 -10.002h270c6.66699 0 10 3.33301 10 10c0 25.333 -3.66699 47.833 -11 67.5s-17.5 36.334 -30.5 50.001s-28.167 24 -45.5 31
s-36.333 10.5 -57 10.5c-44.667 0 -80.167 -13.667 -106.5 -41s-39.5 -66.666 -39.5 -117.999zM211.999 600.995c-3.33301 -3.33301 -7.5 -6.83301 -12.5 -10.5s-11.167 -5.5 -18.5 -5.5h-43c-6.66699 0 -11 2.66699 -13 8s-1.33301 9.66602 2 12.999l118 112
c3.33301 3.33301 6.83301 6.16602 10.5 8.49902s10.167 3.5 19.5 3.5h22c8.66699 0 14.834 -1.16699 18.501 -3.5s7.16699 -5.16602 10.5 -8.49902l118 -112c3.33301 -3.33301 4 -7.66602 2 -12.999s-6.33301 -8 -13 -8h-43c-7.33301 0 -13.5 1.83301 -18.5 5.5
s-9.16699 7.16699 -12.5 10.5l-67 65c-4.66699 4.66699 -9.33398 4.66699 -14.001 0z" />
    <glyph glyph-name="edieresis" unicode="&#xeb;" 
d="M132 216c0 -24 2.83203 -46.1699 8.49902 -66.5029s14.5 -38 26.5 -53s27.167 -26.667 45.5 -35s40.5 -12.5 66.5 -12.5c19.333 0 36.5 2.66699 51.5 8s28 12.5 39 21.5s20 19 27 30s12.5 22.5 16.5 34.5c2 6.66699 5.16699 11.167 9.5 13.5s8.83301 3.5 13.5 3.5h20
c5.33301 0 9.83301 -1.5 13.5 -4.5s4.83398 -8.16699 3.50098 -15.5c-3.33301 -22 -10.333 -42.167 -21 -60.5s-24.5 -34.166 -41.5 -47.499s-36.667 -23.666 -59 -30.999s-46.5 -11 -72.5 -11c-30 0 -57.167 5 -81.5 15s-45.333 23.5 -63 40.5s-31.667 37.167 -42 60.5
s-16.5 48 -18.5 74c-1.33301 20 -2 43.333 -2 70s0.666992 50 2 70c2 26 8.16699 50.667 18.5 74s24.333 43.5 42 60.5s38.667 30.5 63 40.5s51.5 15 81.5 15c28 0 54.167 -5.33301 78.5 -16s45.5 -25 63.5 -43s32.167 -39.167 42.5 -63.5s15.5 -50.166 15.5 -77.499v-64
c0 -5.33301 -2 -10 -6 -14s-8.66699 -6 -14 -6h-317c-6.66699 0 -10 -3.33301 -10 -10zM133.999 291.997c0 -6.66699 3.33301 -10.002 10 -10.002h270c6.66699 0 10 3.33301 10 10c0 25.333 -3.66699 47.833 -11 67.5s-17.5 36.334 -30.5 50.001s-28.167 24 -45.5 31
s-36.333 10.5 -57 10.5c-44.667 0 -80.167 -13.667 -106.5 -41s-39.5 -66.666 -39.5 -117.999zM240.999 637.995c0 -10.667 -5.33301 -16 -16 -16h-52c-10.667 0 -16 5.33301 -16 16v53c0 4 1.5 7.66699 4.5 11s6.83301 5 11.5 5h52c4.66699 0 8.5 -1.66699 11.5 -5
s4.5 -7 4.5 -11v-53zM411.999 637.995c0 -10.667 -5.33301 -16 -16 -16h-52c-10.667 0 -16 5.33301 -16 16v53c0 4 1.5 7.66699 4.5 11s6.83301 5 11.5 5h52c4.66699 0 8.5 -1.66699 11.5 -5s4.5 -7 4.5 -11v-53z" />
    <glyph glyph-name="igrave" unicode="&#xec;" 
d="M239 730c7.33301 0 12.833 -1.83105 16.5 -5.49805s6.83398 -7.16699 9.50098 -10.5l76 -109c2.66699 -3.33301 2.66699 -7.5 0 -12.5s-7.33398 -7.5 -14.001 -7.5h-19c-9.33301 0 -15.833 1.16699 -19.5 3.5s-7.16699 5.16602 -10.5 8.49902l-108 112
c-3.33301 3.33301 -4 7.66602 -2 12.999s6.33301 8 13 8h58zM131 440.002c-5.33301 0 -10 2 -14 6s-6 8.66699 -6 14v20c0 5.33301 2 10 6 14s8.66699 6 14 6h175c5.33301 0 10 -2 14 -6s6 -8.66699 6 -14v-410c0 -6.66699 3.33301 -10 10 -10h131c5.33301 0 10 -2 14 -6
s6 -8.66699 6 -14v-20c0 -5.33301 -2 -10 -6 -14s-8.66699 -6 -14 -6h-346c-5.33301 0 -10 2 -14 6s-6 8.66699 -6 14v20c0 5.33301 2 10 6 14s8.66699 6 14 6h135c6.66699 0 10 3.33301 10 10v360c0 6.66699 -3.33301 10 -10 10h-125z" />
    <glyph glyph-name="iacute" unicode="&#xed;" 
d="M399 730c6.66699 0 11 -2.66895 13 -8.00195s1.33301 -9.66602 -2 -12.999l-108 -112c-3.33301 -3.33301 -6.83301 -6.16602 -10.5 -8.49902s-10.167 -3.5 -19.5 -3.5h-19c-6.66699 0 -11.334 2.5 -14.001 7.5s-2.66699 9.16699 0 12.5l76 109
c2.66699 3.33301 5.83398 6.83301 9.50098 10.5s9.16699 5.5 16.5 5.5h58zM131 439.998c-5.33301 0 -10 2 -14 6s-6 8.66699 -6 14v20c0 5.33301 2 10 6 14s8.66699 6 14 6h175c5.33301 0 10 -2 14 -6s6 -8.66699 6 -14v-410c0 -6.66699 3.33301 -10 10 -10h131
c5.33301 0 10 -2 14 -6s6 -8.66699 6 -14v-20c0 -5.33301 -2 -10 -6 -14s-8.66699 -6 -14 -6h-346c-5.33301 0 -10 2 -14 6s-6 8.66699 -6 14v20c0 5.33301 2 10 6 14s8.66699 6 14 6h135c6.66699 0 10 3.33301 10 10v360c0 6.66699 -3.33301 10 -10 10h-125z" />
    <glyph glyph-name="icircumflex" unicode="&#xee;" 
d="M131 440c-5.33301 0 -10 2 -14 6s-6 8.66699 -6 14v20c0 5.33301 2 10 6 14s8.66699 6 14 6h175c5.33301 0 10 -2 14 -6s6 -8.66699 6 -14v-410c0 -6.66699 3.33301 -10 10 -10h131c5.33301 0 10 -2 14 -6s6 -8.66699 6 -14v-20c0 -5.33301 -2 -10 -6 -14
s-8.66699 -6 -14 -6h-346c-5.33301 0 -10 2 -14 6s-6 8.66699 -6 14v20c0 5.33301 2 10 6 14s8.66699 6 14 6h135c6.66699 0 10 3.33301 10 10v360c0 6.66699 -3.33301 10 -10 10h-125zM222 601c-3.33301 -3.33301 -7.5 -6.83301 -12.5 -10.5s-11.167 -5.5 -18.5 -5.5h-43
c-6.66699 0 -11 2.66699 -13 8s-1.33301 9.66602 2 12.999l118 112c3.33301 3.33301 6.83301 6.16602 10.5 8.49902s10.167 3.5 19.5 3.5h22c8.66699 0 14.834 -1.16699 18.501 -3.5s7.16699 -5.16602 10.5 -8.49902l118 -112c3.33301 -3.33301 4 -7.66602 2 -12.999
s-6.33301 -8 -13 -8h-43c-7.33301 0 -13.5 1.83301 -18.5 5.5s-9.16699 7.16699 -12.5 10.5l-67 65c-4.66699 4.66699 -9.33398 4.66699 -14.001 0z" />
    <glyph glyph-name="idieresis" unicode="&#xef;" 
d="M251 638c0 -10.667 -5.33301 -16 -16 -16h-52c-10.667 0 -16 5.33301 -16 16v53c0 4 1.5 7.66699 4.5 11s6.83301 5 11.5 5h52c4.66699 0 8.5 -1.66699 11.5 -5s4.5 -7 4.5 -11v-53zM422 638c0 -10.667 -5.33301 -16 -16 -16h-52c-10.667 0 -16 5.33301 -16 16v53
c0 4 1.5 7.66699 4.5 11s6.83301 5 11.5 5h52c4.66699 0 8.5 -1.66699 11.5 -5s4.5 -7 4.5 -11v-53zM131 440c-5.33301 0 -10 2 -14 6s-6 8.66699 -6 14v20c0 5.33301 2 10 6 14s8.66699 6 14 6h175c5.33301 0 10 -2 14 -6s6 -8.66699 6 -14v-410
c0 -6.66699 3.33301 -10 10 -10h131c5.33301 0 10 -2 14 -6s6 -8.66699 6 -14v-20c0 -5.33301 -2 -10 -6 -14s-8.66699 -6 -14 -6h-346c-5.33301 0 -10 2 -14 6s-6 8.66699 -6 14v20c0 5.33301 2 10 6 14s8.66699 6 14 6h135c6.66699 0 10 3.33301 10 10v360
c0 6.66699 -3.33301 10 -10 10h-125z" />
    <glyph glyph-name="eth" unicode="&#xf0;" 
d="M276 49c24.667 0 45.834 4.33301 63.501 13s32.167 19.5 43.5 32.5s19.833 27.167 25.5 42.5s9.16699 29.666 10.5 42.999c0.666992 10 1.16699 18.5 1.5 25.5s0.5 13.5 0.5 19.5s-0.166992 12.5 -0.5 19.5s-0.833008 15.5 -1.5 25.5
c-1.33301 13.333 -4.83301 27.666 -10.5 42.999s-14.167 29.5 -25.5 42.5s-25.833 23.833 -43.5 32.5s-38.834 13 -63.501 13c-25.333 0 -46.833 -4.33301 -64.5 -13s-32.167 -19.5 -43.5 -32.5s-19.833 -27.167 -25.5 -42.5s-8.83398 -29.666 -9.50098 -42.999
c-0.666992 -10 -1.16699 -18.5 -1.5 -25.5s-0.5 -13.5 -0.5 -19.5s0.166992 -12.5 0.5 -19.5s0.833008 -15.5 1.5 -25.5c0.666992 -13.333 3.83398 -27.666 9.50098 -42.999s14.167 -29.5 25.5 -42.5s25.833 -23.833 43.5 -32.5s39.167 -13 64.5 -13zM199 641
c-5.33301 0 -9.99805 1.99902 -13.998 5.99902s-6 8.66699 -6 14v19c0 5.33301 2 10 6 14s8.66699 6 14 6h36c23.333 0 45.166 -3.66699 65.499 -11s39.166 -17 56.499 -29c3.33301 -2 6.33301 -2 9 0c8 5.33301 17.833 11.333 29.5 18s26.167 15.667 43.5 27
c5.33301 3.33301 10.833 3.5 16.5 0.5s8.5 -7.83301 8.5 -14.5v-17c0 -6.66699 -0.833008 -11.5 -2.5 -14.5s-5.16699 -6.16699 -10.5 -9.5l-22 -14l-20 -13c-4.66699 -3.33301 -6 -6.66602 -4 -9.99902c18 -24.667 32.667 -53.5 44 -86.5s19.333 -68.5 24 -106.5
c4.66699 -40 7.5 -79.5 8.5 -118.5s-0.833008 -79.5 -5.5 -121.5c-2.66699 -26 -9 -50.667 -19 -74s-23.333 -43.5 -40 -60.5s-36.834 -30.5 -60.501 -40.5s-50.5 -15 -80.5 -15s-57.167 5 -81.5 15s-45.333 23.5 -63 40.5s-31.667 37.167 -42 60.5s-16.5 48 -18.5 74
c-0.666992 10 -1.16699 18.5 -1.5 25.5s-0.5 13.5 -0.5 19.5s0.166992 12.5 0.5 19.5s0.833008 15.5 1.5 25.5c2 26 8.16699 50.667 18.5 74s24.333 43.5 42 60.5s38.667 30.5 63 40.5s51.5 15 81.5 15c17.333 0 32.666 -1.83301 45.999 -5.5s25 -8 35 -13
s18.5 -10.333 25.5 -16s12.5 -10.5 16.5 -14.5c2.66699 -3.33301 5.16699 -4.33301 7.5 -3s3.5 3.66602 3.5 6.99902c-1.33301 32 -6.16602 61.833 -14.499 89.5s-19.166 52.167 -32.499 73.5c-3.33301 6 -6.66602 7.33301 -9.99902 4l-51.5 -29.5l-34.5 -20.5
c-5.33301 -3.33301 -11.333 -3.66602 -18 -0.999023s-10 7.66699 -10 15v11c0 5.33301 0.666992 10.166 2 14.499s5.66602 8.83301 12.999 13.5l21.5 12l27.5 16c4.66699 2.66699 6 5.83398 4 9.50098s-5 6.16699 -9 7.5c-18.667 7.33301 -39.667 11 -63 11h-36z" />
    <glyph glyph-name="ntilde" unicode="&#xf1;" 
d="M163 477c7.33301 0 14.166 1.66895 20.499 5.00195l22 11.5c8.33301 4.33301 18.5 8.16602 30.5 11.499s27.333 5 46 5c26 0 50 -3.66699 72 -11s41 -18.333 57 -33s28.333 -32.834 37 -54.501s13 -46.834 13 -75.501v-316c0 -5.33301 -2 -10 -6 -14s-8.66699 -6 -14 -6
h-19c-5.33301 0 -10 2 -14 6s-6 8.66699 -6 14v316c0 42 -12.167 71.667 -36.5 89s-54.5 26 -90.5 26c-18 0 -34.667 -2.83301 -50 -8.5s-28.833 -13.5 -40.5 -23.5s-20.667 -21.667 -27 -35s-9.5 -27.666 -9.5 -42.999v-321c0 -5.33301 -2 -10 -6 -14s-8.66699 -6 -14 -6
h-19c-5.33301 0 -10 2 -14 6s-6 8.66699 -6 14v460c0 5.33301 2 10 6 14s8.66699 6 14 6h16c4.66699 0 9.33398 -2.33301 14.001 -7l10 -10.5c3.33301 -3.66699 8 -5.5 14 -5.5zM345 676.002c12.667 0 22.5 2.17188 29.5 6.50488s12.5 9.16602 16.5 14.499
s9.16699 6.66602 15.5 3.99902s9.5 -8.66699 9.5 -18v-24c0 -13.333 -6.83301 -25.166 -20.5 -35.499s-30.5 -15.5 -50.5 -15.5c-16 0 -29.167 1.33301 -39.5 4s-20 5.5 -29 8.5s-19 5.83301 -30 8.5s-24.833 4 -41.5 4c-11.333 0 -20.5 -1.83301 -27.5 -5.5
s-13.167 -8.83398 -18.5 -15.501c-4 -4.66699 -9.16699 -5.83398 -15.5 -3.50098s-9.5 8.16602 -9.5 17.499v24c0 13.333 6.83301 25.166 20.5 35.499s30.5 15.5 50.5 15.5c16 0 29.167 -1.33301 39.5 -4s20 -5.5 29 -8.5s18.833 -5.83301 29.5 -8.5s24.667 -4 42 -4z" />
    <glyph glyph-name="ograve" unicode="&#xf2;" 
d="M275 510c30 0 57 -5 81 -15s44.667 -23.5 62 -40.5s31 -37.167 41 -60.5s16 -48 18 -74c1.33301 -20 2 -43.333 2 -70s-0.666992 -50 -2 -70c-2 -26 -8 -50.667 -18 -74s-23.667 -43.5 -41 -60.5s-38 -30.5 -62 -40.5s-51 -15 -81 -15s-57 5 -81 15
s-44.667 23.5 -62 40.5s-31 37.167 -41 60.5s-16 48 -18 74c-1.33301 20 -2 43.333 -2 70s0.666992 50 2 70c2 26 8 50.667 18 74s23.667 43.5 41 60.5s38 30.5 62 40.5s51 15 81 15zM275 49c24.667 0 45.834 4.33301 63.501 13s32 19.5 43 32.5s19.167 27.167 24.5 42.5
s8.66602 29.666 9.99902 42.999c2 20.667 3 44 3 70s-1 49.333 -3 70c-1.33301 13.333 -4.66602 27.666 -9.99902 42.999s-13.5 29.5 -24.5 42.5s-25.333 23.833 -43 32.5s-38.834 13 -63.501 13c-25.333 0 -46.666 -4.33301 -63.999 -13s-31.5 -19.5 -42.5 -32.5
s-19.167 -27.167 -24.5 -42.5s-8.66602 -29.666 -9.99902 -42.999c-2 -20.667 -3 -44 -3 -70s1 -49.333 3 -70c1.33301 -13.333 4.66602 -27.666 9.99902 -42.999s13.5 -29.5 24.5 -42.5s25.167 -23.833 42.5 -32.5s38.666 -13 63.999 -13zM229 730
c7.33301 0 12.833 -1.83105 16.5 -5.49805s6.83398 -7.16699 9.50098 -10.5l76 -109c2.66699 -3.33301 2.66699 -7.5 0 -12.5s-7.33398 -7.5 -14.001 -7.5h-19c-9.33301 0 -15.833 1.16699 -19.5 3.5s-7.16699 5.16602 -10.5 8.49902l-108 112
c-3.33301 3.33301 -4 7.66602 -2 12.999s6.33301 8 13 8h58z" />
    <glyph glyph-name="oacute" unicode="&#xf3;" 
d="M275 510c30 0 57 -5 81 -15s44.667 -23.5 62 -40.5s31 -37.167 41 -60.5s16 -48 18 -74c1.33301 -20 2 -43.333 2 -70s-0.666992 -50 -2 -70c-2 -26 -8 -50.667 -18 -74s-23.667 -43.5 -41 -60.5s-38 -30.5 -62 -40.5s-51 -15 -81 -15s-57 5 -81 15
s-44.667 23.5 -62 40.5s-31 37.167 -41 60.5s-16 48 -18 74c-1.33301 20 -2 43.333 -2 70s0.666992 50 2 70c2 26 8 50.667 18 74s23.667 43.5 41 60.5s38 30.5 62 40.5s51 15 81 15zM275 49c24.667 0 45.834 4.33301 63.501 13s32 19.5 43 32.5s19.167 27.167 24.5 42.5
s8.66602 29.666 9.99902 42.999c2 20.667 3 44 3 70s-1 49.333 -3 70c-1.33301 13.333 -4.66602 27.666 -9.99902 42.999s-13.5 29.5 -24.5 42.5s-25.333 23.833 -43 32.5s-38.834 13 -63.501 13c-25.333 0 -46.666 -4.33301 -63.999 -13s-31.5 -19.5 -42.5 -32.5
s-19.167 -27.167 -24.5 -42.5s-8.66602 -29.666 -9.99902 -42.999c-2 -20.667 -3 -44 -3 -70s1 -49.333 3 -70c1.33301 -13.333 4.66602 -27.666 9.99902 -42.999s13.5 -29.5 24.5 -42.5s25.167 -23.833 42.5 -32.5s38.666 -13 63.999 -13zM389 730
c6.66699 0 11 -2.66895 13 -8.00195s1.33301 -9.66602 -2 -12.999l-108 -112c-3.33301 -3.33301 -6.83301 -6.16602 -10.5 -8.49902s-10.167 -3.5 -19.5 -3.5h-19c-6.66699 0 -11.334 2.5 -14.001 7.5s-2.66699 9.16699 0 12.5l76 109
c2.66699 3.33301 5.83398 6.83301 9.50098 10.5s9.16699 5.5 16.5 5.5h58z" />
    <glyph glyph-name="ocircumflex" unicode="&#xf4;" 
d="M275 510c30 0 57 -5 81 -15s44.667 -23.5 62 -40.5s31 -37.167 41 -60.5s16 -48 18 -74c1.33301 -20 2 -43.333 2 -70s-0.666992 -50 -2 -70c-2 -26 -8 -50.667 -18 -74s-23.667 -43.5 -41 -60.5s-38 -30.5 -62 -40.5s-51 -15 -81 -15s-57 5 -81 15
s-44.667 23.5 -62 40.5s-31 37.167 -41 60.5s-16 48 -18 74c-1.33301 20 -2 43.333 -2 70s0.666992 50 2 70c2 26 8 50.667 18 74s23.667 43.5 41 60.5s38 30.5 62 40.5s51 15 81 15zM275 49c24.667 0 45.834 4.33301 63.501 13s32 19.5 43 32.5s19.167 27.167 24.5 42.5
s8.66602 29.666 9.99902 42.999c2 20.667 3 44 3 70s-1 49.333 -3 70c-1.33301 13.333 -4.66602 27.666 -9.99902 42.999s-13.5 29.5 -24.5 42.5s-25.333 23.833 -43 32.5s-38.834 13 -63.501 13c-25.333 0 -46.666 -4.33301 -63.999 -13s-31.5 -19.5 -42.5 -32.5
s-19.167 -27.167 -24.5 -42.5s-8.66602 -29.666 -9.99902 -42.999c-2 -20.667 -3 -44 -3 -70s1 -49.333 3 -70c1.33301 -13.333 4.66602 -27.666 9.99902 -42.999s13.5 -29.5 24.5 -42.5s25.167 -23.833 42.5 -32.5s38.666 -13 63.999 -13zM202 601
c-3.33301 -3.33301 -7.5 -6.83301 -12.5 -10.5s-11.167 -5.5 -18.5 -5.5h-43c-6.66699 0 -11 2.66699 -13 8s-1.33301 9.66602 2 12.999l118 112c3.33301 3.33301 6.83301 6.16602 10.5 8.49902s10.167 3.5 19.5 3.5h22c8.66699 0 14.834 -1.16699 18.501 -3.5
s7.16699 -5.16602 10.5 -8.49902l118 -112c3.33301 -3.33301 4 -7.66602 2 -12.999s-6.33301 -8 -13 -8h-43c-7.33301 0 -13.5 1.83301 -18.5 5.5s-9.16699 7.16699 -12.5 10.5l-67 65c-4.66699 4.66699 -9.33398 4.66699 -14.001 0z" />
    <glyph glyph-name="otilde" unicode="&#xf5;" 
d="M275 510c30 0 57 -5 81 -15s44.667 -23.5 62 -40.5s31 -37.167 41 -60.5s16 -48 18 -74c1.33301 -20 2 -43.333 2 -70s-0.666992 -50 -2 -70c-2 -26 -8 -50.667 -18 -74s-23.667 -43.5 -41 -60.5s-38 -30.5 -62 -40.5s-51 -15 -81 -15s-57 5 -81 15
s-44.667 23.5 -62 40.5s-31 37.167 -41 60.5s-16 48 -18 74c-1.33301 20 -2 43.333 -2 70s0.666992 50 2 70c2 26 8 50.667 18 74s23.667 43.5 41 60.5s38 30.5 62 40.5s51 15 81 15zM275 49c24.667 0 45.834 4.33301 63.501 13s32 19.5 43 32.5s19.167 27.167 24.5 42.5
s8.66602 29.666 9.99902 42.999c2 20.667 3 44 3 70s-1 49.333 -3 70c-1.33301 13.333 -4.66602 27.666 -9.99902 42.999s-13.5 29.5 -24.5 42.5s-25.333 23.833 -43 32.5s-38.834 13 -63.501 13c-25.333 0 -46.666 -4.33301 -63.999 -13s-31.5 -19.5 -42.5 -32.5
s-19.167 -27.167 -24.5 -42.5s-8.66602 -29.666 -9.99902 -42.999c-2 -20.667 -3 -44 -3 -70s1 -49.333 3 -70c1.33301 -13.333 4.66602 -27.666 9.99902 -42.999s13.5 -29.5 24.5 -42.5s25.167 -23.833 42.5 -32.5s38.666 -13 63.999 -13zM345 676
c12.667 0 22.5 2.17188 29.5 6.50488s12.5 9.16602 16.5 14.499s9.16699 6.66602 15.5 3.99902s9.5 -8.66699 9.5 -18v-24c0 -13.333 -6.83301 -25.166 -20.5 -35.499s-30.5 -15.5 -50.5 -15.5c-16 0 -29.167 1.33301 -39.5 4s-20 5.5 -29 8.5s-19 5.83301 -30 8.5
s-24.833 4 -41.5 4c-11.333 0 -20.5 -1.83301 -27.5 -5.5s-13.167 -8.83398 -18.5 -15.501c-4 -4.66699 -9.16699 -5.83398 -15.5 -3.50098s-9.5 8.16602 -9.5 17.499v24c0 13.333 6.83301 25.166 20.5 35.499s30.5 15.5 50.5 15.5c16 0 29.167 -1.33301 39.5 -4
s20 -5.5 29 -8.5s18.833 -5.83301 29.5 -8.5s24.667 -4 42 -4z" />
    <glyph glyph-name="odieresis" unicode="&#xf6;" 
d="M275 510c30 0 57 -5 81 -15s44.667 -23.5 62 -40.5s31 -37.167 41 -60.5s16 -48 18 -74c1.33301 -20 2 -43.333 2 -70s-0.666992 -50 -2 -70c-2 -26 -8 -50.667 -18 -74s-23.667 -43.5 -41 -60.5s-38 -30.5 -62 -40.5s-51 -15 -81 -15s-57 5 -81 15
s-44.667 23.5 -62 40.5s-31 37.167 -41 60.5s-16 48 -18 74c-1.33301 20 -2 43.333 -2 70s0.666992 50 2 70c2 26 8 50.667 18 74s23.667 43.5 41 60.5s38 30.5 62 40.5s51 15 81 15zM275 49c24.667 0 45.834 4.33301 63.501 13s32 19.5 43 32.5s19.167 27.167 24.5 42.5
s8.66602 29.666 9.99902 42.999c2 20.667 3 44 3 70s-1 49.333 -3 70c-1.33301 13.333 -4.66602 27.666 -9.99902 42.999s-13.5 29.5 -24.5 42.5s-25.333 23.833 -43 32.5s-38.834 13 -63.501 13c-25.333 0 -46.666 -4.33301 -63.999 -13s-31.5 -19.5 -42.5 -32.5
s-19.167 -27.167 -24.5 -42.5s-8.66602 -29.666 -9.99902 -42.999c-2 -20.667 -3 -44 -3 -70s1 -49.333 3 -70c1.33301 -13.333 4.66602 -27.666 9.99902 -42.999s13.5 -29.5 24.5 -42.5s25.167 -23.833 42.5 -32.5s38.666 -13 63.999 -13zM231 638
c0 -10.667 -5.33301 -16 -16 -16h-52c-10.667 0 -16 5.33301 -16 16v53c0 4 1.5 7.66699 4.5 11s6.83301 5 11.5 5h52c4.66699 0 8.5 -1.66699 11.5 -5s4.5 -7 4.5 -11v-53zM402 638c0 -10.667 -5.33301 -16 -16 -16h-52c-10.667 0 -16 5.33301 -16 16v53
c0 4 1.5 7.66699 4.5 11s6.83301 5 11.5 5h52c4.66699 0 8.5 -1.66699 11.5 -5s4.5 -7 4.5 -11v-53z" />
    <glyph glyph-name="divide" unicode="&#xf7;" 
d="M465 286c5.33301 0 10 -2 14 -6s6 -8.66699 6 -14v-30c0 -5.33301 -2 -10 -6 -14s-8.66699 -6 -14 -6h-380c-5.33301 0 -10 2 -14 6s-6 8.66699 -6 14v30c0 5.33301 2 10 6 14s8.66699 6 14 6h380zM328 20c0 -5.33301 -2 -10 -6 -14s-8.66699 -6 -14 -6h-70
c-5.33301 0 -10 2 -14 6s-6 8.66699 -6 14v70c0 5.33301 2 10 6 14s8.66699 6 14 6h70c5.33301 0 10 -2 14 -6s6 -8.66699 6 -14v-70zM328 400c0 -5.33301 -2 -10 -6 -14s-8.66699 -6 -14 -6h-70c-5.33301 0 -10 2 -14 6s-6 8.66699 -6 14v70c0 5.33301 2 10 6 14
s8.66699 6 14 6h70c5.33301 0 10 -2 14 -6s6 -8.66699 6 -14v-70z" />
    <glyph glyph-name="oslash" unicode="&#xf8;" 
d="M124 15c-8 -10 -15.6611 -15 -22.9941 -15h-29c-6.66699 0 -11.167 2.5 -13.5 7.5s-0.833008 10.833 4.5 17.5l38 48c2.66699 3.33301 3.66699 5.5 3 6.5s-1.33398 2.16699 -2.00098 3.5c-16.667 28 -26.667 60.333 -30 97c-1.33301 20 -2 43.333 -2 70s0.666992 50 2 70
c2 26 8 50.667 18 74s23.667 43.5 41 60.5s38 30.5 62 40.5s51 15 81 15c27.333 0 51.666 -4 72.999 -12s40.666 -19.333 57.999 -34c0.666992 -0.666992 1.66699 -1.16699 3 -1.5s2.66602 0.5 3.99902 2.5l16 20c4 5.33301 7.5 9.16602 10.5 11.499s6.83301 3.5 11.5 3.5
h26c6.66699 0 11.5 -2.66699 14.5 -8s1.83301 -11 -3.5 -17l-40 -51c-2.66699 -3.33301 -3 -6 -1 -8c16.667 -28 26.667 -60 30 -96c1.33301 -20 2 -43.333 2 -70s-0.666992 -50 -2 -70c-2 -26 -8 -50.667 -18 -74s-23.667 -43.5 -41 -60.5s-38 -30.5 -62 -40.5
s-51 -15 -81 -15c-26.667 0 -50.834 3.83301 -72.501 11.5s-40.834 18.167 -57.501 31.5c-0.666992 0.666992 -1.5 1.33398 -2.5 2.00098s-2.5 -0.333008 -4.5 -3zM274.006 451c-25.333 0 -46.6689 -4.33594 -64.002 -13.0029s-31.5 -19.5 -42.5 -32.5
s-19.167 -27.167 -24.5 -42.5s-8.66602 -29.666 -9.99902 -42.999c-2 -20.667 -3 -44 -3 -70s1 -49.333 3 -70c1.33301 -14.667 4.66602 -29 9.99902 -43c0.666992 -1.33301 1.5 -2.66602 2.5 -3.99902s2.5 -0.666016 4.5 2.00098l219 275c2 2.66699 2 5 0 7
c-11.333 9.33301 -24.666 17.333 -39.999 24s-33.666 10 -54.999 10zM274.003 48.9971c24.667 0 45.833 4.33301 63.5 13s32 19.5 43 32.5s19.167 27.167 24.5 42.5s8.66602 29.666 9.99902 42.999c2 20.667 3 44 3 70s-1 49.333 -3 70l-4 21.5
c-1.33301 7 -3.66602 14.167 -6.99902 21.5c-0.666992 1.33301 -1.33398 2.33301 -2.00098 3s-2 -0.333008 -4 -3l-216 -275c-2 -2.66699 -2.66699 -4.66699 -2 -6s1.33398 -2.33301 2.00098 -3c11.333 -9.33301 24.5 -16.666 39.5 -21.999s32.5 -8 52.5 -8z" />
    <glyph glyph-name="ugrave" unicode="&#xf9;" 
d="M387 23c-7.33301 0 -14.166 -1.66895 -20.499 -5.00195l-22 -11.5c-8.33301 -4.33301 -18.5 -8.16602 -30.5 -11.499s-27.333 -5 -46 -5c-26 0 -50 3.66699 -72 11s-41 18.333 -57 33s-28.333 32.834 -37 54.501s-13 46.834 -13 75.501v316c0 5.33301 2 10 6 14
s8.66699 6 14 6h19c5.33301 0 10 -2 14 -6s6 -8.66699 6 -14v-316c0 -42 12.167 -71.667 36.5 -89s54.5 -26 90.5 -26c18 0 34.667 2.83301 50 8.5s28.833 13.5 40.5 23.5s20.667 21.667 27 35s9.5 27.666 9.5 42.999v321c0 5.33301 2 10 6 14s8.66699 6 14 6h19
c5.33301 0 10 -2 14 -6s6 -8.66699 6 -14v-460c0 -5.33301 -2 -10 -6 -14s-8.66699 -6 -14 -6h-16c-4.66699 -0 -9.33398 2.33301 -14.001 7l-10 10.5c-3.33301 3.66699 -8 5.5 -14 5.5zM219 729.998c7.33301 0 12.833 -1.83105 16.5 -5.49805
s6.83398 -7.16699 9.50098 -10.5l76 -109c2.66699 -3.33301 2.66699 -7.5 0 -12.5s-7.33398 -7.5 -14.001 -7.5h-19c-9.33301 0 -15.833 1.16699 -19.5 3.5s-7.16699 5.16602 -10.5 8.49902l-108 112c-3.33301 3.33301 -4 7.66602 -2 12.999s6.33301 8 13 8h58z" />
    <glyph glyph-name="uacute" unicode="&#xfa;" 
d="M387 23c-7.33301 0 -14.166 -1.66895 -20.499 -5.00195l-22 -11.5c-8.33301 -4.33301 -18.5 -8.16602 -30.5 -11.499s-27.333 -5 -46 -5c-26 0 -50 3.66699 -72 11s-41 18.333 -57 33s-28.333 32.834 -37 54.501s-13 46.834 -13 75.501v316c0 5.33301 2 10 6 14
s8.66699 6 14 6h19c5.33301 0 10 -2 14 -6s6 -8.66699 6 -14v-316c0 -42 12.167 -71.667 36.5 -89s54.5 -26 90.5 -26c18 0 34.667 2.83301 50 8.5s28.833 13.5 40.5 23.5s20.667 21.667 27 35s9.5 27.666 9.5 42.999v321c0 5.33301 2 10 6 14s8.66699 6 14 6h19
c5.33301 0 10 -2 14 -6s6 -8.66699 6 -14v-460c0 -5.33301 -2 -10 -6 -14s-8.66699 -6 -14 -6h-16c-4.66699 -0 -9.33398 2.33301 -14.001 7l-10 10.5c-3.33301 3.66699 -8 5.5 -14 5.5zM389 729.998c6.66699 0 11 -2.66895 13 -8.00195s1.33301 -9.66602 -2 -12.999
l-108 -112c-3.33301 -3.33301 -6.83301 -6.16602 -10.5 -8.49902s-10.167 -3.5 -19.5 -3.5h-19c-6.66699 0 -11.334 2.5 -14.001 7.5s-2.66699 9.16699 0 12.5l76 109c2.66699 3.33301 5.83398 6.83301 9.50098 10.5s9.16699 5.5 16.5 5.5h58z" />
    <glyph glyph-name="ucircumflex" unicode="&#xfb;" 
d="M387 23c-7.33301 0 -14.166 -1.66895 -20.499 -5.00195l-22 -11.5c-8.33301 -4.33301 -18.5 -8.16602 -30.5 -11.499s-27.333 -5 -46 -5c-26 0 -50 3.66699 -72 11s-41 18.333 -57 33s-28.333 32.834 -37 54.501s-13 46.834 -13 75.501v316c0 5.33301 2 10 6 14
s8.66699 6 14 6h19c5.33301 0 10 -2 14 -6s6 -8.66699 6 -14v-316c0 -42 12.167 -71.667 36.5 -89s54.5 -26 90.5 -26c18 0 34.667 2.83301 50 8.5s28.833 13.5 40.5 23.5s20.667 21.667 27 35s9.5 27.666 9.5 42.999v321c0 5.33301 2 10 6 14s8.66699 6 14 6h19
c5.33301 0 10 -2 14 -6s6 -8.66699 6 -14v-460c0 -5.33301 -2 -10 -6 -14s-8.66699 -6 -14 -6h-16c-4.66699 -0 -9.33398 2.33301 -14.001 7l-10 10.5c-3.33301 3.66699 -8 5.5 -14 5.5zM202 600.998c-3.33301 -3.33301 -7.5 -6.83301 -12.5 -10.5s-11.167 -5.5 -18.5 -5.5
h-43c-6.66699 0 -11 2.66699 -13 8s-1.33301 9.66602 2 12.999l118 112c3.33301 3.33301 6.83301 6.16602 10.5 8.49902s10.167 3.5 19.5 3.5h22c8.66699 0 14.834 -1.16699 18.501 -3.5s7.16699 -5.16602 10.5 -8.49902l118 -112c3.33301 -3.33301 4 -7.66602 2 -12.999
s-6.33301 -8 -13 -8h-43c-7.33301 0 -13.5 1.83301 -18.5 5.5s-9.16699 7.16699 -12.5 10.5l-67 65c-4.66699 4.66699 -9.33398 4.66699 -14.001 0z" />
    <glyph glyph-name="udieresis" unicode="&#xfc;" 
d="M387 23c-7.33301 0 -14.166 -1.66895 -20.499 -5.00195l-22 -11.5c-8.33301 -4.33301 -18.5 -8.16602 -30.5 -11.499s-27.333 -5 -46 -5c-26 0 -50 3.66699 -72 11s-41 18.333 -57 33s-28.333 32.834 -37 54.501s-13 46.834 -13 75.501v316c0 5.33301 2 10 6 14
s8.66699 6 14 6h19c5.33301 0 10 -2 14 -6s6 -8.66699 6 -14v-316c0 -42 12.167 -71.667 36.5 -89s54.5 -26 90.5 -26c18 0 34.667 2.83301 50 8.5s28.833 13.5 40.5 23.5s20.667 21.667 27 35s9.5 27.666 9.5 42.999v321c0 5.33301 2 10 6 14s8.66699 6 14 6h19
c5.33301 0 10 -2 14 -6s6 -8.66699 6 -14v-460c0 -5.33301 -2 -10 -6 -14s-8.66699 -6 -14 -6h-16c-4.66699 -0 -9.33398 2.33301 -14.001 7l-10 10.5c-3.33301 3.66699 -8 5.5 -14 5.5zM231 637.998c0 -10.667 -5.33301 -16 -16 -16h-52c-10.667 0 -16 5.33301 -16 16v53
c0 4 1.5 7.66699 4.5 11s6.83301 5 11.5 5h52c4.66699 0 8.5 -1.66699 11.5 -5s4.5 -7 4.5 -11v-53zM402 637.998c0 -10.667 -5.33301 -16 -16 -16h-52c-10.667 0 -16 5.33301 -16 16v53c0 4 1.5 7.66699 4.5 11s6.83301 5 11.5 5h52c4.66699 0 8.5 -1.66699 11.5 -5
s4.5 -7 4.5 -11v-53z" />
    <glyph glyph-name="yacute" unicode="&#xfd;" 
d="M281 117c2.66699 -6.66699 5.33398 -6.66602 8.00098 0.000976562l134 368c3.33301 10 9.66602 15 18.999 15h28c8 0 13.667 -2.5 17 -7.5s4 -10.167 2 -15.5l-254 -662c-3.33301 -10 -9.66602 -15 -18.999 -15h-22c-8 0 -13.667 2.5 -17 7.5s-4 10.167 -2 15.5l74 201
c2 5.33301 2.33301 9.66602 1 12.999l-189 440c-2 5.33301 -1.33301 10.5 2 15.5s9 7.5 17 7.5h28c9.33301 0 15.666 -5 18.999 -15zM389 730.001c6.66699 0 11 -2.66895 13 -8.00195s1.33301 -9.66602 -2 -12.999l-108 -112
c-3.33301 -3.33301 -6.83301 -6.16602 -10.5 -8.49902s-10.167 -3.5 -19.5 -3.5h-19c-6.66699 0 -11.334 2.5 -14.001 7.5s-2.66699 9.16699 0 12.5l76 109c2.66699 3.33301 5.83398 6.83301 9.50098 10.5s9.16699 5.5 16.5 5.5h58z" />
    <glyph glyph-name="thorn" unicode="&#xfe;" 
d="M268 451c-22 0 -40.668 -4.33301 -56.001 -13s-27.666 -19.5 -36.999 -32.5s-16.333 -27.167 -21 -42.5s-7.66699 -29.666 -9 -42.999c-2 -20.667 -3 -44 -3 -70s1 -49.333 3 -70c1.33301 -13.333 4.33301 -27.666 9 -42.999s11.667 -29.5 21 -42.5
s21.666 -23.833 36.999 -32.5s34 -13 56 -13c24 0 44.333 4.33301 61 13s30.167 19.5 40.5 32.5s18 27.167 23 42.5s8.16699 29.666 9.5 42.999c2.66699 20.667 4 44 4 70s-1.33301 49.333 -4 70c-1.33301 13.333 -4.5 27.666 -9.5 42.999s-12.667 29.5 -23 42.5
s-23.666 23.833 -39.999 32.5s-36.833 13 -61.5 13zM83.999 687c0 5.33301 2 10.002 6 14.002s8.66699 6 14 6h19c5.33301 0 10 -2 14 -6s6 -8.66699 6 -14v-181c0 -4.66699 1.83301 -9.33398 5.5 -14.001s9.16699 -7 16.5 -7c4.66699 0 10.834 1.33301 18.501 4l25.5 8.5
c9.33301 3 19.5 5.83301 30.5 8.5s22.167 4 33.5 4c26 0 50.167 -5 72.5 -15s41.833 -23.5 58.5 -40.5s30.167 -37.167 40.5 -60.5s16.5 -48 18.5 -74c1.33301 -20 2 -43.333 2 -70s-0.666992 -50 -2 -70c-2 -26 -8.16699 -50.667 -18.5 -74s-23.833 -43.5 -40.5 -60.5
s-36.167 -30.5 -58.5 -40.5s-46.5 -15 -72.5 -15c-11.333 0 -22.5 1.33301 -33.5 4s-21.167 5.5 -30.5 8.5l-25.5 8.5c-7.66699 2.66699 -13.834 4 -18.501 4c-7.33301 0 -12.833 -2.33301 -16.5 -7s-5.5 -9.33398 -5.5 -14.001v-174c0 -5.33301 -2 -10 -6 -14
s-8.66699 -6 -14 -6h-19c-5.33301 0 -10 2 -14 6s-6 8.66699 -6 14v867z" />
    <glyph glyph-name="ydieresis" unicode="&#xff;" 
d="M281 117c2.66699 -6.66699 5.33398 -6.66602 8.00098 0.000976562l134 368c3.33301 10 9.66602 15 18.999 15h28c8 0 13.667 -2.5 17 -7.5s4 -10.167 2 -15.5l-254 -662c-3.33301 -10 -9.66602 -15 -18.999 -15h-22c-8 0 -13.667 2.5 -17 7.5s-4 10.167 -2 15.5l74 201
c2 5.33301 2.33301 9.66602 1 12.999l-189 440c-2 5.33301 -1.33301 10.5 2 15.5s9 7.5 17 7.5h28c9.33301 0 15.666 -5 18.999 -15zM231 638.001c0 -10.667 -5.33301 -16 -16 -16h-52c-10.667 0 -16 5.33301 -16 16v53c0 4 1.5 7.66699 4.5 11s6.83301 5 11.5 5h52
c4.66699 0 8.5 -1.66699 11.5 -5s4.5 -7 4.5 -11v-53zM402 638.001c0 -10.667 -5.33301 -16 -16 -16h-52c-10.667 0 -16 5.33301 -16 16v53c0 4 1.5 7.66699 4.5 11s6.83301 5 11.5 5h52c4.66699 0 8.5 -1.66699 11.5 -5s4.5 -7 4.5 -11v-53z" />
    <glyph glyph-name="Amacron" unicode="&#x100;" 
d="M104 15c-2 -10 -8.33496 -15 -19.002 -15h-25c-8 0 -13.667 2.16699 -17 6.5s-4.33301 8.83301 -3 13.5l191 665c2 10 8.33301 15 19 15h50c10.667 0 17 -5 19 -15l191 -665c1.33301 -4.66699 0.333008 -9.16699 -3 -13.5s-9 -6.5 -17 -6.5h-25c-10.667 0 -17 5 -19 15
l-49 169c-3.33301 9.33301 -9.66602 14 -18.999 14h-206c-9.33301 0 -15.666 -4.66699 -18.999 -14zM178.998 271c-2 -7.33301 0.666016 -11 7.99902 -11h176c7.33301 0 10 3.66699 8 11l-91 340c-1.33301 4 -2.66602 6 -3.99902 6h-2c-2 0 -3.33301 -2 -4 -6zM153.997 765
c-5.33301 0 -10 2 -14 6s-6 8.66699 -6 14v20c0 5.33301 2 10 6 14s8.66699 6 14 6h242c5.33301 0 10 -2 14 -6s6 -8.66699 6 -14v-20c0 -5.33301 -2 -10 -6 -14s-8.66699 -6 -14 -6h-242z" />
    <glyph glyph-name="amacron" unicode="&#x101;" 
d="M251 241c-28 0 -52.667 -7.66797 -74 -23.001s-32 -37.666 -32 -66.999c0 -18 3.16699 -33.5 9.5 -46.5s15 -23.833 26 -32.5s23.5 -15.167 37.5 -19.5s29 -6.5 45 -6.5c46 0 81.5 10.667 106.5 32s37.5 52.333 37.5 93v60c0 6.66699 -3.33301 10 -10 10h-146z
M283 454.999c-15.333 0 -30 -2.16211 -44 -6.49512s-26.333 -10.333 -37 -18s-19.334 -16.834 -26.001 -27.501s-10 -22.667 -10 -36c0 -8.66699 -2.66699 -13.667 -8 -15s-10.333 -2 -15 -2h-14c-13.333 0 -20 6.66699 -20 20c0 23.333 5 43.666 15 60.999
s23.333 31.833 40 43.5s35.334 20.5 56.001 26.5s41.667 9 63 9c24.667 0 47.834 -3.33301 69.501 -10s40.667 -16.834 57 -30.501s29.333 -30.834 39 -51.501s14.5 -45.334 14.5 -74.001v-324c0 -5.33301 -2 -10 -6 -14s-8.66699 -6 -14 -6h-9
c-6.66699 0 -11.334 2.33301 -14.001 7c-2.66699 4 -5 8.5 -7 13.5s-6.33301 7.5 -13 7.5c-4.66699 0 -10.667 -2 -18 -6s-16.333 -8.33301 -27 -13s-23.167 -9 -37.5 -13s-30.833 -6 -49.5 -6c-30.667 0 -57.5 4.33301 -80.5 13s-42 20.334 -57 35.001
s-26.167 31.667 -33.5 51s-11 39.666 -11 60.999c0 20.667 3.66699 40 11 58s18 33.5 32 46.5s31.333 23.167 52 30.5s44 11 70 11h143c6.66699 0 10 3.33301 10 10v39c0 32.667 -11.333 59.167 -34 79.5s-51.667 30.5 -87 30.5zM169 634.004c-5.33301 0 -10 2 -14 6
s-6 8.66699 -6 14v20c0 5.33301 2 10 6 14s8.66699 6 14 6h242c5.33301 0 10 -2 14 -6s6 -8.66699 6 -14v-20c0 -5.33301 -2 -10 -6 -14s-8.66699 -6 -14 -6h-242z" />
    <glyph glyph-name="Abreve" unicode="&#x102;" 
d="M104 15c-2 -10 -8.33496 -15 -19.002 -15h-25c-8 0 -13.667 2.16699 -17 6.5s-4.33301 8.83301 -3 13.5l191 665c2 10 8.33301 15 19 15h50c10.667 0 17 -5 19 -15l191 -665c1.33301 -4.66699 0.333008 -9.16699 -3 -13.5s-9 -6.5 -17 -6.5h-25c-10.667 0 -17 5 -19 15
l-49 169c-3.33301 9.33301 -9.66602 14 -18.999 14h-206c-9.33301 0 -15.666 -4.66699 -18.999 -14zM178.998 271c-2 -7.33301 0.666016 -11 7.99902 -11h176c7.33301 0 10 3.66699 8 11l-91 340c-1.33301 4 -2.66602 6 -3.99902 6h-2c-2 0 -3.33301 -2 -4 -6zM355.997 878
c0 4.66699 1.50098 8.66699 4.50098 12s7.16699 5 12.5 5h23c4.66699 0 8.66699 -1.66699 12 -5s5 -7.33301 5 -12c0 -18 -3.33301 -34.667 -10 -50s-16.167 -28.833 -28.5 -40.5s-26.833 -20.834 -43.5 -27.501s-35 -10 -55 -10s-38.5 3.33301 -55.5 10
s-31.667 15.834 -44 27.501s-21.833 25.167 -28.5 40.5s-10 32 -10 50c0 4.66699 1.66699 8.66699 5 12s7.33301 5 12 5h23c5.33301 0 9.5 -1.66699 12.5 -5s4.5 -7.33301 4.5 -12c0 -23.333 7.66699 -41.833 23 -55.5s34.666 -20.5 57.999 -20.5s42.5 6.83301 57.5 20.5
s22.5 32.167 22.5 55.5z" />
    <glyph glyph-name="abreve" unicode="&#x103;" 
d="M251 241c-28 0 -52.667 -7.66797 -74 -23.001s-32 -37.666 -32 -66.999c0 -18 3.16699 -33.5 9.5 -46.5s15 -23.833 26 -32.5s23.5 -15.167 37.5 -19.5s29 -6.5 45 -6.5c46 0 81.5 10.667 106.5 32s37.5 52.333 37.5 93v60c0 6.66699 -3.33301 10 -10 10h-146z
M283 454.999c-15.333 0 -30 -2.16211 -44 -6.49512s-26.333 -10.333 -37 -18s-19.334 -16.834 -26.001 -27.501s-10 -22.667 -10 -36c0 -8.66699 -2.66699 -13.667 -8 -15s-10.333 -2 -15 -2h-14c-13.333 0 -20 6.66699 -20 20c0 23.333 5 43.666 15 60.999
s23.333 31.833 40 43.5s35.334 20.5 56.001 26.5s41.667 9 63 9c24.667 0 47.834 -3.33301 69.501 -10s40.667 -16.834 57 -30.501s29.333 -30.834 39 -51.501s14.5 -45.334 14.5 -74.001v-324c0 -5.33301 -2 -10 -6 -14s-8.66699 -6 -14 -6h-9
c-6.66699 0 -11.334 2.33301 -14.001 7c-2.66699 4 -5 8.5 -7 13.5s-6.33301 7.5 -13 7.5c-4.66699 0 -10.667 -2 -18 -6s-16.333 -8.33301 -27 -13s-23.167 -9 -37.5 -13s-30.833 -6 -49.5 -6c-30.667 0 -57.5 4.33301 -80.5 13s-42 20.334 -57 35.001
s-26.167 31.667 -33.5 51s-11 39.666 -11 60.999c0 20.667 3.66699 40 11 58s18 33.5 32 46.5s31.333 23.167 52 30.5s44 11 70 11h143c6.66699 0 10 3.33301 10 10v39c0 32.667 -11.333 59.167 -34 79.5s-51.667 30.5 -87 30.5zM371 713.004
c0 4.66699 1.50098 8.66699 4.50098 12s7.16699 5 12.5 5h23c4.66699 0 8.66699 -1.66699 12 -5s5 -7.33301 5 -12c0 -18 -3.33301 -34.667 -10 -50s-16.167 -28.833 -28.5 -40.5s-26.833 -20.834 -43.5 -27.501s-35 -10 -55 -10s-38.5 3.33301 -55.5 10
s-31.667 15.834 -44 27.501s-21.833 25.167 -28.5 40.5s-10 32 -10 50c0 4.66699 1.66699 8.66699 5 12s7.33301 5 12 5h23c5.33301 0 9.5 -1.66699 12.5 -5s4.5 -7.33301 4.5 -12c0 -23.333 7.66699 -41.833 23 -55.5s34.666 -20.5 57.999 -20.5s42.5 6.83301 57.5 20.5
s22.5 32.167 22.5 55.5z" />
    <glyph glyph-name="Aogonek" unicode="&#x104;" 
d="M362 260c7.33301 0 9.99902 3.66699 7.99902 11l-91 340c-1.33301 4 -2.66602 6 -3.99902 6h-2c-2 0 -3.33301 -2 -4 -6l-91 -340c-2 -7.33301 0.666992 -11 8 -11h176zM170.999 198c-9.33301 0 -15.668 -4.66602 -19.001 -13.999l-49 -169c-2 -10 -8.33301 -15 -19 -15
h-25c-8 0 -13.667 2.16699 -17 6.5s-4.33301 8.83301 -3 13.5l191 665c2 10 8.33301 15 19 15h50c10.667 0 17 -5 19 -15l191 -665c1.33301 -4.66699 0.333008 -9.16699 -3 -13.5s-9 -6.5 -17 -6.5h-9c-26.667 0 -49.167 -6.16699 -67.5 -18.5s-27.5 -31.5 -27.5 -57.5
c0 -27.333 9.33301 -46.5 28 -57.5s44 -16.5 76 -16.5c5.33301 0 10 -2 14 -6s6 -8.66699 6 -14v-20c0 -5.33301 -2 -10 -6 -14s-8.66699 -6 -14 -6c-24 0 -46 2.5 -66 7.5s-37.333 12.667 -52 23s-26 23.666 -34 39.999s-12 35.833 -12 58.5c0 18 3 34.333 9 49
s14 27.5 24 38.5s21.667 20.333 35 28s27 13.5 41 17.5l-38 132c-3.33301 9.33301 -9.66602 14 -18.999 14h-206z" />
    </font>
</defs>
</svg>
